<?xml version="1.0" standalone="no"?><!DOCTYPE svg PUBLIC "-//W3C//DTD SVG 1.1//EN" "http://www.w3.org/Graphics/SVG/1.1/DTD/svg11.dtd"><svg t="1573527740160" class="icon" viewBox="0 0 1024 1024" version="1.1" xmlns="http://www.w3.org/2000/svg" p-id="1483" xmlns:xlink="http://www.w3.org/1999/xlink" width="200" height="200"><defs><style type="text/css"></style></defs><path d="M641.834667 887.296l-407.701334 0.213333-0.042666-86.357333 407.68-0.213333 0.064 86.357333zM917.333333 398.314667L847.573333 0 761.813333 14.762667l69.738667 398.293333L917.333333 398.336zM651.648 690.24l-405.973333-37.098667-8 85.994667 405.973333 37.056 8-85.973333z m26.773333-112.682667l-393.706666-104.96-22.613334 83.413334 393.728 104.938666 22.592-83.392z m51.413334-98.773333l-351.189334-205.376-44.245333 74.368 351.189333 205.376 44.224-74.346667z m86.101333-60.458667L586.218667 84.309333l-71.936 48.64 229.717333 333.994667 71.936-48.64z" fill="#FF810F" p-id="1484"></path><path d="M711.082667 603.264v352.981333H176.32V603.264H106.666667V1024h673.706666V603.264z" fill="#BEBCBC" p-id="1485"></path></svg>