<?xml version="1.0" standalone="no"?><!DOCTYPE svg PUBLIC "-//W3C//DTD SVG 1.1//EN" "http://www.w3.org/Graphics/SVG/1.1/DTD/svg11.dtd"><svg t="1565066567230" class="icon" viewBox="0 0 1024 1024" version="1.1" xmlns="http://www.w3.org/2000/svg" p-id="69096" xmlns:xlink="http://www.w3.org/1999/xlink" width="200" height="200"><defs><style type="text/css"></style></defs><path d="M895.99272 831.99272a63.99944 63.99944 0 0 1-63.99944-63.99944V383.99664a63.99944 63.99944 0 1 1 127.99888 0v383.99664a63.99944 63.99944 0 0 1-63.99944 63.99944zM286.782051 152.958662a327.677133 327.677133 0 0 1 66.367419-51.775547L304.509896 24.511786C303.229907 23.167797 303.165907 20.799818 304.061899 17.279849c0.959992-3.583969 4.287962-7.167937 10.047913-11.007904 5.119955-4.54396 9.855914-6.591942 14.335874-6.271945 4.479961 0.319997 7.359936 1.08799 8.639925 2.367979l49.599566 78.655312c17.791844-8.383927 36.60768-14.655872 56.319507-19.199832 19.775827-4.479961 40.127649 57.279499 61.119465 57.279499 43.327621 0 83.647268-54.975519 121.214939-37.247674l50.559558-79.615304c1.279989-1.279989 3.647968-1.919983 7.103938-1.919983 3.519969 0 8.767923 1.919983 15.807861 5.75995 6.399944 3.199972 10.047912 6.079947 11.007904 8.703924 0.959992 2.559978 0.767993 4.479961-0.447996 5.759949l-49.023571 77.69532c11.3919 5.183955 23.359796 12.095894 35.711687 21.119816 12.351892 8.895922 24.319787 19.519829 35.775687 31.615723 11.3919 12.095894 21.439812 25.343778 30.079737 39.743652 8.639924 14.335875 14.84787 47.551584 18.559838 63.551444H238.654472c10.111912-33.855704 26.175771-79.679303 48.127579-101.311113zM127.99944 831.99272a63.99944 63.99944 0 0 1-63.99944-63.99944V383.99664a63.99944 63.99944 0 1 1 127.99888 0v383.99664a63.99944 63.99944 0 0 1-63.99944 63.99944z m639.546404-39.93565c0 14.079877-4.54396 15.935861-13.823879 25.471777s-18.495838 14.399874-31.807722 14.399874h-17.343848v144.126739c0 12.799888-4.60796 23.99979-13.887878 33.535706a45.375603 45.375603 0 0 1-33.919704 14.399874h-33.663705a44.415611 44.415611 0 0 1-32.959712-14.335874 47.167587 47.167587 0 0 1-13.887878-33.535707V831.99272H446.780651v144.126739c0 12.799888-4.54396 23.99979-13.887879 33.535707a45.183605 45.183605 0 0 1-33.855704 14.335874h-31.615723a44.54361 44.54361 0 0 1-32.959712-14.335874 47.103588 47.103588 0 0 1-13.823879-33.535707V831.99272h-18.495838a45.631601 45.631601 0 0 1-33.919703-14.399874 49.279569 49.279569 0 0 1-13.887878-35.45569v-461.435962h514.2355l-1.023991 471.355876z" fill="#1EA983" p-id="69097"></path></svg>