<?xml version="1.0" standalone="no"?><!DOCTYPE svg PUBLIC "-//W3C//DTD SVG 1.1//EN" "http://www.w3.org/Graphics/SVG/1.1/DTD/svg11.dtd"><svg t="1565146747742" class="icon" viewBox="0 0 3474 1024" version="1.1" xmlns="http://www.w3.org/2000/svg" p-id="11669" xmlns:xlink="http://www.w3.org/1999/xlink" width="678.515625" height="200"><defs><style type="text/css"></style></defs><path d="M3457.676598 841.488849l-2.779852-1.389925v-8.04767l-4.072482-10.730227-8.117166-9.395898-10.855321-6.713342-1.389925-2.682556-8.144965-8.047671-12.189649-6.72724-10.827522-4.016886h-2.779851l-10.841421-9.395898-14.900004-8.04767-16.262131-8.04767-17.61036-5.379013h-2.779851l-13.537877-14.761011-16.262131-13.426683-16.262132-8.033771-16.262131-4.030784h-2.710355l-14.649818-10.702429-24.393197-9.395898-10.841421-1.389926-14.900004-9.409797-16.248232-6.699442-14.858306-2.640859-16.262131-1.389926-16.262132 1.389926-12.189648 2.682557-6.782838-12.078455-20.320715-13.426683-25.741425-5.365113h-23.031069l-28.45178 5.379012-8.144965 2.668658-20.306816-8.04767-23.031069-6.713342-24.393197-2.682556h-23.03107l-24.476593 2.682556h-2.779851l-24.393197-9.395898-25.64413-6.699442-25.741425-4.030785-13.537877-1.389925-21.682842-20.126125-24.393197-17.443568-24.379297-12.078455-21.682842-6.713342-27.103552-1.389925-12.189649 1.389925-10.841421-9.409797-18.972487-8.04767-23.01717-2.682557-13.565675 2.682557-18.958588-6.713341-20.320714-5.379013-18.972487-2.668658h-6.782837l-28.45178-10.744126-35.20682-9.312502-32.510363-2.682557h-4.072483l-29.800008-17.443568-33.87249-8.061569h-23.044969l-50.120723-12.120153-32.524263-2.682557h-10.84142l-16.248233-16.109239-23.031069-13.426683-25.741425-6.699442-25.741425 2.682557-16.276031 4.016885-21.668942-4.016885-23.03107-1.389926-27.103552 1.389926h-1.389926V426.707206l-40.558033-9.326402-37.944973-5.379012-35.234618-1.389926-12.189649 1.389926v-1.389926l-27.089653-4.030785-27.103552-2.682556h-2.779852l-29.813907-12.078455-31.162135-8.06157-28.451781-4.030784h-20.320714l-29.813908-10.716328-24.379297-5.365113-25.741425-1.389926h-4.072483l-28.437881-18.777897-27.103552-10.744126-20.334614-2.682557-21.682841-10.646831-32.524263-8.04767-28.437881 1.389926-28.465679-13.426683-29.813908-6.699442h-14.900004l-29.813907-16.10924-29.800008-8.04767-29.800008-1.389926-5.43461 1.389926L1342.668277 248.268538l-29.800008-10.730227-31.148236-2.640859h-1.389926l-16.248232-9.381999-17.624258-8.061569-18.944688-5.365113-20.334614-1.389926-16.262131 1.389926-18.958588-13.426683-23.031069-9.381999-25.741425-4.030785-21.696741 1.389926-25.685828 5.253919-2.779852 1.389926-25.741425-12.078455-27.075753-6.741139-25.755325-1.389926-20.306815-13.398884-21.682842-8.06157-23.031069-2.696456-21.682842 2.696456-18.930789 5.448509-14.913903-14.761011-18.958587-12.134052-23.044969-4.030785-20.320715 4.030785-14.900004 6.699442-9.493193-6.699442-9.479293-4.030785-10.827522-4.030785-8.144965-1.320429-12.189649 1.320429-12.203548 4.030785-12.17575 8.061569-2.779851 2.668658-23.01717-5.351214-23.044969 1.389926-20.320715 6.713341-16.248232 12.078455-13.565675 16.109239-9.479294 20.126125-6.768938 21.474353L601.559866 232.117601l-2.696456 22.822581 1.389926 101.992751c-13.551776-5.351214-27.089653-10.730227-39.293201-14.761011l1.389925-14.761012 2.640859-16.067541 1.389926-17.457468 1.389926-17.443568 1.389926-16.109239 1.389925-16.10924-1.389925-16.09534-1.389926-16.10924-1.389926-16.109239-2.779851-13.412784-4.072483-13.426682-1.389926-5.365114 1.389926-4.016885 4.072483-13.440582 5.434609-13.412784 4.058583-13.426683 6.782838-13.412783-23.01717 21.488252-10.841421 9.381999-4.072483-5.351214-9.465394-9.409798-10.85532-8.04767 2.710355 16.10924 2.710355 16.109239 2.710355 10.716328-6.782837 9.409797-4.058583 9.395898-1.389926-4.016885-2.779852-8.06157-2.599161-9.437595-2.779851-10.730227v-9.354201l-1.389926-10.744126-1.389926-9.395898-1.389926-10.730227v-10.730226l1.389926-9.409798 1.389926-9.381999 1.389926-9.395898 2.779851-9.409797 2.710355-8.04767-12.189648 16.109239-9.493193 17.457468L486.474014 97.948068 482.304236 115.363837l-1.389925 18.791797v18.777897l2.779851 18.847393 4.072482 18.777897 4.072483 14.761011-6.755039-4.016885-6.782838-9.409798-8.117166-10.716327-8.131066-10.744126-6.768938-12.078455-6.782838-13.440582-5.406811-16.09534-4.072483-18.791796-1.389925-21.460454-14.900004 13.412783L414.587054 116.753763l-4.072483 16.09534v16.095341l2.779852 16.109239 6.782837 17.457468 8.019872 17.443568 8.131066 13.426683-14.913904-2.682557-16.262131-1.389926 10.85532 6.713342 10.827522 6.713341 10.841421 6.713341 9.493192 6.699442 9.465395 6.713342 8.144965 8.04767 13.537877 14.774911 13.551776 13.412783 12.189649 13.426683 10.84142 12.078455 9.493193 10.730227 5.406811 6.713341 5.43461 6.699442 2.710355 4.030785C379.352436 269.75679 208.641755 194.589605 0 95.265511 42.003556 163.719354 196.452106 234.897452 260.138504 283.169574c67.744981 36.235364 161.231387 75.153285 242.528145 106.023536L485.084088 393.209996l-17.610359 2.682556-6.768939 1.389926h-4.11418l-12.189649 1.389926-12.189649 1.389925h-12.189649l-12.203548 1.389926h-24.379298l-12.203548-1.389926-12.189648-1.389925-12.189649-1.389926-12.203548-1.389926-12.189649-2.682556-12.203548-2.640859 13.565675 9.381998 13.537877 8.047671 13.565675 5.379012 13.537877 4.030785 8.144965 1.389926-17.638158 5.351214-17.610359 6.713341-21.668943 12.078455-16.262131 10.744126-13.551776 10.730227-12.203548 13.426683-10.827522 13.412783-8.144965 16.067542-5.406811 18.791796 5.42071-6.713341 6.782838-6.699442L268.25567 505.932974l6.755039-6.699442 8.144965-5.379013 8.117167-5.365113 8.131065-5.365114 8.131066-5.379012 9.479294-4.016886L325.242626 469.794905l9.479294-2.696456 9.493193-4.030785 9.479293-2.668658 9.493193-2.682556 8.117167-1.389926 9.493193-1.389926 16.248232-6.713341 17.610359-9.395898L432.266909 428.097132l17.610359-10.730227 16.262132-9.409797 8.131065-2.668658h1.389926l-12.217447 6.699442-12.17575 8.06157-13.635171 8.04767-13.551777 9.395898-12.189648 8.061569-13.551776 8.04767-12.189649 8.047671-13.551776 8.061569-13.551776 8.033771-13.551777 8.061569-13.537876 8.04767-13.565676 8.04767-16.248232 10.758026-14.900004 8.033771 14.900004 1.389925 14.900004-1.389925 13.551776-2.682557 13.537877-4.016886 13.565676-5.365113-4.072483 4.030785-9.493193 14.761011-6.768938 16.09534-2.710355 17.443569 2.710355 17.457467 6.782837 17.443568 10.827522-20.140024 10.85532-16.09534L376.669879 544.850895l10.827522-12.078455 10.85532-9.381998 12.175749-8.06157 12.189649-8.04767 12.203548-6.699442 6.782838-4.030785-1.389926 1.389926-4.058583 17.443568-2.779851 21.474353 1.389925 22.822581 4.12808 25.477339 8.131065 29.522023 2.710356-14.774911 2.696456-13.412783 4.072482-13.426683 4.058583-13.412784 4.072483-13.426682 5.406811-12.078455 5.43461-13.426683L482.304236 507.3229l6.782838-12.078455 6.782838-12.078455 6.782837-13.426683 6.755039-12.078454 8.144965-12.078455 8.103268-13.412784 8.144964-13.426682 6.768939-10.730227c10.85532 4.016885 20.320715 8.04767 29.800008 10.730227l-17.610359 29.522023L536.511341 480.455635l-13.551776 38.917921-5.420711 21.474353-1.389926 20.126125 1.389926 20.140024 4.072483 17.443568 9.479293 18.791796 14.900004 16.10924 21.682842 12.078455 21.655043 6.699442 5.43461 12.078455 12.189649 16.109239 12.189649 10.744126 10.827521 8.04767 12.217448 6.699442 12.189649 4.030785 10.827521 1.389926h13.551776l12.189649 16.109239 17.652057 13.384985 20.334614 8.04767 24.379298 1.389926 18.972486-5.379012 2.779852 4.016885 17.624258 16.109239 17.610359 12.078455 17.61036 8.06157 24.393197 4.016885 14.900004-1.389926 14.900004 10.758026 23.03107 9.381998 20.320714 5.379013 14.913903 10.716328 24.379298 10.744126 31.162136 6.713341 28.45178 1.389926 1.389925 1.389926L1047.420249 860.364041l21.682842 12.078455 20.334613 6.713341 25.741425 2.668658 23.03107-4.016886 9.479294 5.365114 17.610359 8.061569L1184.216742 895.112185l17.610359 1.389926 16.262131-2.696456 5.43461 4.016885 28.437881 9.409797 32.510363 4.016886 35.234618-1.389926 6.782838 4.030785 28.437881 9.395898 28.465679 4.030785 37.917174-1.389926 24.407097 8.061569 29.800008 4.016886 28.45178-1.389926 9.493193 5.379013 28.437881 10.730226 32.524262 4.030785 32.510364-4.030785v-1.389925l16.262131 4.030784h27.103552l29.813908-6.713341 17.610359 6.713341 23.03107 5.365114 23.031069 2.682556H1772.155335l6.782838 2.682557 27.089653 8.061569 28.45178 5.351215 31.162135 1.389925 31.162136-2.696456v-1.389925l16.262131 4.030784 25.741425 4.030785 25.741425 1.389926 1.389926-2.696456 17.610359 5.379013 33.87249 5.365113 36.568947 1.389926 39.293201-1.389926 5.43461 1.389926 24.379297 5.365113 23.03107 2.668658 23.03107 1.389925 1.389926 1.389926 21.682841 10.730227 25.741425 6.713341h23.03107l24.379298-5.379012 20.334614-12.064556 23.031069 6.713341 31.162136 2.682557h32.510363l6.796737 2.668658 32.496464 5.379012 31.162135-2.682556 32.524263-10.730227 27.089653 2.682556 33.872491-1.389925 25.741425-4.016886 14.900004 2.696456 18.972486 1.389926 42.003556-4.030785 13.551776 5.379013 20.320715 2.682557L2689.506332 1011.865948l13.551776-6.713341h1.389926l21.668942 6.713341 23.03107 4.030785h23.044969l24.379298-5.365114 25.741425-12.078454 24.254204-14.719314 18.972487 1.389926 25.741425-1.389926 21.682841-2.682557 12.189649 4.030785 21.682842 4.030785 21.668942 2.668657 23.044969-1.389926 21.668943-4.016885 4.072482 1.389926 27.075754 9.395898 24.407096 5.379012h21.668943l21.682841-6.72724 10.827522-10.730227 5.43461 1.389926 14.900004 4.016885 14.900004 2.682557 16.262131-1.389926 14.900004-2.668657 10.85532-4.030785 18.944688 1.389926 20.334614-2.696456 18.972487-8.04767h2.710355l18.958587-1.389926 16.262132-2.682557 18.972486-8.04767 13.551776-9.395898h17.610359l16.262132-2.682557 14.900004-4.016885 16.248232-6.727241h6.796737l9.465394-1.389926 9.493193-4.016885 2.710355-2.696456 10.841421-1.389926 12.189649-5.365113 5.42071-9.395898 1.389926-6.713342h4.058583l12.189649-12.078454 1.389926-5.351215 2.779852 1.389926 1.389925-33.552807-16.262131-18.791797zM559.570209 342.19972L539.291192 334.15205l-1.389926-2.682556v-2.696456l1.389926 2.696456-1.389926-4.030785v-5.365114l1.389926-16.109239 1.389926-16.109239 1.389926-16.095341 1.389925-14.77491 1.389926-10.716328 1.389926 12.078455 1.389926 13.412783 2.710355 13.426683 2.779851 13.412784 2.696456 13.426682 2.779852 13.412784 1.389926 14.761011zM502.666649 390.569137h1.389925l-6.782837 4.030784h-8.131066l4.072482-2.682556 9.507093-1.389926z m-35.234618 37.527995l12.203548-12.078455 12.189649-13.426683 5.42071-5.365113 8.131066-4.030785-5.43461 1.389926 2.779852-2.696456c6.782838 2.682557 14.900004 5.365113 21.682841 8.04767l-8.144965 5.379013-13.537876 6.699442-16.262132 8.061569-16.317728 8.019872-9.479294 4.030785 6.782838-4.030785z m70.469235-18.791796l-6.782837 6.713341-9.465395 5.365114-8.158864 5.323415 2.710355-5.365113 10.855321-21.474353a76.445916 76.445916 0 0 0 16.248232 5.379013z" fill="#DCDDDE" p-id="11670"></path><path d="M3471.228374 838.125229c-279.555767-38.00057-1313.591031-90.928943-1773.614757-165.554056-370.456911-61.073338-732.782756-170.960868-1078.818672-286.324706-89.566816-29.855605-246.975907-90.915044-348.74627-146.553771C206.264982 190.795108 51.566245 117.518222 9.493193 49.675946c670.361191 317.528538 940.409865 404.384999 1726.120994 564.504446C2054.504853 679.326212 3213.397147 772.95161 3471.228374 838.125229z" fill="#231F20" p-id="11671"></path><path d="M2480.614391 961.578434l-29.855606 10.855321-29.855605 1.389925-28.507377-4.072482-29.841706-12.217448-28.507377-14.927802-28.493478-21.71064-27.14525-23.072768-25.783123-25.783123-25.783122-25.783122-24.420996-25.783123-23.01717-25.810921-20.348513-23.058868-20.362413-20.362413-17.665956-14.927802-16.276031-10.85532-13.607373-4.086382h10.855321l13.579574 1.389926 13.565675 1.389925 14.927803 1.389926 13.565675 1.389926 14.927803 1.389926 13.565675 1.389925 12.217448 1.389926 20.362412 19.000285 18.986386 16.276031 16.28993 17.638157 14.927802 17.652058 14.927803 16.27603 14.927802 16.28993 13.565676 16.276031 13.579574 14.927802 14.927803 14.927803 14.913903 13.565675 16.28993 13.579575 17.638158 12.203548 19.000285 12.217447 21.71064 10.85532 23.072768 10.85532 27.14525 8.144965z" fill="#EE4358" p-id="11672"></path><path d="M2578.312272 957.505952l-33.928088 5.43461-32.56596 1.389925-29.855605-2.710355-28.493478-8.144965-27.14525-10.85532-23.058869-13.565675-24.434894-14.927803-20.348513-19.014184-21.710641-19.000285-20.362412-20.348513-19.000285-21.71064-19.000285-21.710641-20.348513-21.724539-19.000285-20.348513-20.348513-20.348513-20.362412-17.652057h16.28993l8.144964 1.389925h8.131066l9.507092 1.389926 8.144965 1.389926 9.493193 1.389926h8.144965l8.144965 1.389925 9.493193 1.389926 9.493193 1.389926h9.507092l9.493193 1.389926h19.000285l9.493193 1.389925 6.796737 10.855321 8.131065 13.565675 12.217448 16.28993 10.85532 16.28993 14.927802 17.638157L2408.74133 838.125229l16.28993 18.986386 16.27603 17.652057 17.582561 17.568661 16.28993 16.276031 19.000285 14.927803 17.638158 12.217447 16.28993 10.85532 17.638157 6.782838 17.638158 4.072482z" fill="#C32164" p-id="11673"></path><path d="M2643.444193 958.868079l-20.348513 1.389926-19.000285 2.779851-17.638158-1.389925-17.638158-2.779852-19.000285-4.072482-17.638158-6.782838-16.28993-9.507092-19.000285-12.203548-17.638158-12.217448-19.000285-16.289929-17.638157-18.986386-19.000286-20.362412-20.348513-24.420996-20.362412-27.14525-21.71064-29.911202-21.71064-32.56596h13.565675l12.217447 1.389925 13.565676 1.389926 12.217447 1.389926 12.217447 1.389926 13.565676 1.389925h28.493478l13.565675 12.217448 10.85532 13.565675 12.217448 13.565675 12.217447 13.579575 10.85532 13.565675 12.217447 14.927803 10.855321 12.217447 12.203548 14.927803 10.85532 13.565675 12.217447 13.565676 12.217448 13.579574 12.203548 12.203548 13.579574 12.217448 13.565676 10.85532 13.565675 12.217447 14.927803 10.85532z" fill="#EE4358" p-id="11674"></path><path d="M2712.662495 954.795597l-14.927803 8.144965-17.652057 2.779851-16.27603-1.389926-17.638158-6.782837-17.652057-10.85532-17.638158-14.927803-17.638158-14.927803-19.000285-19.000285-17.638157-20.348513-17.638158-20.362412L2522.715242 836.735303l-17.638158-20.362412-14.927803-18.986386L2475.179781 779.748347l-14.927803-14.927802-12.217447-12.203548 84.132206 8.144965 9.507092 12.203548 10.85532 12.217447 9.493193 13.565675 9.507092 12.217448 9.493193 12.217447 9.507092 12.203548 9.493193 13.579575 10.85532 12.203548 10.85532 12.217447 10.85532 12.217448 10.855321 12.203548 13.579574 12.217447 12.203548 10.85532 13.579575 12.217448 14.927802 10.85532 14.913904 10.85532z" fill="#C32164" p-id="11675"></path><path d="M2852.433429 937.157439L2827.998534 952.099141l-23.128364 10.841421-23.058869 5.42071h-21.71064l-21.71064-4.072482-20.362413-8.131066-20.348513-10.869219-19.000285-13.565676-19.000285-17.638158-18.944688-17.58256-17.638157-21.710641-19.000285-21.71064-17.638158-23.072767-16.28993-23.072768-17.638158-24.407096-16.28993-21.71064 14.927803 1.389925 10.85532 1.389926h8.144965l6.782838 1.389926 6.796736 1.389926h17.638158l13.565676 1.389925 14.927802 20.348513 14.927803 20.362413 14.927802 19.000285 16.276031 16.27603 16.276031 14.691516 16.289929 14.927802 16.276031 12.217448 16.28993 10.85532 14.927802 9.493193 16.276031 9.507092 14.927803 5.42071 13.579574 5.43461 14.927803 5.42071 12.203548 2.710355 13.579574 1.389926z" fill="#EE4358" p-id="11676"></path><path d="M2925.710314 931.722829l-25.783122 4.072483-24.434895 1.389925-23.058868-1.389925-23.072768-4.072483-21.71064-4.072482-21.71064-6.782838-19.000285-9.493193-19.055882-10.85532-19.000285-12.217447-17.638158-13.565676L2693.676109 859.808071l-16.28993-16.28993-16.27603-17.638158-14.927803-19.000285-14.927802-19.000285-13.579575-20.348513h14.927803l17.638158 1.389926 16.289929 2.779851h17.638158l13.579575 1.389926 12.203548 1.389926h8.144965l4.072482 1.389926 1.389926 1.389925 4.072482 4.072483 6.782838 6.782837 8.131066 8.144965 8.144965 9.493193 10.85532 10.85532 12.217447 10.86922 13.565676 13.565675 14.927802 12.217448 16.28993 13.565675 14.927803 12.217447 17.638157 13.565676 17.638158 10.85532 19.000285 10.85532 19.000285 9.493193 19.000285 8.144965z" fill="#C32164" p-id="11677"></path><path d="M3022.059968 937.157439l-20.362413 4.072482-20.348513 1.389926-21.724539-1.389926-21.71064-4.072482-21.710641-6.782838-20.348513-9.507092-20.362412-9.493193-20.348513-13.579574-19.000285-13.565676-19.000285-13.565675-17.638158-14.927803-17.638158-16.220433-16.28993-16.276031-16.303829-16.359426-14.927802-14.927802-13.579575-16.276031h9.507092l12.203548 1.389926h25.783123l13.579575 1.389925 12.203548 1.389926 10.85532 1.389926 8.144965 1.389926v1.389925l2.710355 4.072483 8.144965 6.782838 10.85532 8.144965 13.579575 12.217447 16.27603 12.217447 17.638158 13.565676 17.652057 13.565675 19.000285 13.565675 18.986386 14.927803 19.000285 12.217447 16.28993 12.217448 16.276031 10.85532 14.927802 9.493193 10.85532 5.434609 6.782838 4.072483z" fill="#EE4358" p-id="11678"></path><path d="M3130.613169 937.157439l-13.565675 12.16185-16.28993 5.43461h-20.348513l-23.072768-5.43461-25.783122-9.493193-25.783123-13.565675L2978.610889 911.374316l-27.117452-17.652057-27.089653-18.986386-24.420995-19.000285-24.490492-19.000285-20.348513-16.28993-17.638158-14.927802-13.579574-12.203548-9.493193-6.782838L2810.429873 782.528199l10.85532 1.389926h10.85532l12.217447 1.389925 10.85532 1.389926 13.565676 1.389926h12.217447l12.217447 1.389926h13.565676l14.927802 9.493193 13.565676 8.144965 14.927802 9.493192 13.565676 9.507093L2977.220963 835.345378l13.565675 9.507092 14.927803 9.493193 13.565675 9.507092 13.579575 10.85532 13.565675 9.493193 13.565675 9.493193 13.579575 9.507092 14.913903 8.144965 13.579575 8.131065 13.565675 9.507093 14.927803 8.144964z" fill="#C32164" p-id="11679"></path><path d="M3209.338564 938.505667l-13.579575 4.072482-13.565675 2.779852-13.565676 1.389926-13.579574-2.779852-13.565676-4.072482-13.565675-5.43461-14.927803-8.131066-16.234332-9.53489-17.638158-10.85532-17.707654-12.217448-20.362413-14.913903-21.71064-14.927803-24.420995-16.28993-25.783123-17.638157-28.493478-19.000285-31.217732-20.362413 12.217447 1.389926h28.493478l13.565675 1.389926h12.217448l9.493193 1.389926 6.796737 1.389925h1.389925l2.710355 2.710356 4.072483 4.072482 6.796737 6.782838 9.493193 8.144965 12.217447 10.85532 13.565675 12.217447 13.565676 10.85532 17.638158 13.565676 16.289929 12.217447 17.638158 12.217447 17.638158 10.85532 17.652057 12.203549 17.638158 9.507092 17.638158 6.782837 16.28993 5.420711 14.927802 4.072482z" fill="#F8E47F" p-id="11680"></path><path d="M3266.32552 929.012474l-17.638158 8.144965-19.000285 2.779851-21.710641-1.389925-20.348513-5.420711-23.072767-8.144965-20.362412-10.85532-23.058869-12.217447-20.362412-13.565675-19.000285-14.927803-19.000285-14.927803-17.638158-13.565675-14.927802-14.927803-13.565676-12.217447-10.85532-9.493193-8.144965-6.782838-4.072482-5.434609 12.217447 1.389926h12.217447l12.203549 1.389925 10.85532 1.389926 12.217447 1.389926h10.85532l13.565676 1.389926 12.217447 1.389925 9.493193 8.144965 10.869219 9.493193 8.131066 8.144965 10.85532 9.493193 10.85532 10.85532 9.507092 9.507092 10.85532 9.493193 12.217448 9.507092 10.85532 8.131066 10.85532 8.144965 12.203548 8.144965 10.85532 6.782837 12.217448 6.782838 12.217447 5.43461 12.203548 4.072482 12.217448 2.710355z" fill="#F3C67A" p-id="11681"></path><path d="M3336.878151 907.301834l-16.345527 10.85532-16.276031 6.782838-14.927802 4.072482h-16.28993l-16.276031-2.710355-14.927802-5.43461-16.28993-6.782838-14.816609-9.493192-16.331627-9.479294-14.927803-13.565675-14.927802-12.217448-14.969501-13.593474-14.927802-13.579574-14.927803-13.565676-13.565675-13.565675-14.927803-12.217447h9.493193l8.144965 1.389925 10.85532 1.389926 10.85532 1.389926 12.217448 1.389926h12.203548l13.579574 1.389925 13.565676 1.389926 2.710355 9.493193 5.43461 9.507092 6.782837 8.144965 6.782838 9.493193 8.144965 8.144965 8.144965 6.782838 8.131065 8.144965 10.86922 6.782837 10.85532 6.782838 10.85532 5.43461 12.203548 5.42071 10.85532 4.072482 13.579575 2.779852 12.203548 2.779851 13.579575 1.389926 13.565675 1.389926z" fill="#F8E47F" p-id="11682"></path><path d="M3399.299716 895.112185l-13.565675 5.43461-14.927803 4.072482-14.927802 2.710355h-16.28993l-16.276031-1.389925-16.289929-1.389926-17.638158-5.43461-16.28993-4.002986-16.276031-8.144965-14.927802-6.782838-13.565676-9.493193-12.217447-9.507092-10.85532-10.85532-9.507092-12.203548-6.782838-13.579575-5.42071-13.565675 9.493193 1.389926h9.507092l10.85532 1.389926 9.493193 1.389925h10.85532l10.85532 1.389926 12.217447 1.389926h13.565676l5.434609 8.144965 6.782838 8.144965 5.420711 6.782837 6.782837 6.782838 5.43461 5.43461 8.144965 5.42071 6.782837 5.43461 6.782838 4.058583 8.144965 4.072483 8.144965 4.072482 9.493193 4.072482 9.507092 4.072483 9.493193 2.779851 9.493193 2.779852 12.217447 2.710355 10.85532 2.779852z" fill="#F3C67A" p-id="11683"></path><path d="M3431.865677 884.229066l-5.420711 5.43461-6.782837 2.710355-9.507093 1.389926h-9.493192l-10.855321-1.389926-10.85532-1.389926-13.579574-4.072482-12.203548-4.072482-12.217448-5.420711-13.565675-6.782838-12.217448-6.782837-10.85532-8.144965-10.85532-8.144965-9.507092-9.493193-8.131066-9.507092-5.434609-10.85532 6.782837 1.389925h6.782838l6.796737 1.389926 8.131066 1.389926h6.796737l6.782837 1.389926h10.85532v2.779851l6.782838 6.782838 12.217447 8.144965 14.927803 10.85532 18.986386 9.493193 19.000285 10.85532 19.000285 8.144965 17.638158 4.072482z" fill="#F8E47F" p-id="11684"></path><path d="M3453.576317 862.518426l-1.389926 10.85532-4.072482 6.782838-5.43461 2.779851-9.493193 2.779852-9.507092-2.779852-12.203548-2.779851-12.217447-5.420711-12.217448-6.796737-12.203548-6.782837-12.217447-8.131066-12.217448-6.796737-9.493193-8.131065-8.144964-5.43461-6.782838-5.420711-4.072483-2.779851v-1.389926l61.073338 6.782838 5.42071 2.779851 6.782838 4.072483 9.507092 5.42071 10.85532 4.072483 10.85532 5.434609 10.855321 4.072483 9.493193 4.072482 6.782837 2.710356z" fill="#F8E47F" p-id="11685"></path><path d="M3383.079283 829.952466h13.565675l12.217447 1.389925 10.855321 1.389926h9.493193l9.493192 1.389926h10.855321l10.869219 2.779851 10.85532 1.389926-1.389926 14.927803-8.144965 8.131065h-10.85532l-13.565675-4.072482-14.927803-8.131066-14.927802-6.796737-13.565676-8.131065-10.869219-4.072483z" fill="#F3C67A" p-id="11686"></path><path d="M3385.734041 821.807501l13.565675 2.779851 10.85532 1.389926 10.855321 2.710355 10.85532 1.389926 9.507092 2.779851 9.493193 1.389926 10.85532 2.779852 10.85532 2.779851 1.389926-16.27603-6.782838-12.217448-10.85532-2.779851-14.927803-1.389926-16.289929 2.779852-16.276031 4.072482-13.579575 5.43461z" fill="#F8E47F" p-id="11687"></path><path d="M2563.384469 500.192581l-35.276315-12.203548-32.57986-9.507093-31.189934-2.710355-29.855605 2.710355-28.493478 5.43461-25.797022 9.507092-24.434895 13.565676-24.420995 14.927802-24.420996 17.652057-23.072767 18.986386-23.072768 20.362412-21.71064 20.348513-21.71064 19.000285-23.072768 19.000285-21.71064 19.000286-23.072768 16.289929 8.144965 1.389926 9.507093 1.389926h8.089367l8.144965 2.710355h8.144965l9.493193 1.389926h9.507092l8.144965 1.389926h8.131066l9.507092 1.389925 9.493193 1.389926 9.507092 1.389926h9.493193l9.507092 1.389926 9.493193 1.389925 9.493193 1.389926 8.144965-10.85532 10.85532-13.565675 10.85532-14.927803 14.927803-16.28993 14.927802-17.638158 16.28993-17.638157 19.000285-17.638158 17.665956-16.637411 20.362413-16.345527 19.000285-13.565676 20.362412-12.217447 20.348513-10.85532 19.000285-8.131066 20.348513-4.072482 19.000285-1.389926 19.000285 2.710355z" fill="#EE4358" p-id="11688"></path><path d="M2623.09568 513.772155l-20.362413-6.796737-18.986386-4.058583-17.652057-4.072482-19.000285-1.389926-18.986385 1.389926-19.000285 4.072482-17.638158 5.420711-19.000285 9.507092-20.362413 10.85532-19.000285 13.565675-20.348513 17.638158-21.71064 19.000285-23.072767 23.072768-23.072768 25.783122-24.420995 29.855606-25.713627 32.56596h13.565676l13.579574 2.710355h10.85532l12.203548 1.389926 10.855321 1.389926 10.869219 2.779851 13.565675 1.389926 16.276031 2.710355 14.927802-12.203548 12.217448-12.217447 14.927802-13.565676 12.217448-13.579574 13.565675-13.565676 13.565675-13.565675 12.217448-13.579575 13.565675-12.203548 13.579575-13.579574 14.927802-10.85532 12.203548-12.203549 14.927803-12.217447 14.927803-10.85532 16.289929-8.144965 14.927803-8.144965 17.638158-8.131066z" fill="#C32164" p-id="11689"></path><path d="M2688.2276 531.410313l-14.927802-12.217447-16.276031-6.782838-17.652057-1.389926-18.986386 4.072483-19.000285 8.144965-20.292916 10.883118-20.418009 13.510079-20.362412 17.652057-20.376312 17.693755-20.362412 19.000285-20.348513 19.000285-19.000285 20.348513-17.638158 17.638157-16.28993 16.28993-14.927802 14.927803-14.927803 12.203548 86.85646 9.507092 10.85532-12.217447 10.855321-13.565676 9.493192-12.217447 12.217448-12.217447 10.85532-13.565676 10.85532-12.217447 12.217447-13.565675 10.855321-12.217448 12.217447-10.85532 12.203548-12.203548 13.579575-10.85532 14.913903-10.85532 14.927803-9.507092 14.927802-9.493193 17.652057-8.144965 16.276031-6.782838z" fill="#EE4358" p-id="11690"></path><path d="M2818.505341 587.049041l-23.072767-23.072767-23.072768-16.345527-23.086667-10.799723-21.724539-6.782838-21.71064-1.389926-21.710641 4.058583-21.71064 8.144965-20.320714 9.54879-20.362413 14.927803-20.348513 16.27603-20.292916 19.000285-19.000285 20.362413-18.986386 21.71064L2524.105167 665.774436l-19.000285 23.072767-19.000285 21.71064 14.927803 1.389926 12.217447 1.389926h10.85532l9.493193 1.389926 9.507092 2.779851 9.493193 1.389926 12.217448 1.389926 14.927802 2.779851 16.276031-21.71064 14.927802-19.000285 17.568662-17.97174 14.927803-14.927803 17.652057-12.217447 14.913903-12.217447 14.927803-9.493193 16.289929-6.782838 14.927803-6.782838 13.565675-5.434609 16.28993-2.710356 13.565675-4.072482 13.579575-1.389926 13.565675-1.389926z" fill="#C32164" p-id="11691"></path><path d="M2910.782512 607.397554l-25.783123-9.493193-24.434895-6.782838-24.420995-4.072482-23.072768-1.389926h-23.058868l-21.724539 4.072483-21.710641 4.072482-20.348513 6.782838-20.362412 9.590488-18.986386 10.869219-20.362412 12.203548-17.638158 14.927803L2629.878517 662.994584l-16.28993 17.638158-17.638157 19.000285L2579.702198 719.98154l16.27603 2.779852 19.000285 2.779851 19.000285 2.710355 19.000285 1.389926 17.638158 2.779852 13.565675 1.389925 10.855321 1.389926h4.072482l1.389926-1.389926 4.072482-4.072482 5.420711-5.420711 6.782837-6.796737 8.144965-8.131065 10.85532-9.507092 12.217448-9.493193 13.565675-12.217448 14.927803-9.493192 14.927802-10.855321 17.638158-10.85532 19.000285-9.507092 19.000285-9.493193 20.362412-8.144965 21.710641-6.782837 21.655043-5.643099z" fill="#EE4358" p-id="11692"></path><path d="M3027.480678 622.325357l-20.348513-8.144965-21.724539-6.782838-23.058869-2.710355h-21.71064l-23.072767 2.710355-23.072768 4.072483-21.71064 8.144964-23.072768 8.144965-21.71064 10.85532-21.738439 10.855321-20.320714 13.523977-20.362413 13.565676-17.693754 13.621272-19.000285 14.927802-16.220434 14.872206-14.927803 14.927803 10.855321 1.389925 12.203548 1.389926 13.579574 1.389926 14.927803 1.389926 16.27603 2.779851 12.217448 1.389926h21.71064v-1.389926l2.710355-4.072482 8.144965-5.420711 12.217448-8.144965 13.565675-8.144965 17.638158-10.85532 19.000285-10.85532 19.000285-10.85532 20.348513-10.85532 20.362412-10.85532 20.348513-10.85532 19.000285-9.493193 17.638158-8.144965 14.927803-5.43461 13.579574-4.072482 9.493193-2.710356z" fill="#C32164" p-id="11693"></path><path d="M3138.758134 645.398124l-10.85532-17.638158-16.28993-10.85532-21.71064-2.779851h-23.072768l-25.783123 5.434609-28.493477 8.144965-29.855606 12.203548-29.855605 13.579575-29.827806 14.9834-27.131351 14.927802-27.14525 16.276031-23.072768 14.927802-20.348513 12.217448-14.886104 9.493193-9.493193 6.782837-5.43461 2.779852 10.85532 2.710355 13.565675 1.389926 13.579575 1.389926 13.565675 1.389925 14.927803 1.389926 14.927803 1.389926 14.927802 2.779851 13.565676 1.389926 14.927802-6.782838 14.927803-6.782837 14.927802-8.144965 13.565676-8.144965L2978.610889 722.761392l13.579574-8.144965 14.927803-8.144965 14.927802-8.131066 13.565676-6.796737 14.927802-8.131066 14.927803-6.796736 13.565675-6.782838L3093.974726 662.994584l14.927803-5.42071 14.927802-6.796737 14.927803-5.420711z" fill="#EE4358" p-id="11694"></path><path d="M3279.891195 683.398694l-17.652057-13.579574-19.000285-6.824536-20.348513-2.710355h-23.072768l-23.058868 4.100281-23.072767 6.782838-23.072768 8.144965-23.072767 10.85532-20.348514 12.203548-21.71064 10.85532-19.000285 13.579574-16.28993 10.855321-14.927802 10.85532-12.203548 9.493193-9.507092 5.434609-4.072483 4.072483 12.217447 1.389926 12.217448 1.389925 10.85532 2.779852h9.437596l10.85532 1.389926 10.85532 1.389925 12.217447 1.389926 12.217448 1.389926 10.85532-6.782838 10.85532-6.796737 12.203548-9.493193 12.217448-8.144965 12.217447-8.144964 12.217447-8.131066 13.565676-9.507092 12.217447-8.144965 12.203548-6.782838 13.565675-6.782838 13.579575-6.782837 12.203548-4.072483 13.579575-4.072482 13.565675-2.710355h12.314742l12.203548 1.389925z" fill="#F8E47F" p-id="11695"></path><path d="M3228.324949 660.325927l-13.579574-9.507092-14.927803-5.420711-13.565675-4.072482-13.565675-1.389926-13.579575 1.389926-16.276031 2.710355-16.289929 5.43461-17.638158 6.782837-19.000285 8.131066-19.000285 9.493193-21.710641 12.217447-24.420995 12.217448-25.783123 13.565675-28.493478 14.927802-31.217732 14.927803-33.928088 16.276031 13.579575 1.389925 13.565675 1.389926 13.565676 1.389926 14.927802 2.779851 12.217447 1.389926 9.493193 1.389926 8.144965 1.389926 2.710356-1.389926 1.389925-1.389926 5.420711-4.072482 6.796737-6.782838 9.493193-6.782838 12.217447-8.144965 14.927802-9.493192 14.927803-10.855321 16.276031-9.507092 17.638157-10.85532 19.000285-10.85532 19.000286-8.144965 20.362412-8.131066 18.986386-6.796736 20.362412-4.072483 19.000285-1.389926h19.000285zM3343.660988 722.761392l-14.927802-14.927803-14.927803-12.217447-14.927802-8.144965-14.927803-4.058584-16.27603-1.389925-16.28993 1.389925-17.638158 4.058584-16.28993 5.434609-17.638158 9.493193-16.27603 8.144965-17.652057 10.85532-17.638158 10.85532-17.638158 12.217448-16.28993 10.85532-16.27603 12.217447-16.28993 10.813623 8.144965 1.389925h10.85532l12.217447 2.779852 12.203548 1.389926 13.579575 1.389925 14.927803 2.779852 12.203548 1.389926 13.579574 1.389925 5.420711-10.85532 5.434609-8.131065 6.782838-9.507092 6.782838-6.782838 8.144965-8.144965 9.493193-5.420711 9.507092-5.434609 10.85532-4.072483 10.85532-4.072482L3264.935594 724.151317l10.85532-1.389925 13.565675-1.389926 13.565676-1.389926h12.217447l13.565675 1.389926 14.927803 1.389926zM3441.372769 775.675865l-4.072483-6.796737-6.782837-5.42071-8.144965-5.43461-9.507092-2.779852-12.203548-2.710355h-39.362698l-13.565675 2.710355-13.565675 4.072483-13.579575 4.072482-12.203548 5.420711-12.217448 6.796737-10.85532 8.131065-9.493193 8.144965-6.796737 9.507092 6.796737 1.389926 8.131066 1.389926 9.507092 1.389926 8.144965 2.779851h8.131066l6.796737 1.389926h5.42071l4.072483-1.389926 6.782837-5.43461 13.565676-6.782837 16.289929-6.782838 17.638158-5.43461 20.362413-6.782837 20.348513-2.710355 20.362412 1.389925z" fill="#F3C67A" p-id="11696"></path><path d="M3460.373054 808.241825v-13.579574l-2.779852-9.493193-5.42071-5.43461-9.507092-4.058583-9.493193-2.779852-12.217447 1.389926-12.203549 1.389926-14.872205 4.072482-13.579575 4.072483-13.565675 5.43461-12.217447 4.072482-10.855321 5.42071-9.493192 4.072483-8.144965 2.710355-4.072483 4.072483h-1.389926l63.783693 10.85532 5.43461-1.389926 8.131066-2.779852 9.507092-2.779851 10.85532-4.072482 10.85532-1.389926 12.217447-2.779852h9.493193l9.507092 2.779852z" fill="#F3C67A" p-id="11697"></path><path d="M3407.444681 755.313453l-12.217447-10.85532-13.565675-8.144965-14.927803-6.782838-16.28993-5.42071-17.638158-2.779852-16.27603-2.779851h-17.652057l-17.638158 2.779851L3264.935594 724.151317l-16.28993 5.420711-14.927803 6.782837-14.927802 6.782838-12.217448 10.85532-12.203548 10.85532-8.144965 12.217448-6.782837 13.565675 9.493193 1.389926 9.507092 1.389926 10.85532 1.389925 10.85532 1.389926 10.85532 1.389926 12.203548 1.389926 12.217448 1.389925 13.565675 2.779852 5.43461-8.144965 5.434609-5.42071 5.420711-5.43461 8.144965-5.420711 6.782837-5.434609 9.493193-4.072483 8.144965-4.072482 9.507092-4.058583 9.493193-2.779852 10.85532-2.779851 9.507093-1.389926 9.493192-1.389926h31.203834l9.507092 2.710355z" fill="#F8E47F" p-id="11698"></path><path d="M593.011823 376.669879l-1.389926 2.779852-4.072483 5.434609-5.42071 10.85532-6.699442 12.17575-8.144965 14.927803-8.144965 17.652057-6.782838 18.986385-6.782837 19.000285-4.072483 19.000286-1.389926 19.000285v19.000285L544.155932 553.19045l9.507092 16.28993 13.565676 13.565675 19.000285 10.85532 24.420995 8.144965-4.072482-12.217447-2.779852-12.217448-2.710355-12.203548-1.389926-14.927803-1.389925-13.579574v-14.997299l1.389925-14.927803 1.389926-14.913903 1.389926-14.927803 1.389926-14.927802 2.779851-14.927803 2.779852-13.579574 2.710355-12.203548 2.710355-12.217448 4.072483-12.217447 2.710355-9.493193-4.072483-2.710355h-2.779851l-4.072483-1.389926-2.710355-1.389926-4.072482-1.389926-2.710356-1.389925-4.072482-1.389926-4.072482-1.389926z" fill="#EE4358" p-id="11699"></path><path d="M620.157072 387.566897l-10.85532 43.42128-8.144965 39.348799-4.072482 33.928087v29.855605l1.389926 27.14525 4.058583 21.710641 6.796737 19.000285 6.782838 16.27603 9.493192 12.217448 10.855321 9.493192 9.507092 8.144965 10.85532 5.43461 10.85532 4.072483 9.493193 1.389925h16.262131l-4.030785-12.245246-5.434609-12.217447-4.072483-14.927803-2.752053-13.607373-2.710355-16.28993-2.779851-14.927802-2.779852-16.28993-1.389926-16.276031-1.389925-17.638157v-16.248232l1.389925-17.638158 1.389926-16.28993 2.779852-17.638158 2.779851-16.27603 4.072483-16.28993 5.42071-16.28993-9.493193-4.072482-9.507092-2.710356-9.493193-2.779851-8.144965-2.710355-6.782838-2.779852-8.089367-2.585262-6.782838-1.389926-5.420711-1.389925z" fill="#C32164" p-id="11700"></path><path d="M683.926866 407.91541l-4.072482 14.927803-5.420711 20.362412-2.779851 21.71064-1.389926 24.420996-1.389926 27.14525v27.14525l2.779852 27.13135 4.072482 25.783123 5.420711 24.434895 6.866233 23.058868 10.841421 18.958587 12.217447 16.28993 14.927803 12.203548 17.610359 5.476308 19.000285 1.389925 23.072767-6.796737-8.144965-13.565675-9.479293-14.997299-6.782838-16.27603-6.782838-14.927803-4.072482-16.28993-5.42071-16.248232-2.779852-16.27603-2.710355-16.28993-2.779852-17.638158v-33.928088l1.389926-16.27603 1.389926-17.652057 2.710355-16.276031 4.169777-17.638158 4.072483-17.652057-8.144965-2.779851-9.493193-2.710355-9.493193-2.710356-9.507092-4.072482-9.493193-2.710355-6.782838-2.779852-8.144965-2.779851-5.434609-1.389926z" fill="#EE4358" p-id="11701"></path><path d="M884.771137 734.96494l-20.362412 1.389925-21.71064-2.779851-17.638158-8.144965-16.28993-10.85532-16.27603-14.927803-13.565676-17.638158-10.869219-20.362412-9.493193-23.058868-8.144965-24.434895-6.810636-27.103552-4.072483-25.783123-1.389925-27.14525v-27.14525l2.779851-27.13135 4.072483-25.783123 6.782837-24.434895 9.493193 2.779852 8.144965 4.072482 9.507092 1.389926 9.493193 4.072482 9.493193 2.710356 10.85532 2.779851 9.507092 4.072483 9.493193 2.710355v35.276315l1.389926 20.362413v20.348513l1.389926 21.71064 1.389925 21.71064 1.389926 23.072768 2.710355 21.71064 4.072483 21.71064 2.710355 19.000285 4.072483 19.000285 5.434609 17.638158 6.782838 13.579575 8.144965 12.203548 8.131065 8.144965 9.507093 5.434609z" fill="#C32164" p-id="11702"></path><path d="M829.132409 454.060945l8.144965 4.072482 8.131066 2.710356 6.796737 1.389925 8.131066 1.389926 6.796737 2.779852 8.131065 2.710355 8.144965 2.710355 6.782838 2.710355 1.389926 16.28993 1.389925 16.276031 1.389926 19.000285v61.073337l1.389926 21.710641v20.348513l2.779851 20.362412 1.389926 20.348513 4.072482 19.000285 4.072483 17.638158L914.571145 722.761392l6.782838 16.27603 9.493193 12.217447 10.85532 9.507093-22.961573-5.448509-19.000285-6.782838-16.28993-12.217447-13.607373-12.161851-10.86922-14.9695-8.144965-17.652057-6.782837-18.986386-4.072483-19.000285-4.072482-23.072767-2.696456-23.072768v-23.072767l-1.389926-25.783123v-24.420996l-1.389926-25.783122V481.192296l-1.389925-27.131351z" fill="#EE4358" p-id="11703"></path><path d="M1038.107746 791.951896l-31.203833-1.389926-27.14525-6.782838-21.71064-9.493193-17.638158-13.565675-14.927802-17.652057L914.571145 722.761392l-8.144964-21.710641-5.43461-24.434894-2.710355-25.783123-2.779852-25.783123-1.389926-27.131351v-77.363267l-1.389925-24.434895-1.389926-21.71064 8.144965 2.779852 8.144965 1.389925 6.949628 2.613061 8.131066 2.779851 8.144965 2.710355 6.782838 1.389926 8.144965 2.779852 9.507092 1.389925-1.389926 2.779852-1.389926 5.42071-1.389925 9.507093-2.779852 10.85532-1.389926 13.565675-1.389925 16.28993-1.389926 17.638158 1.389926 20.348513 1.389925 21.71064 4.072483 24.434895 8.144965 24.420995 8.131065 24.434895 12.217448 27.131351 16.289929 27.14525 18.986386 27.13135z" fill="#C32164" p-id="11704"></path><path d="M1146.688746 825.879983l-21.71064 4.072483-21.72454-1.389926-20.348513-6.782838-20.348513-12.217447-20.362412-14.927803L1023.179944 776.968496l-16.276031-21.71064-16.28993-24.420996-13.496179-27.089653-12.217447-28.493478-9.493193-29.855605-6.796737-29.855605-2.779851-31.217732-1.389926-31.203834 2.779851-29.855605 6.75504-31.231631 74.639012 24.420995v12.217447l-1.389925 14.927803 1.389925 16.276031 1.389926 19.000285 2.779852 20.348513 4.072482 21.724539 2.779852 21.71064 6.616046 23.114466 6.782838 23.072767 9.507092 21.71064 9.493193 21.710641 12.217447 21.71064 12.203549 20.362412 14.927802 19.000285 16.28993 17.638158z" fill="#EE4358" p-id="11705"></path><path d="M1027.252426 515.120383l12.217448 4.072483 14.927802 2.710355 16.276031 6.796737L1088.311865 532.758541l16.27603 5.43461 16.28993 5.43461 14.927803 2.710355L1146.688746 549.020672l1.389926 19.000285 1.389926 19.000286 1.389925 20.348513 1.389926 20.362412 1.389926 20.348513 2.779851 21.71064 1.389926 20.362412 4.072483 20.348513 4.072482 20.362413 4.058583 19.000285 6.796737 18.986386 6.782838 16.289929 8.144965 17.638158 10.85532 13.565676 10.85532 13.579574 13.565675 12.203548-16.289929 1.389926h-16.554016L1177.87868 839.515155l-16.27603-6.782838-17.693755-10.924816-16.276031-12.217448-14.927802-16.27603-16.28993-19.000285-14.927803-21.710641-12.203548-25.783122-12.217447-27.14525-9.493193-31.203833-8.144965-33.928088-6.713342-36.638443-4.072482-40.710925-1.389926-42.073053z" fill="#C32164" p-id="11706"></path><path d="M1329.867061 857.083816l-35.276315 1.389926-29.855606-2.779851-25.783122-8.144965-20.362413-13.565676L1200.895851 817.735018l-14.872206-20.348513-9.493193-21.71064-8.144965-25.783123-6.782837-24.434894-4.072483-28.493478-1.389926-27.14525-2.779851-25.783123-1.389926-27.131351-1.389926-24.434895-1.389925-23.058868L1146.688746 549.020672l10.85532 1.389926 9.493193 2.710355 9.507092 2.710356 8.131066 2.779851 9.507092 2.779852 8.144965 2.710355 10.85532 2.710355 12.203548 2.779852 2.779852 21.71064 1.389926 20.348513 2.779851 20.362412 2.779852 20.348513 2.710355 19.000285 2.779851 19.000285 4.072483 19.000285 4.072482 17.638158 5.43461 17.638158L1260.662658 762.09629l8.144965 16.262132 8.131066 16.27603 10.85532 16.28993 12.217447 16.28993 14.927803 14.913903 14.927802 14.927803z" fill="#EE4358" p-id="11707"></path><path d="M1426.216714 874.735873l-31.217732 1.389926-28.493478-4.072482-24.420995-8.131066-21.655044-13.621272-17.652057-16.276031-16.331627-20.362412-12.217448-23.072768-10.785824-24.420995-9.493192-24.420996-6.796737-27.14525-6.782838-25.783122-2.779852-27.14525-4.072482-25.783123-2.779852-23.058868-2.710355-23.072768-1.389925-19.000285 10.85532 2.710355 9.493193 2.779852 8.144964 2.710355 9.507093 1.389926 8.131065 2.710355 8.144965 1.389926 10.85532 2.779851 10.85532 2.710356 4.072483 31.217732 5.43461 28.493478 5.42071 27.131351 5.43461 25.783122 6.880132 21.585547 6.782838 23.058869 8.144965 19.000285 8.144965 17.638157 6.782837 16.28993 9.493193 14.927803 9.507092 13.565675 8.131066 10.85532 9.507092 12.217448 9.493193 8.144965 10.85532 8.131065 9.507092 6.796737z" fill="#C32164" p-id="11708"></path><path d="M1515.769631 886.939421l-29.841706 1.389926-27.14525-4.072482-23.072768-8.144965-21.71064-13.565675-19.000285-16.28993-16.276031-18.986386-14.927802-21.752338-12.217448-24.379298-10.85532-24.462693-9.493193-25.783123-6.796736-25.783123-5.392912-25.783122-6.782838-24.434895-2.779852-24.420995-4.030784-21.682842-2.779852-19.000285 9.507092 2.710355 9.493193 1.389926 9.507092 2.710355 9.493193 2.710355 9.493193 2.779852 9.507092 1.389925 9.493193 2.779852 9.507092 2.779851 1.389926 14.927803 2.779852 16.276031 2.779851 17.652057 5.420711 18.986385 5.434609 20.362413 8.144965 20.348513 8.131066 20.362412 8.144965 20.348513L1431.623526 779.748347l10.85532 19.000285 10.85532 19.000286 12.217447 16.289929 12.217448 17.638158 12.203548 13.565675 13.579574 12.217448 12.203548 9.493193z" fill="#EE4358" p-id="11709"></path><path d="M1614.843538 904.591479l-31.217732 4.058583-28.493478-4.058583-25.783123-9.479294-23.072767-16.276031-23.072768-20.362412-19.000285-23.128364-16.27603-27.131351L1431.623526 781.138273l-12.203549-29.855605-12.217447-28.493478-9.493193-27.14525-6.796737-25.783123-5.42071-21.71064-4.072483-19.000285-2.710355-12.203548V608.78748l12.203548 1.389926 10.85532 2.779851 10.855321 4.072483 12.217447 1.389925 10.85532 4.072483 9.507092 1.389925 10.85532 2.710356 9.493193 1.389925 4.072483 13.565676 4.072482 16.28993 5.420711 17.638157 5.434609 20.348513 6.782838 21.710641 6.782838 21.71064 8.144965 23.072767 8.144964 23.072768 9.493193 21.71064 10.85532 20.362413 10.855321 20.348513 12.217447 16.289929 12.217447 14.927803 13.565676 12.203548 14.927802 9.507092 16.28993 4.072483z" fill="#C32164" p-id="11710"></path><path d="M1686.758297 900.518996l-28.493478 6.782838h-24.434895l-23.058868-5.43461-21.71064-10.85532-19.000285-14.927803-16.28993-19.000285-14.927803-21.738438-13.565675-24.420996-10.85532-24.420995-10.85532-25.783123-6.782838-27.14525-8.172764-24.393197-6.782837-24.434895-4.044684-21.752338-5.43461-19.000285-4.072482-14.927802 9.507092 2.779851h8.144965l8.131065 1.389926 6.796737 1.389926 8.131066 2.779851 6.782838 1.389926 6.796737 1.389926 6.782837 1.389925 2.779852 17.638158 4.072482 19.000285 4.072483 19.000285 5.42071 17.638158 5.43461 19.000285 8.144965 19.000285 6.782837 17.638158 9.493193 16.28993 9.507092 17.638158 12.203549 16.27603 12.217447 16.28993 12.217447 13.565675 14.927803 14.927803 14.927802 12.217447 17.638158 12.217448 17.638158 10.85532z" fill="#EE4358" p-id="11711"></path><path d="M1777.715038 915.446799h-24.462693l-23.072768-2.779852-21.71064-5.42071-21.71064-8.144965-19.000285-10.85532-20.348513-13.565676-17.638158-16.289929-17.652057-17.638158-14.927803-19.000285-13.565675-21.710641-13.565675-23.072767-10.855321-24.420996-9.437595-27.089652-8.144965-27.131351-6.782838-28.507377-5.42071-28.493478 10.85532 1.389925 9.493193 1.389926 10.85532 2.779852 10.85532 1.389925 9.507092 2.710356 9.493193 1.389925 10.85532 1.389926 9.507092 2.710355 5.420711 16.28993 2.779851 17.638158 5.43461 16.276031 4.072482 17.652057 4.072483 16.27603 5.42071 16.28993 6.782838 16.276031 6.796737 16.289929 8.131065 16.276031 9.507093 16.28993 12.217447 16.28993 13.565675 14.927802 16.276031 14.913904 19.000285 16.289929 21.71064 16.28993 25.685828 14.705415z" fill="#C32164" p-id="11712"></path><path d="M1905.240726 930.374601l-31.217733 1.389926-29.855605-1.389926-27.13135-4.072482-27.14525-8.144965-24.420996-10.85532-23.072767-13.579575-20.362413-14.913903-18.986385-19.000285-17.652057-20.292916-16.276031-21.71064-13.565675-24.420996-12.217448-24.434895-10.85532-27.13135-8.144965-27.14525-6.782837-28.493478-4.072483-28.493478 8.144965 1.389926 9.493193 2.710355 9.507092 1.389926 9.493193 1.389925 9.493193 1.389926 10.85532 2.779852 9.507092 1.389925 10.85532 2.779852 2.779852 18.986386 5.434609 20.362412 5.420711 19.000285 8.144965 19.000285 9.493193 18.986386 10.869219 19.000285 12.203548 19.000285 12.217448 17.638158 14.927802 16.289929 16.276031 16.276031 16.28993 14.927803 17.638157 14.927802 19.000285 12.217448 20.348513 12.217447 21.72454 9.493193 21.71064 9.507092z" fill="#EE4358" p-id="11713"></path><path d="M1975.807256 937.157439l-27.14525-1.389926-24.420995-4.072482-25.783123-5.420711-24.434895-9.507092-23.072767-12.203548-23.058868-12.231347-20.362413-14.927802-20.348513-17.638158-17.638157-19.000285-17.652057-20.362412-14.927803-23.058869-13.565675-23.072767-10.85532-24.420996-9.493193-24.434894-8.144965-25.783123-4.072483-27.131351 8.144965 1.389926h8.144965l6.782838 1.389926 8.131065 1.389926h6.796737l8.131066 1.389925 9.507092 2.779852 10.85532 1.389926 10.85532 23.072767 9.493193 20.348513 9.507092 20.362412 8.144965 18.986386 9.493193 19.000285 9.493193 16.28993 9.507092 16.276031 9.493193 14.927802 12.217448 14.927803 12.217447 13.579574 13.565675 13.565676 16.28993 13.565675 17.638158 12.217447 21.71064 13.565676 21.71064 12.217447 27.14525 12.217448z" fill="#C32164" p-id="11714"></path><path d="M2101.998616 945.288505l-39.348799 1.389925-35.276315-1.389925-32.57986-5.420711-29.841706-8.144965-28.507377-12.217447-24.420995-14.913903L1888.909098 888.301549l-20.348513-19.000285-19.000285-20.348513-17.638158-21.710641-14.927802-23.072767-13.537877-24.420996-13.565675-24.420995-12.17575-24.434895-10.85532-25.783123-10.85532-24.434894 6.782837 1.389926 9.507093 1.389925 12.217447 1.389926 12.203548 1.389926 12.217447 2.710355 10.855321 1.389926 9.493193 1.389925 8.144964 1.389926 9.507093 21.710641 9.493192 21.71064 12.217448 21.71064 12.203548 19.000285 13.579575 19.000285 13.565675 17.638158 14.927802 16.28993 16.276031 16.27603 17.652057 14.927803 17.638158 14.927802 19.000285 13.579575 20.348513 13.565675 20.362412 10.855321 21.710641 12.217447 21.71064 9.493193 24.420995 9.493193z" fill="#EE4358" p-id="11715"></path><path d="M2176.623729 956.157724h-20.348513l-23.072767-4.072482-23.072768-5.43461-24.420995-8.144965-24.448794-10.85532-24.420996-12.203548-25.783123-14.927803-24.420995-16.28993-23.072767-19.000285-23.072768-20.348513-21.71064-21.71064-20.348513-24.434895-17.652057-24.420995-16.276031-25.783123-14.900004-27.159149-12.217447-28.493478 12.217447 1.389926 12.217447 1.389925 12.203548 1.389926 12.217448 1.389926h10.85532l9.493193 2.710355 8.144965 1.389926 4.072482 2.779851 14.927803 10.85532 13.565675 10.855321 14.927803 14.927802 14.927802 13.565676 14.927803 16.289929 16.359426 16.067542 16.276031 17.638158 14.927802 17.652057 16.28993 17.638158 16.276031 17.638158 17.652057 17.638157 16.206534 17.638158 17.638158 16.28993 17.652057 16.28993 17.638158 16.27603 17.638157 13.579575z" fill="#C32164" p-id="11716"></path><path d="M2291.987567 956.157724l-20.362413 13.565675-21.71064 5.420711h-20.348513l-23.072767-5.420711-21.710641-10.85532-21.71064-14.927802-23.072767-19.000285-23.072768-21.710641-23.058868-24.420995-23.072768-24.434895-25.783122-27.131351-24.434895-27.14525-24.420996-25.783122-24.420995-25.783123L1945.896054 724.151317l-25.783123-21.724539h9.493193l9.507093 2.779851h12.203548l12.217447 2.710356 12.217447 1.389925 13.565676 2.710355 10.85532 1.389926 10.85532 2.779852 19.000285 17.638158 20.348513 17.638157 19.000285 19.000285 19.000285 19.000285 17.638158 19.000285 19.000285 19.000286 17.638158 18.986385 17.638158 17.652057 17.652057 17.638158 17.638157 16.276031 16.276031 13.579574 16.28993 12.203548 16.28993 10.855321 16.27603 9.507092 16.28993 8.144965 14.927803 4.072482z" fill="#EE4358" p-id="11717"></path><path d="M2381.540483 967.013044H2348.974523l-29.855606-4.072482-28.493478-6.782838-27.14525-10.869219-24.420995-12.203549-23.072767-16.289929-21.710641-17.638158-20.348513-19.000285-20.362412-20.348513-20.348513-21.682842-19.000285-20.362412-19.000285-23.072768-20.348513-21.71064-20.362412-21.71064-21.710641-19.000285-21.71064-19.000285h8.144965l9.493193 1.389925 10.85532 1.389926 12.217447 1.389926 12.217448 1.389926h9.493193l8.144964 1.389925h4.072483l13.565675 2.779852 13.565676 6.782838 13.579574 8.144965 13.565676 12.217447 14.927802 14.913903 14.927803 16.081441 16.27603 17.638158 14.927803 19.000285 19.000285 18.958587 17.638158 20.348513 20.362412 20.362413 21.71064 19.055882 23.072768 20.348513 24.420995 17.638158 25.783123 17.652057 28.493478 14.927802z" fill="#C32164" p-id="11718"></path><path d="M622.867428 315.638239v-2.779851l-1.389926-9.493193v-13.579575l-1.389926-16.27603-1.389926-19.000285 1.389926-21.710641 1.389926-21.71064 1.389926-23.072767L628.24644 166.374113l5.43461-20.362413 8.144965-18.986385 12.203548-14.927803 13.579575-10.85532L685.233396 95.807582l20.348513-1.389926 24.434895 6.796737-6.782838 6.782838-8.144965 9.493193-6.782837 12.217447-6.782838 12.217448-5.43461 14.927802-5.434609 13.565676-5.420711 16.303829-5.434609 16.289929-5.420711 16.28993-4.072482 16.276031-4.072483 16.28993-4.072482 16.27603-2.710355 16.28993-2.710356 14.927803-2.779851 13.565675-2.710355 12.217447h-3.961289l-2.710355-1.389925-4.072483-1.389926-2.710355-1.389926-2.710355-1.389926-4.072482-1.389925-4.072483-1.389926-4.072482-1.389926z" fill="#EE4358" p-id="11719"></path><path d="M651.360906 327.855687l10.85532-51.566246 10.85532-43.42128 10.85532-36.638443 10.85532-31.217733 10.85532-24.420995 12.217448-20.362412 10.85532-13.565676 9.507092-10.85532 10.85532-6.782838 9.493193-2.710355 10.85532-1.389925 8.144965 1.389925 9.493193 2.710355 8.144965 4.100281 6.782837 5.420711 6.782838 4.072482-12.203548 10.85532-10.85532 12.217448-9.507092 10.85532-9.493193 12.17575-9.507092 12.203548-8.131066 13.579574-8.144965 13.565676-6.782838 14.927802-6.782837 14.927803-6.796737 14.927802-6.782838 16.276031-5.42071 16.345527-4.072483 17.638158-5.434609 17.638157-4.072483 17.652057-4.072482 19.000286-9.493193-1.389926h-6.782838l-5.43461-2.779852-2.710355-1.389925h-4.072482l-2.710355-1.389926-2.710356-1.389926-5.434609-1.389926z" fill="#C32164" p-id="11720"></path><path d="M690.709704 342.783489l2.779851-19.000285 4.072483-21.71064 6.782837-23.072768 8.144965-25.783122 9.493193-25.783123 12.217448-25.783123 12.189648-24.420995 14.927803-23.072768 14.927803-20.348513 14.927802-17.638158 17.638158-13.579574L825.059927 94.514951l19.000285-2.779851L861.753967 94.514951l17.638158 9.507092 17.638157 19.000285-13.565675 9.493193-13.565675 12.217448-12.314742 12.147951-12.217448 12.203548-12.203548 12.217447-9.507092 13.565676-9.493193 14.927802-9.395898 13.565676-8.144965 16.289929-6.782838 16.28993-8.144965 16.276031-5.434609 17.638158-5.420711 17.652057-4.072482 18.986385-4.072483 20.362413-2.779851 20.348513-8.144965-2.710356-9.54879-2.710355-10.85532-4.072482-9.493193-2.779852-9.493193-4.072482-9.507092-4.072483-6.782838-2.779851-5.434609-1.389926z" fill="#EE4358" p-id="11721"></path><path d="M1000.107176 135.15638l-18.986385-12.203548-19.000286-6.782838-20.362412-2.779851-19.000285 2.779851-20.348513 5.420711-19.000285 10.85532-17.638158 13.565675-17.638158 17.652057-14.927802 19.000285L816.914962 204.319086 803.377085 228.795678l-12.217447 25.783123-9.493193 25.783123-8.144965 28.493478-6.782838 28.507377-2.779851 29.841706 9.493193 2.779851 9.493193 1.389926 9.507092 4.072482L801.987159 378.059805l10.855321 4.072482 9.507092 2.779852 9.493193 2.710355 10.85532 1.389926 6.782837-17.652057 6.796737-20.348513 6.782838-19.000285 8.131066-20.348513 6.796737-20.362413 9.493193-20.348513 8.144964-20.362412 9.493193-19.000285 9.451495-17.721553 9.493193-16.28993 10.85532-16.276031 12.217448-13.565675 12.217447-12.217447 12.203548-9.507093 13.579575-6.782837 14.913903-4.072483z" fill="#C32164" p-id="11722"></path><path d="M1086.921939 158.229148l-31.217733-12.217448L1029.934983 137.880635h-24.393197l-21.71064 4.072482-19.000285 8.158864-16.28993 13.579575-14.913903 16.27603-13.579575 20.362413-10.85532 21.71064-10.85532 24.420996-10.85532 25.783122-9.493193 25.783123-8.144965 25.82482-9.479294 25.713627-9.493193 24.434895-9.493193 23.058868 8.131066 1.389926 8.144965 1.389925 8.144965 2.710356 6.782837 2.710355 8.144965 2.779851 8.144965 2.779852 9.493193 2.710355 8.144965 1.389926 1.389926-2.779852v-8.144965l2.779851-9.493193 2.585262-15.052895 2.779852-16.276031 6.782837-19.000285L928.192418 323.8527l9.493193-21.71064 9.507092-21.71064 12.203548-20.348513L974.337953 238.288871l16.28993-20.348513 20.348513-19.000285L1032.714834 184.01227l25.783123-14.927802 28.493478-10.85532z" fill="#EE4358" p-id="11723"></path><path d="M1198.241092 175.867306l-17.652057-13.565676-20.348513-9.493193-23.072767-2.779851-21.71064 1.389926-23.072768 4.072482-24.420995 9.493193-23.072768 13.579574-23.058868 14.927803-21.72454 20.348513-20.348513 21.738439L962.120505 261.306042l-17.638157 27.14525-13.579575 29.855605-10.85532 31.203833-6.782838 32.56596-4.072482 35.290215L990.613983 437.826612l4.072483-13.565675 6.782838-14.927803 5.434609-17.638158 8.131066-17.638157 9.507092-19.000285 9.562689-20.41801 10.85532-19.000285 12.217448-20.348513 13.565675-19.000285 14.927803-19.000285 16.289929-17.638158 16.276031-16.289929 17.582561-14.872206 20.348513-13.579575 20.362412-10.85532 21.71064-8.144965z" fill="#C32164" p-id="11724"></path><path d="M989.251856 440.49527l12.217448 2.710355 14.927802 2.710355 14.927803 4.072483 16.28993 5.42071 16.27603 5.43461 14.927803 4.072482 13.565675 4.072483 13.579575 4.072482-2.779852-1.389926 10.86922-19.000285 9.493192-20.348513 8.144965-20.362412 8.144965-21.71064 9.493193-21.710641 8.144965-19.000285 8.144965-21.71064 10.85532-21.71064 10.85532-19.000285 10.85532-16.276031 13.565676-17.652057 13.565675-14.927802 12.217447-13.565676 16.28993-10.85532 16.331628-8.131066 16.28993-6.782837-14.927803-9.493193-14.927802-6.782838-16.28993-5.434609-19.000285-1.389926-18.986386 1.389926-19.000285 5.434609-20.362412 8.131066-20.348513 12.217447-20.362413 14.941702-20.348513 19.000285-20.362412 23.072768-20.348513 27.13135-19.000285 31.217733-19.000285 35.276315-17.638158 42.073053-16.28993 44.783408z" fill="#EE4358" p-id="11725"></path><path d="M1385.505789 232.868161l-32.56596-17.638158-28.507377-9.520992-27.131351-2.710355-24.434895 4.100281-21.71064 9.493193-20.348513 13.579575-17.638158 18.986385-16.28993 21.72454-13.565675 24.420995-13.579575 25.769224-12.203548 28.493478L1146.688746 376.669879l-10.85532 27.131351-10.85532 25.783122-9.507092 24.434895-9.493193 20.348513 10.85532 2.779852 9.493193 1.389925 9.507092 2.710356 8.131066 1.389925 9.507092 2.710356 9.493193 2.779851 9.507092 1.389926 12.203548 2.779851 10.85532-21.724539 9.534891-21.946928 9.493193-20.348513 9.507092-20.362412 8.131066-18.986386 10.869219-17.652057 10.85532-19.000285 9.520991-16.27603 12.147952-16.317729 12.203548-14.927802 12.217447-14.927803 14.927803-13.565675 16.289929-12.17575 16.276031-10.85532 19.000285-10.85532 19.000285-9.493193z" fill="#C32164" p-id="11726"></path><path d="M1484.565798 261.306042l-29.855606-16.276031-27.14525-6.796737-27.13135-2.710355-24.407097 4.128079-23.058868 9.493193L1331.229188 264.085893l-20.362412 17.652057-19.000285 20.348513-17.638158 23.072768L1257.882806 349.566327l-16.27603 25.783123-12.217447 25.783122-13.565676 27.14525-10.758025 23.072768-9.507092 23.058868-8.172764 19.014184 10.85532 2.710356 10.855321 2.779851 9.493192 2.779852 8.144965 1.389925 9.493193 2.710356 9.507092 1.389925 12.203548 1.389926 12.217448 2.710355 13.565675-31.203833 14.927803-29.855605 13.579574-25.783123 13.565676-25.783123 12.217447-21.988625 12.203548-19.000285 12.217448-17.638158L1374.63657 322.462775l12.203548-12.217448 12.217447-12.217447 13.565676-10.85532 13.579574-8.144965 12.203548-6.782838 14.927803-5.42071 14.927802-2.779852 16.28993-2.779851z" fill="#EE4358" p-id="11727"></path><path d="M1557.842683 283.072279l-28.493478-13.565675-25.783122-6.810637h-25.783123l-24.434895 5.420711-21.724539 9.53489-21.710641 13.565676-20.348513 16.28993-19.000285 20.348513-16.27603 21.71064-14.927803 24.434895-16.27603 24.420995-12.217448 24.420996-12.217447 24.434894-10.85532 23.058869-9.493193 21.696741-8.144965 20.348513 9.507092 2.710355 8.131066 1.389926 9.507092 1.389925 8.144965 2.710356 8.131065 1.389925 8.144965 1.389926 9.507092 2.710355 10.855321 1.389926 4.072482-14.927803 8.131066-17.721553 8.144965-17.638158 10.813622-19.041983 10.85532-19.000285 13.579575-19.000285 13.565675-19.000285 14.927803-19.000285 14.927802-17.638158 16.276031-17.638157 17.652057-14.927803 16.27603-13.565675 17.638158-12.217448 16.28993-10.85532 16.276031-8.144965 16.289929-4.072482z" fill="#C32164" p-id="11728"></path><path d="M1647.409499 306.145046l-28.507377-16.289929-28.493478-6.782838h-28.493478l-27.14525 8.144965-25.783123 12.217447-25.783123 19.028084-23.058868 21.71064-23.072767 23.058868-20.362413 25.783123-17.638158 25.783123-16.27603 25.783122-13.579575 24.434895-10.85532 20.348513-9.493193 19.000285-4.072482 13.565676-2.710355 8.144964 12.203548 1.389926 9.507092 2.710355 10.85532 2.779852 9.493193 2.779851 10.85532 1.389926 9.507092 1.389926 10.85532 2.710355 9.493193 1.389926 6.782838-13.579575 8.144965-16.27603 9.507092-19.000285 10.85532-19.000285 12.203548-21.710641 12.217448-20.348513 13.565675-20.362412 14.927802-21.71064 14.927803-20.348513 14.927803-17.652057 17.638157-16.276031 16.28993-13.579574 17.638158-10.855321 16.28993-8.131065 19.000285-2.779852 17.638158 1.389926z" fill="#EE4358" p-id="11729"></path><path d="M1712.54142 330.566042l-25.783123-17.638158-25.797022-9.493193-23.072768-1.389926-24.420995 4.072483-21.71064 9.493193-21.710641 13.579574-19.000285 17.638158-19.000285 21.71064-17.638158 23.072768-16.289929 24.420995-14.927803 24.434895-14.927803 25.783123-12.203548 23.058868-10.85532 23.072768-8.144965 19.000285-8.144965 14.927802 9.493193 1.389926 8.144965 2.779851 6.782838 2.710356 6.796737 2.710355 6.782837 1.389926 6.782838 2.710355 5.420711 1.389926 8.144964 1.389925 6.782838-18.986385 8.144965-20.362413 9.507092-19.000285 9.493193-19.000285 10.85532-18.986386 10.85532-16.289929 12.217448-17.638158 13.565675-16.28993 14.927803-16.276031 14.927802-14.927802 16.28993-12.217448 17.638158-12.217447 19.000285-9.493193 18.986386-9.507092 20.362412-5.42071 21.71064-5.43461z" fill="#C32164" p-id="11730"></path><path d="M1795.325397 349.566327l-23.072767-8.144965-23.072768-5.42071-24.420995-2.779852-21.71064 2.779852-23.072768 4.072482-21.71064 6.782838-20.362412 12.217447-21.710641 12.203548-20.348513 16.28993-19.000285 19.000285-17.638158 20.348513-17.652057 23.072768-16.27603 25.783122-13.565676 27.14525-14.927802 29.841706-12.217447 29.855605 10.85532 2.779852 10.85532 1.389926 9.493193 2.779851 10.869219 2.710355 9.493193 2.710355 10.85532 2.710356 9.493193 2.779851 10.85532 1.389926 6.796737-17.638158 6.782838-17.638158 8.144965-17.638157 6.782837-19.000285L1603.974319 493.423642l9.493193-17.638157 9.493193-16.28993 10.85532-16.276031 13.579574-14.927802 14.955602-14.941702 16.27603-13.565676 17.638158-13.579574 21.724539-10.85532 21.710641-9.493193 27.13135-9.507092 28.507378-6.782838z" fill="#EE4358" p-id="11731"></path><path d="M1912.023564 376.669879l-29.855606-12.217447-29.855605-8.144965-28.493478-4.072483h-27.14525l-25.783122 4.072483-25.783123 6.796737-24.379298 10.897018-21.71064 12.203548-21.71064 17.638158-20.362413 19.000285-17.638157 20.362412-17.638158 24.420995L1605.364245 493.423642l-12.217448 28.493478-13.593474 28.493478-10.85532 29.855605 9.507092 1.389926 9.493193 2.710355 10.855321 1.389926 10.85532 1.389926 10.85532 1.389926 10.85532 1.389925 10.85532 1.389926 10.85532 2.710355 6.782838-23.072767 6.796737-20.348513 9.493193-20.362412 10.85532-20.348514 12.217447-17.638157 13.565676-17.652057 13.565675-16.276031 16.28993-14.927803 16.28993-14.927802 18.986385-10.85532 20.362413-12.217448 20.348513-9.493193 21.71064-6.782837 23.072767-6.796737 24.434895-2.710355 24.420996-2.779852z" fill="#C32164" p-id="11732"></path><path d="M1969.010519 383.494415l-25.783122-4.044684-27.131351-2.779852-25.797022 1.389926-25.783123 2.779851-24.434894 6.782838-24.420996 8.144965-23.072767 9.493193-21.710641 13.565675-20.334613 14.830508-20.362413 17.652057-16.27603 18.986386-17.652057 20.348513-13.565676 24.420995-12.217447 25.783123-10.897018 27.200847-8.131066 28.493478 9.493193 1.389926 8.144965 1.389925 8.144965 1.389926 8.131066 1.389926 8.144965 1.389926 6.782837 1.389925 9.507093 2.710356 10.85532 1.389925 13.565675-23.072767 12.217447-21.71064 10.855321-20.348513 10.85532-19.000285 10.85532-17.652057 10.85532-16.276031 9.493193-16.28993 12.217447-13.565675 12.217448-13.565676 14.927802-12.217447 14.927803-10.85532 17.638158-10.85532 20.348513-8.144965 23.072767-8.144965 25.783123-6.782838 28.493478-6.782837z" fill="#EE4358" p-id="11733"></path><path d="M2095.215778 399.784344l-39.348798-9.507092-38.00057-5.42071-33.928088-1.389926-31.203833 2.710355-28.493478 6.782838-27.14525 9.507092-24.420995 12.217447-23.072768 14.913904-20.362412 17.652057-18.986386 20.348513-17.652057 21.71064-16.276031 23.100566-14.927802 23.072768-14.927803 25.783122-12.217447 24.420996-12.217448 25.783123 5.43461 1.389925 9.493193 1.389926 9.507092 1.389926 9.493193 2.710355 10.85532 1.389926 9.507092 2.710355 8.144965 1.389926h6.782838l12.203548-23.072768 12.217447-21.71064 14.927803-20.362412 14.927803-18.986386 16.289929-19.000285 16.276031-16.28993 17.638158-14.927803 19.000285-13.565675 20.362412-13.565675 20.348513-10.85532 21.71064-10.855321 21.710641-10.869219 23.072767-8.131066 23.072768-8.144964 24.420995-6.782838 25.783123-6.782838z" fill="#C32164" p-id="11734"></path><path d="M2169.854791 407.91541l-21.71064-4.072482-23.072768-1.389926-25.783123 1.389926-25.783122 4.072482-25.783123 5.43461-27.14525 8.144965-27.131351 10.85532-25.783123 12.203548-27.145249 14.927802-25.783123 17.652057-24.434895 18.986386-23.072767 21.72454-21.710641 23.058868-20.362412 25.783123-16.276031 27.14525-14.927802 29.855605 10.85532 1.389926 10.85532 1.389925 10.85532 2.710356 10.85532 1.389925 9.507093 2.710356 8.131065 2.710355h10.85532l14.927803-9.493193 16.28993-10.85532 16.28993-13.565676 17.638157-13.579574 17.665957-15.025098 17.638157-16.27603 19.000286-16.28993 18.958587-16.276031 20.348513-16.289929 19.028083-16.303829 20.390211-16.262132 20.348513-16.28993 21.71064-14.927802 20.362413-13.565676 23.058868-12.217447 20.362412-10.85532z" fill="#EE4358" p-id="11735"></path><path d="M2275.697637 437.826612l-20.348513-20.348513-21.738439-10.910917-21.724539-5.43461-23.058869 1.389926-23.072767 6.782838-25.783123 12.217447-24.393197 16.303829-27.14525 17.638158-27.173048 21.668942-27.131351 23.058869-28.465679 24.434894-27.14525 24.393197-28.451781 24.448794-28.507377 23.072768-28.479578 21.71064-28.493478 19.000285 8.144965 1.389926 10.85532 1.389926h12.203548l13.579574 1.389925 12.203549 1.389926h25.713626l10.85532-1.389926 20.362412-14.927802 21.72454-16.317728 20.348513-17.638158 19.000285-16.276031 19.000285-17.652057 17.638158-16.27603 17.652057-16.28993 18.986386-16.276031 19.000285-13.579574 17.638157-13.565676 19.000286-12.217447 20.362412-10.85532 20.348513-8.131066 21.71064-6.796737 21.71064-4.058583z" fill="#C32164" p-id="11736"></path><path d="M2354.409132 447.278107l-32.56596-8.144965L2290.597641 436.436686l-29.855605 1.389926-27.131351 5.379013-25.783123 9.493193-25.783122 12.217447-24.434895 14.927803-23.072768 16.27603-23.058868 19.000285-23.072767 19.000285-22.975473 20.362413-21.71064 21.71064-23.072768 19.000285-23.058868 20.348513-24.434895 16.28993-24.476592 17.638158h8.144965l9.493192 1.389925 12.217448 2.779852h12.217447l10.85532 1.389926 10.85532 2.779851h8.131066l4.072483 1.389926h14.927802l13.579575-4.072483 14.927802-8.131065 16.276031-9.507092 16.28993-12.217448 16.262131-15.094593 19.000285-17.638158 19.000285-17.638158 19.000285-17.638158 21.71064-19.000285 23.072768-17.638158 23.058868-17.638158 27.14525-16.289929 25.852619-16.359426 28.493478-12.203549 31.217733-10.85532z" fill="#EE4358" p-id="11737"></path><path d="M2453.469141 474.409458l-28.493478-16.276031-31.217733-6.782837h-29.855605l-31.203833 6.782837-29.855605 10.855321-31.217733 17.638157-29.855605 19.000285-29.855605 21.710641-27.131351 23.072767-27.14525 24.420996-25.783122 21.71064-24.420996 20.362412-20.362412 17.638158-20.348513 13.565675-17.638158 8.144965-14.927802 2.779852 13.565675 1.389926 12.217447 2.710355 16.276031 1.389926 14.927802 2.640858 16.28993 1.389926 14.927803 2.710355 16.27603 1.389926h12.217448l23.072767-16.28993 19.000285-16.289929 18.986386-14.927803 16.28993-16.359426 16.28993-14.927803 14.927802-14.927802 16.276031-13.565676L2290.597641 551.800524l14.927803-12.203548 16.289929-12.217448 17.638158-10.85532 19.000285-10.85532 20.348513-9.507092 21.71064-8.131066 25.783123-6.796737 27.14525-6.782837z" fill="#C32164" p-id="11738"></path><path d="M538.735222 150.111981l-2.779852-6.782837-4.058583-9.493193-2.779851-8.144965-2.710356-9.493193-2.710355-9.507092-1.389926-9.493193-1.389925-9.507092-1.389926-10.85532-1.389926-9.493193V37.527995l1.389926-9.493193 1.389926-9.507092 2.710355-9.493193 2.891045-8.214461-13.565675 16.276031-9.507092 17.652057-6.782838 17.638158-4.072482 19.000285-1.389926 19.000285v18.986386l2.710355 19.000285 4.114181 18.958587 4.072482 17.638158 6.782838 19.000285 6.782837 17.679855 6.782838 19.000285 8.144965 16.28993 6.782838 17.638158 8.144965 16.28993 6.782837 16.27603-1.389926-4.072482-1.389925-5.420711V265.475819l-1.389926-9.493193v-27.186948l-1.389926-10.85532v-21.71064l-1.389926-9.507092v-9.493193l-2.779851-9.493193-1.389926-9.507092-2.446269-8.117167zM298.542152 478.48194l14.927803-8.144964 14.927803-9.493193 14.913903-9.493193 13.565675-8.144965 13.565676-8.144965 13.579574-8.144965 12.203548-8.144965 13.579575-8.131066 12.203548-8.144964 13.579575-8.144965 12.203548-9.493193L461.45535 378.059805l12.203548-8.131066 13.579575-6.782838 14.927802-8.144964 13.565676-8.144965-12.217448 12.217447-12.203548 13.565675-13.579574 12.217448-12.203549 12.203548-13.579574 12.217447-13.565676 10.85532-13.565675 10.85532-13.579574 10.855321-13.565676 9.507092-14.927802 8.131065-13.565676 6.796737-13.579574 5.420711-13.67687 5.434609-14.927802 1.389926-13.565676 1.389926-14.927802-1.389926z" fill="#91ABBC" p-id="11739"></path><path d="M416.602446 162.30163l10.85532 6.782838 9.493193 6.782838 10.85532 6.796736 9.507092 8.131066 9.493193 6.782838 8.144965 8.144965 9.493193 8.144965 8.144965 8.144965 8.144965 8.144964 8.144965 9.493193 8.144965 8.144965 6.782837 9.493193 8.144965 8.144965 6.782838 9.493193 6.782838 9.507092 6.782837 9.493193-2.710355-9.493193-4.072482-10.85532-4.072483-10.883119-4.072482-10.85532-5.420711-10.85532-5.43461-10.85532-5.42071-9.507092-8.144965-10.85532-6.782838-9.493193-10.85532-8.144965-9.507092-8.144965-10.85532-6.782838-13.496179-5.406811-12.217447-4.058583-16.28993-4.072483-16.276031-1.389925zM533.300612 67.314104l4.072483 16.276031 1.389925 16.28993 4.072483 14.927802 2.779851 14.927803 1.389926 14.927802 1.389926 13.565676 2.710355 14.927802 1.389926 13.565676 2.710355 14.927802 1.389926 13.579575 1.389926 13.565675 2.779851 14.927803 2.710355 13.565675 2.710355 14.927803 2.779852 13.579574 2.293377 14.913904 2.779852-17.638158 1.389926-16.206534 2.779851-17.652057 1.389926-17.638158v-16.345527l1.389926-16.28993-1.389926-16.276031V166.374113l-2.779852-16.28993-1.389925-13.565676-4.169778-14.927802-5.434609-12.217447-5.420711-12.203549-8.144965-10.85532-8.144964-9.507092-10.855321-9.493193z" fill="#91ABBC" p-id="11740"></path><path d="M449.168406 41.530981l-13.565675 13.565676-9.507092 14.927802-4.072483 16.28993v16.276031l2.779852 16.28993 6.782838 17.638157 8.144964 17.638158 10.855321 17.638158 10.869219 16.28993 13.496179 16.234333 13.565675 16.27603 13.579575 13.579575 12.17575 14.9695 10.85532 10.86922 9.507092 12.203548 8.144965 8.144965-1.389926-24.420996-4.072482-20.362412-4.072483-17.638158-5.42071-14.927803-6.782838-13.565675-8.144965-12.217447-8.144965-10.85532-8.144965-10.85532-8.144965-9.507093-8.131065-10.85532-8.144965-10.85532-6.782838-12.203548L460.065424 97.169709l-5.42071-14.927802-4.11418-19.000285z" fill="#91ABBC" p-id="11741"></path><path d="M550.93877 293.927599V262.695967l1.389926-16.28993v-16.248232l1.389925-14.927802 1.389926-14.927803 1.389926-14.927802 1.389926-13.579575 2.779851-14.913903 2.710355-14.927803 4.072483-14.927802 2.710355-13.579575 3.877893-13.565675 5.43461-14.927803 5.42071-13.565675 5.43461-14.927803-23.100566 21.71064-19.000285 21.710641-12.217448 20.348513-9.493193 19.000285-6.782837 17.652057-2.682557 16.27603-1.389926 17.638158 1.389926 14.913903 4.072483 13.579575 4.058583 13.565675 5.434609 12.217448 5.420711 10.85532 5.43461 12.203548 4.072482 9.507092 4.072483 9.493193 1.389925 6.782838zM318.890666 349.566327l12.217447 1.389926 13.565675 2.779851 12.217448 1.389926 12.217447 2.779851h13.565675l12.217448 1.389926h24.420995l12.217448-1.389926h12.217447l12.203548-1.389925 12.217447-1.389926h13.565676l10" fill="#91ABBC" p-id="11742"></path></svg>