<?xml version="1.0" standalone="no"?><!DOCTYPE svg PUBLIC "-//W3C//DTD SVG 1.1//EN" "http://www.w3.org/Graphics/SVG/1.1/DTD/svg11.dtd"><svg t="1565073034765" class="icon" viewBox="0 0 1024 1024" version="1.1" xmlns="http://www.w3.org/2000/svg" p-id="138462" xmlns:xlink="http://www.w3.org/1999/xlink" width="200" height="200"><defs><style type="text/css"></style></defs><path d="M512.01024 84.13184a174.05952 174.05952 0 0 0-174.05952 174.05952 174.05952 174.05952 0 0 0 50.6368 122.61376L253.2352 594.87232a174.05952 174.05952 0 0 0-32.512-3.15392A174.05952 174.05952 0 0 0 46.65344 765.77792 174.05952 174.05952 0 0 0 220.71296 939.8272a174.05952 174.05952 0 0 0 174.05952-174.05952 174.05952 174.05952 0 0 0-72.32512-141.03552l128.77824-203.6736a174.05952 174.05952 0 0 0 60.78464 11.19232 174.05952 174.05952 0 0 0 63.01696-11.8272l128.37888 203.0592a174.05952 174.05952 0 0 0-74.17856 142.2848 174.05952 174.05952 0 0 0 174.05952 174.08 174.05952 174.05952 0 0 0 174.05952-174.08 174.05952 174.05952 0 0 0-174.05952-174.05952 174.05952 174.05952 0 0 0-30.208 2.68288L636.96896 379.10528a174.05952 174.05952 0 0 0 49.09056-120.90368A174.05952 174.05952 0 0 0 512 84.14208z" fill="#42A5F5" p-id="138463"></path></svg>