<?xml version="1.0" standalone="no"?><!DOCTYPE svg PUBLIC "-//W3C//DTD SVG 1.1//EN" "http://www.w3.org/Graphics/SVG/1.1/DTD/svg11.dtd"><svg t="1565078898193" class="icon" viewBox="0 0 1063 1024" version="1.1" xmlns="http://www.w3.org/2000/svg" p-id="249206" xmlns:xlink="http://www.w3.org/1999/xlink" width="207.6171875" height="200"><defs><style type="text/css"></style></defs><path d="M292.430769 741.060923a40.172308 40.172308 0 0 0 39.857231 40.408615h398.769231c22.055385 0 39.896615-18.116923 39.896615-40.408615a40.172308 40.172308 0 0 0-39.896615-40.448H332.288c-22.055385 0-39.857231 18.116923-39.857231 40.448z m0-161.673846a40.172308 40.172308 0 0 0 39.857231 40.408615h398.769231c22.055385 0 39.896615-18.116923 39.896615-40.408615a40.172308 40.172308 0 0 0-39.896615-40.448H332.288c-22.055385 0-39.857231 18.116923-39.857231 40.448zM478.523077 159.232c0-28.435692 23.788308-51.436308 53.169231-51.436308 29.380923 0 53.169231 23.000615 53.16923 51.436308v139.618462c0 28.435692-23.788308 51.475692-53.16923 51.475692-29.380923 0-53.169231-23.04-53.169231-51.475692V159.232z m-79.753846-22.055385v159.232c1.260308 74.633846 60.297846 134.734769 132.923077 134.73477s131.662769-60.100923 132.923077-134.695385V137.176615C664.615385 61.361231 605.144615 0 531.692308 0c-73.412923 0-132.923077 61.44-132.923077 137.176615zM170.141538 296.408615h228.627693V215.591385H106.338462C47.616 215.591385 0 263.837538 0 323.347692v592.817231C0 975.753846 47.616 1024 106.338462 1024h850.707692c58.722462 0 106.338462-48.246154 106.338461-107.795692V323.387077c0-59.549538-47.616-107.795692-106.338461-107.795692h-292.430769v80.81723h228.627692c49.900308 0 90.387692 41.038769 90.387692 91.648V851.495385c0 50.609231-40.487385 91.608615-90.387692 91.608615H170.141538c-49.900308 0-90.387692-40.999385-90.387692-91.608615V388.056615c0-50.609231 40.487385-91.648 90.387692-91.648z" fill="#1082FF" p-id="249207"></path></svg>