<?xml version="1.0" standalone="no"?><!DOCTYPE svg PUBLIC "-//W3C//DTD SVG 1.1//EN" "http://www.w3.org/Graphics/SVG/1.1/DTD/svg11.dtd"><svg t="1565065554849" class="icon" viewBox="0 0 1024 1024" version="1.1" xmlns="http://www.w3.org/2000/svg" p-id="28085" xmlns:xlink="http://www.w3.org/1999/xlink" width="200" height="200"><defs><style type="text/css"></style></defs><path d="M493.381359 0h33.438165a559.907378 559.907378 0 0 1 173.441953 35.378171 514.640564 514.640564 0 0 1 323.873277 466.140406v18.861173a505.829702 505.829702 0 0 1-54.320177 220.594884 494.001053 494.001053 0 0 1-142.078518 172.741396 512.754447 512.754447 0 0 1-206.880118 97.808652 747.091043 747.091043 0 0 1-91.934744 12.475318H495.536922a588.199137 588.199137 0 0 1-121.250395-18.861173 506.907483 506.907483 0 0 1-246.569413-156.089674 494.135775 494.135775 0 0 1-102.389223-178.965583 591.48637 591.48637 0 0 1-25.085359-147.763814v-18.861173A506.557205 506.557205 0 0 1 303.287685 47.853489 435.881697 435.881697 0 0 1 493.381359 0z m-98.212819 108.209241a453.180086 453.180086 0 0 0-71.052732 137.417114c25.085359 6.251131 48.069045 8.32586 73.127461 12.475319a682.478055 682.478055 0 0 0 91.934743 6.251131V41.629302a175.489738 175.489738 0 0 0-94.036417 66.606884zM531.103704 264.298916a798.7976 798.7976 0 0 0 123.29818-10.40059 296.9018 296.9018 0 0 0 41.790969-8.32586 452.802863 452.802863 0 0 0-87.758341-158.164404 154.014946 154.014946 0 0 0-77.303863-45.805704v222.669613z m-175.516682-197.692033a466.140406 466.140406 0 0 0-190.147563 124.860962 501.168298 501.168298 0 0 0 121.250394 45.805705 440.462267 440.462267 0 0 1 102.389223-178.965582 157.032733 157.032733 0 0 0-33.438165 8.32586z m280.007578-10.400589a362.134512 362.134512 0 0 1 27.160089 31.228713 548.213451 548.213451 0 0 1 75.229133 147.763814 536.19619 536.19619 0 0 0 121.250395-45.805704 502.219135 502.219135 0 0 0-223.639617-133.186823zM138.198537 222.669614a478.400168 478.400168 0 0 0-98.21282 266.373645h204.778444a929.316914 929.316914 0 0 1 29.261762-214.209031 509.790548 509.790548 0 0 1-135.827386-52.029892zM748.357467 274.834228a914.120198 914.120198 0 0 1 29.261762 214.343753h204.778445a478.400168 478.400168 0 0 0-98.21282-266.373645 631.067888 631.067888 0 0 1-135.827387 52.029892z m-461.802336 214.209031h204.778444v-185.216714a861.847805 861.847805 0 0 1-177.618356-20.801179 871.628671 871.628671 0 0 0-27.160088 206.017893z m244.46774-183.222819v185.216714h204.778444a957.851174 957.851174 0 0 0-27.160088-203.943164 1252.920745 1252.920745 0 0 1-177.618356 18.861173zM39.985717 530.807283a478.400168 478.400168 0 0 0 98.21282 266.373645 631.040943 631.040943 0 0 1 135.827386-52.029891A914.120198 914.120198 0 0 1 244.764161 530.807283z m246.569414 0a957.878118 957.878118 0 0 0 27.160088 203.943164 1009.746342 1009.746342 0 0 1 177.618356-20.801179v-185.351436c-68.951058 2.074729-137.902116 2.074729-204.778444 2.074729z m244.46774 0v185.216714a1033.376697 1033.376697 0 0 1 177.618356 20.801179 840.83107 840.83107 0 0 0 27.160088-203.943164c-68.951058-2.074729-135.827387-2.074729-204.778444-2.074729z m246.569414 0a929.316914 929.316914 0 0 1-29.261762 214.343754 591.809704 591.809704 0 0 1 135.827386 52.029891 478.400168 478.400168 0 0 0 98.21282-266.373645zM326.32526 774.170298a452.802863 452.802863 0 0 0 87.704452 158.110515 154.014946 154.014946 0 0 0 77.303863 45.805704v-222.669614a730.196821 730.196821 0 0 0-165.089148 18.861173z m204.778444-18.861173V978.086517a161.451637 161.451637 0 0 0 94.036418-66.606883 453.207031 453.207031 0 0 0 71.052731-137.417114c-25.085359-6.251131-50.143774-8.32586-75.229134-12.475319a629.963162 629.963162 0 0 0-89.860015-6.251131z m-365.664245 72.750237a451.455636 451.455636 0 0 0 221.484054 133.186823 465.709294 465.709294 0 0 1-102.389222-178.965583 638.585412 638.585412 0 0 0-119.094832 45.805705z m570.44269-45.805704a440.462267 440.462267 0 0 1-102.389222 178.965582 473.954321 473.954321 0 0 0 221.484054-133.186822 455.901484 455.901484 0 0 0-119.094832-45.805705z" fill="#4B53F4" p-id="28086"></path></svg>