<?xml version="1.0" standalone="no"?><!DOCTYPE svg PUBLIC "-//W3C//DTD SVG 1.1//EN" "http://www.w3.org/Graphics/SVG/1.1/DTD/svg11.dtd"><svg t="1565067096167" class="icon" viewBox="0 0 1024 1024" version="1.1" xmlns="http://www.w3.org/2000/svg" p-id="96952" xmlns:xlink="http://www.w3.org/1999/xlink" width="200" height="200"><defs><style type="text/css"></style></defs><path d="M533.048889 1.592889c113.322667 0 207.530667 28.672 281.258667 88.746667 70.997333 57.344 114.688 136.533333 129.706666 234.837333H799.288889c-16.384-65.536-47.786667-114.688-94.208-146.090667s-103.765333-46.421333-174.762667-46.421333c-105.130667 0-184.32 35.498667-237.568 107.861333-50.517333 65.536-75.093333 155.648-75.093333 268.970667 0 117.418667 24.576 207.530667 73.728 271.701333 51.882667 68.266667 132.437333 102.4 241.664 102.4 70.997333 0 131.072-17.749333 177.493333-53.248 49.152-38.229333 83.285333-95.573333 102.4-172.032h144.725334c-21.845333 113.322667-72.362667 202.069333-152.917334 266.24-75.093333 60.074667-165.205333 90.112-270.336 90.112-159.744 0-279.893333-51.882667-360.448-152.917333C102.968889 774.371556 68.835556 656.952889 68.835556 509.496889c0-144.725333 35.498667-262.144 109.226666-353.621333C259.982222 52.110222 377.400889 1.592889 533.048889 1.592889z" fill="#1991EB" p-id="96953"></path></svg>