<svg width="610" height="300" xmlns="http://www.w3.org/2000/svg" class="icon">
 <defs>
  <style type="text/css"/>
 </defs>
 <g>
  <title>background</title>
  <rect fill="none" id="canvas_background" height="302" width="612" y="-1" x="-1"/>
 </g>
 <g>
  <title>Layer 1</title>
  <path stroke="null" stroke-width="0" id="svg_1" fill="#FFFFFF" d="m535.725804,156.03285l-66.346532,-14.874102l-11.847595,-4.576646l-304.483199,2.288323l0,141.876033l382.677326,1.144164l0,-125.857772z"/>
  <path stroke="null" stroke-width="0" id="svg_2" fill="#F48120" d="m414.019871,262.862954c3.571177,-11.90393 2.380786,-23.807859 -3.571181,-30.950217c-5.951962,-7.142358 -14.284716,-11.90393 -24.99825,-13.09432l-207.12838,-2.380786c-1.190395,0 -2.380786,-1.190395 -3.571181,-1.190395c-1.190391,-1.190391 -1.190391,-2.380786 0,-3.571177c1.190395,-2.380786 2.380786,-3.571181 4.761572,-3.571181l208.318775,-2.380786c24.99825,-1.190391 51.1869,-21.427073 60.710043,-45.234933l11.90393,-30.950217c0,-1.190395 1.190391,-2.380786 0,-3.571181c-13.094325,-60.710043 -67.852401,-105.944976 -132.133626,-105.944976c-59.519648,0 -110.706548,38.092575 -128.56244,91.66026c-11.90393,-8.332748 -26.188645,-13.09432 -42.854147,-11.90393c-28.569436,2.380786 -51.1869,26.188645 -54.758081,54.758076c-1.190391,7.142358 0,14.284716 1.190395,21.427073c-46.425328,1.190395 -84.517903,39.28297 -84.517903,86.898689c0,4.761572 0,8.332753 1.190391,13.094325c0,2.380786 2.380786,3.571177 3.571181,3.571181l382.116148,0c2.380786,0 4.761572,-1.190395 4.761572,-3.571181l3.571181,-13.094325z"/>
  <path stroke="null" stroke-width="0" id="svg_3" fill="#FAAD3F" d="m477.964121,132.265435l-5.923171,0c-1.184631,0 -2.369267,1.184631 -3.553899,2.369267l-8.292438,28.431208c-3.553899,11.846337 -2.369267,23.692673 3.553903,30.800475c5.923166,7.107802 14.215604,11.846337 24.877305,13.030973l43.831448,2.369267c1.184636,0 2.369267,1.184631 3.553903,1.184631c1.184631,1.184636 1.184631,2.369267 0,3.553903c-1.184636,2.369267 -2.369267,3.553899 -4.738535,3.553899l-45.016084,2.369267c-24.877305,1.184636 -50.93925,21.323406 -60.416315,45.016079l-2.369272,10.661705c-1.184631,1.184631 0,3.553899 2.369272,3.553903l156.371644,0c2.369267,0 3.553903,-1.184636 3.553903,-3.553903c2.369267,-9.477069 4.738535,-20.138775 4.738535,-30.800475c0,-61.600951 -50.93925,-112.540201 -112.540201,-112.540201"/>
 </g>
</svg>