<?xml version="1.0" standalone="no"?><!DOCTYPE svg PUBLIC "-//W3C//DTD SVG 1.1//EN" "http://www.w3.org/Graphics/SVG/1.1/DTD/svg11.dtd"><svg t="1575603448906" class="icon" viewBox="0 0 1024 1024" version="1.1" xmlns="http://www.w3.org/2000/svg" p-id="2513" xmlns:xlink="http://www.w3.org/1999/xlink" width="200" height="200"><defs><style type="text/css"></style></defs><path d="M973.165714 353.170286A145.225143 145.225143 0 0 1 914.285714 365.714286c-50.834286 0-95.524571-25.965714-121.746285-65.316572A181.686857 181.686857 0 0 1 694.857143 329.142857a182.857143 182.857143 0 0 1-182.857143-182.857143 145.92 145.92 0 0 1-141.019429-109.421714 162.889143 162.889143 0 0 0-17.225142 4.425143c-50.651429 16.457143-88.758857 58.404571-130.925715 89.088-42.532571 30.976-94.098286 54.454857-125.074285 97.024-30.683429 42.130286-37.302857 98.267429-53.723429 148.882286C28.16 425.142857 0 474.221714 0 528.384c0 54.125714 28.16 103.168 44.032 152.027429 16.420571 50.651429 23.04 106.788571 53.723429 148.918857 30.976 42.569143 82.505143 66.048 125.074285 97.024 42.166857 30.683429 80.274286 72.630857 130.889143 89.088 48.896 15.872 104.118857 4.827429 158.281143 4.827428 54.162286 0 109.385143 11.044571 158.244571-4.827428 50.651429-16.457143 88.758857-58.404571 130.889143-89.088 42.605714-30.939429 94.134857-54.454857 125.110857-97.024 30.683429-42.130286 37.266286-98.267429 53.723429-148.882286C995.84 631.552 1024 582.509714 1024 528.384c0-54.162286-28.16-103.204571-44.032-152.100571a512.365714 512.365714 0 0 1-6.802286-23.113143" fill="#BE9664" p-id="2514"></path><path d="M280.283429 665.526857c-6.290286 11.300571-13.385143 22.784-24.283429 29.330286-10.532571 6.326857-23.515429 7.204571-36.571429 7.204571s-26.038857-0.877714-36.571428-7.204571c-10.898286-6.546286-17.993143-18.066286-24.32-29.366857-6.070857-10.971429-12.251429-22.966857-12.251429-36.571429s6.180571-25.6 12.288-36.608c6.290286-11.300571 13.385143-22.784 24.283429-29.330286 10.532571-6.363429 23.515429-7.204571 36.571428-7.204571s26.038857 0.841143 36.571429 7.204571c10.898286 6.546286 17.993143 18.029714 24.283429 29.366858 6.107429 10.971429 12.288 22.966857 12.288 36.571428s-6.180571 25.6-12.288 36.608M323.803429 366.994286c-3.254857 9.142857-7.094857 18.505143-14.336 24.722285-7.021714 5.997714-16.493714 8.228571-26.148572 9.801143-9.691429 1.645714-19.382857 2.596571-27.977143-0.804571-8.850286-3.510857-15.542857-11.117714-21.577143-18.724572-5.851429-7.387429-11.885714-15.469714-13.568-25.526857-1.682286-10.057143 1.389714-19.712 4.571429-28.598857 3.254857-9.142857 7.094857-18.505143 14.336-24.722286 7.021714-5.997714 16.493714-8.192 26.148571-9.801142 9.691429-1.645714 19.382857-2.596571 27.977143 0.804571 8.850286 3.510857 15.542857 11.117714 21.577143 18.724571 5.888 7.387429 11.922286 15.506286 13.604572 25.526858 1.682286 10.093714-1.426286 19.712-4.608 28.598857M545.499429 793.673143c-0.804571 9.691429-2.157714 19.712-7.570286 27.538286-5.266286 7.606857-13.860571 12.178286-22.784 16.201142-8.96 4.022857-18.066286 7.424-27.245714 6.326858-9.472-1.133714-17.846857-6.802286-25.673143-12.617143-7.533714-5.632-15.469714-11.922286-19.638857-21.211429-4.169143-9.325714-3.657143-19.419429-2.852572-28.818286 0.804571-9.691429 2.157714-19.712 7.570286-27.538285 5.266286-7.606857 13.860571-12.178286 22.784-16.201143 8.96-4.022857 18.066286-7.424 27.245714-6.326857 9.472 1.133714 17.846857 6.802286 25.673143 12.617143 7.533714 5.632 15.433143 11.922286 19.638857 21.211428 4.169143 9.325714 3.657143 19.419429 2.852572 28.818286M619.373714 554.203429c-1.426286 12.470857-3.364571 25.819429-11.300571 36.900571-7.899429 11.044571-19.894857 17.225143-31.232 22.601143-11.702857 5.558857-24.173714 10.788571-36.827429 9.801143-12.288-0.987429-23.332571-7.826286-33.974857-15.433143-10.605714-7.570286-20.662857-15.798857-25.563428-27.136-5.046857-11.629714-4.169143-25.124571-2.706286-37.997714 1.426286-12.470857 3.401143-25.819429 11.264-36.864 7.936-11.081143 19.931429-17.261714 31.268571-22.637715 11.702857-5.558857 24.173714-10.788571 36.827429-9.764571 12.288 0.950857 23.332571 7.789714 33.974857 15.36 10.605714 7.606857 20.662857 15.835429 25.563429 27.172571 5.046857 11.629714 4.132571 25.124571 2.706285 37.997715M827.794286 709.924571c-5.814857 7.789714-12.251429 15.579429-21.028572 19.382858-8.484571 3.620571-18.176 2.925714-27.904 1.609142-9.691429-1.316571-19.236571-3.254857-26.441143-9.069714-7.424-5.961143-11.556571-15.213714-15.067428-24.246857-3.437714-8.777143-6.802286-18.358857-5.412572-28.452571 1.353143-10.093714 7.168-18.395429 12.836572-25.929143 5.814857-7.789714 12.251429-15.579429 21.028571-19.346286 8.484571-3.657143 18.176-2.962286 27.904-1.645714 9.691429 1.316571 19.236571 3.254857 26.441143 9.069714 7.424 5.961143 11.556571 15.213714 15.067429 24.246857 3.437714 8.777143 6.802286 18.358857 5.412571 28.452572-1.353143 10.093714-7.168 18.395429-12.836571 25.929142" fill="#503C1D" p-id="2515"></path><path d="M941.714286 177.444571c7.899429 4.790857 17.627429 5.412571 27.428571 5.412572s19.529143-0.621714 27.428572-5.412572c8.155429-4.900571 13.494857-13.531429 18.212571-21.979428 4.571429-8.265143 9.216-17.261714 9.216-27.465143s-4.644571-19.2-9.179429-27.428571c-4.754286-8.484571-10.057143-17.115429-18.249142-22.016-7.899429-4.754286-17.627429-5.412571-27.428572-5.412572s-19.529143 0.621714-27.428571 5.412572c-8.155429 4.900571-13.494857 13.494857-18.212572 21.979428-4.571429 8.265143-9.216 17.261714-9.216 27.465143s4.608 19.2 9.216 27.428571c4.717714 8.484571 10.057143 17.115429 18.212572 22.016M640 69.522286c5.266286 3.181714 11.739429 3.620571 18.285714 3.620571s13.019429-0.438857 18.285715-3.584c5.449143-3.291429 8.996571-9.033143 12.141714-14.701714 3.072-5.485714 6.144-11.483429 6.144-18.285714s-3.072-12.8-6.144-18.285715c-3.145143-5.668571-6.692571-11.410286-12.141714-14.665143C671.305143 0.438857 664.832 0 658.285714 0c-6.509714 0-13.019429 0.438857-18.285714 3.584-5.449143 3.291429-8.996571 9.033143-12.141714 14.701714C624.786286 23.771429 621.714286 29.769143 621.714286 36.571429s3.072 12.8 6.144 18.285714c3.145143 5.668571 6.692571 11.410286 12.141714 14.665143" fill="#BE9664" p-id="2516"></path></svg>