<?xml version="1.0" standalone="no"?><!DOCTYPE svg PUBLIC "-//W3C//DTD SVG 1.1//EN" "http://www.w3.org/Graphics/SVG/1.1/DTD/svg11.dtd"><svg t="1565076348457" class="icon" viewBox="0 0 1609 1024" version="1.1" xmlns="http://www.w3.org/2000/svg" p-id="218971" xmlns:xlink="http://www.w3.org/1999/xlink" width="314.2578125" height="200"><defs><style type="text/css"></style></defs><path d="M786.285714 844.068571c-81.92 36.571429-179.638857 54.857143-293.156571 54.857143-138.678857 0-246.637714-39.058286-324.022857-117.174857C91.867429 703.634286 53.101714 594.651429 53.101714 454.802286c0-142.482286 39.058286-252.050286 117.028572-328.850286C247.808 49.298286 358.838857 10.825143 503.222857 10.825143c92.16 0 183.881143 10.825143 275.017143 32.621714v137.654857C674.962286 144.969143 588.361143 126.976 518.729143 126.976c-89.234286 0-157.988571 28.233143-206.262857 84.845714-48.420571 56.466286-72.557714 136.777143-72.557715 240.786286 0 102.107429 25.892571 181.686857 77.970286 238.884571 51.931429 57.051429 124.342857 85.577143 216.795429 85.577143 83.090286 0 166.765714-20.918857 251.465143-62.902857v129.901714z m81.481143 33.645715l61.147429-243.419429H772.388571l16.530286-84.553143h161.206857l47.396572-190.317714H827.245714l16.530286-84.553143h174.957714l61.147429-242.834286h86.747428l-60.562285 242.834286h149.796571l60.562286-242.834286h87.478857l-60.708571 242.834286h156.086857l-16.530286 84.553143H1322.130286l-47.981715 190.171429h170.861715l-17.115429 84.699428H1252.937143L1192.374857 877.714286h-87.332571l61.147428-243.419429H1015.808L955.245714 877.714286h-87.478857zM1037.165714 549.741714h150.235429l47.396571-190.317714H1085.001143l-47.981714 190.171429z" p-id="218972" fill="#1296db"></path></svg>