<?xml version="1.0" standalone="no"?><!DOCTYPE svg PUBLIC "-//W3C//DTD SVG 1.1//EN" "http://www.w3.org/Graphics/SVG/1.1/DTD/svg11.dtd"><svg t="1586559440347" class="icon" viewBox="0 0 1024 1024" version="1.1" xmlns="http://www.w3.org/2000/svg" p-id="6363" xmlns:xlink="http://www.w3.org/1999/xlink" width="200" height="200"><defs><style type="text/css"></style></defs><path d="M0 0h1024v1024H0z" fill="#7015E8" p-id="6364"></path><path d="M74.24 627.626667c0-6.4 2.56-12.8 7.253333-17.493334s11.093333-7.253333 17.92-7.253333c13.653333-0.426667 24.746667 10.666667 25.173334 24.32v0.426667c0 6.4-2.56 12.373333-7.253334 17.066666s-11.52 7.68-18.346666 7.253334c-6.4 0-12.8-2.56-17.493334-7.253334-4.693333-4.693333-7.253333-10.666667-7.253333-17.066666zM428.8 647.253333H383.146667L232.96 414.72c-3.84-6.4-7.68-12.8-10.24-19.626667h-1.28c1.28 14.08 2.133333 27.733333 1.706667 41.813334v209.92h-38.4v-298.666667h48.64L379.733333 576.853333c4.693333 6.4 8.533333 13.226667 12.373334 20.48h0.426666c-1.706667-14.506667-2.56-29.013333-2.133333-43.52V348.586667h38.4v298.666666zM666.88 647.253333h-160.853333v-298.666666h154.026666v34.133333h-115.2v95.573333h106.666667v34.133334h-106.666667v100.693333h122.026667v34.133333zM904.533333 382.72h-86.186666v264.533333h-38.826667v-264.533333h-85.76v-34.133333H904.533333v34.133333z" fill="#FFFFFF" p-id="6365"></path></svg>