<?xml version="1.0" standalone="no"?><!DOCTYPE svg PUBLIC "-//W3C//DTD SVG 1.1//EN" "http://www.w3.org/Graphics/SVG/1.1/DTD/svg11.dtd"><svg t="1565147167443" class="icon" viewBox="0 0 2901 1024" version="1.1" xmlns="http://www.w3.org/2000/svg" p-id="38411" width="566.6015625" height="200" xmlns:xlink="http://www.w3.org/1999/xlink"><defs><style type="text/css"></style></defs><path d="M1274.026667 640V436.736h466.602666V853.333333c-89.258667 60.928-168.277333 102.4-236.885333 124.416-68.778667 21.845333-150.186667 32.938667-244.394667 32.938667-116.053333 0-210.602667-19.797333-283.648-59.392A406.186667 406.186667 0 0 1 805.546667 774.826667c-40.277333-78.165333-60.416-167.936-60.416-269.312 0-106.666667 22.186667-199.509333 66.048-278.186667A427.52 427.52 0 0 1 1004.714667 47.104C1070.933333 15.701333 1160.021333 0 1271.978667 0c108.032 0 188.757333 9.728 242.346666 29.354667 53.589333 19.456 97.962667 49.834667 133.290667 90.965333 35.328 41.130667 61.952 93.184 79.701333 156.330667l-291.328 52.053333a157.696 157.696 0 0 0-60.928-84.650667c-28.672-19.626667-65.365333-29.354667-109.738666-29.354666-66.218667 0-118.954667 23.04-158.378667 68.949333-39.253333 46.08-58.88 118.784-58.88 218.453333 0 105.813333 19.797333 181.248 59.733333 226.645334 39.594667 45.226667 95.061333 67.925333 166.229334 67.925333 33.792 0 66.048-4.949333 96.597333-14.677333a522.24 522.24 0 0 0 105.301333-50.005334V640H1274.026667z m510.293333-133.973333c0-159.573333 44.544-283.818667 133.461333-372.736C2006.698667 44.544 2130.432 0 2289.152 0c162.645333 0 287.914667 43.690667 375.978667 131.072 88.064 87.210667 132.096 209.578667 132.096 366.933333 0 114.346667-19.285333 207.872-57.685334 280.917334-38.570667 73.216-94.037333 130.048-166.741333 170.666666-72.704 40.789333-163.157333 61.098667-271.701333 61.098667-110.250667 0-201.386667-17.578667-273.578667-52.736a411.989333 411.989333 0 0 1-175.786667-166.570667c-44.885333-76.117333-67.242667-171.178667-67.242666-285.354666zM170.666667 482.133333v-170.666666h512v170.666666H170.666667z m-170.666667 341.333334v-170.666667h512v170.666667H0zM2304 853.333333c141.312 0 256-152.746667 256-341.333333s-114.688-341.333333-256-341.333333-256 152.746667-256 341.333333 114.688 341.333333 256 341.333333z" p-id="38412" fill="#1296db"></path></svg>