<?xml version="1.0" standalone="no"?><!DOCTYPE svg PUBLIC "-//W3C//DTD SVG 1.1//EN" "http://www.w3.org/Graphics/SVG/1.1/DTD/svg11.dtd"><svg t="1597628836879" class="icon" viewBox="0 0 1024 1024" version="1.1" xmlns="http://www.w3.org/2000/svg" p-id="2071" xmlns:xlink="http://www.w3.org/1999/xlink" width="200" height="200"><defs><style type="text/css"></style></defs><path d="M797.312 957.568H162.368c-54.4 0-98.368-40.832-98.368-91.264V91.264C64 40.96 108.032 0 162.304 0h635.008c54.272 0 98.304 40.896 98.304 91.328v774.976c0 50.432-44.032 91.264-98.304 91.264z" fill="#6A48BC" p-id="2072"></path><path d="M585.152 446.656s24.064-103.424-330.624 33.344c-0.64 1.792 2.56-344.256 2.56-344.256l123.264-0.704-0.64 216.896s324.736-128.128 324.736 94.528v377.856l-119.296 1.536V446.656z m-62.592-195.2c44.288-53.568 90.688-115.712 90.688-115.712h127.104s-28.16 30.144-94.848 115.712h-122.88z m-262.016 587.52L258.56 578.048l127.936 125.248-125.888 135.68z" fill="#EDF2F7" p-id="2073"></path></svg>