<?xml version="1.0" standalone="no"?><!DOCTYPE svg PUBLIC "-//W3C//DTD SVG 1.1//EN" "http://www.w3.org/Graphics/SVG/1.1/DTD/svg11.dtd"><svg t="1569858362374" class="icon" viewBox="0 0 1024 1024" version="1.1" xmlns="http://www.w3.org/2000/svg" p-id="10754" xmlns:xlink="http://www.w3.org/1999/xlink" width="200" height="200"><defs><style type="text/css"></style></defs><path d="M508.342857 286.390857c-161.499429 0-292.864 131.364571-292.864 292.864 0 161.462857 131.364571 292.864 292.864 292.864 161.499429 0 292.864-131.401143 292.864-292.864 0-161.499429-131.364571-292.864-292.864-292.864m0 622.299429c-181.650286 0-329.435429-147.785143-329.435428-329.435429 0-181.650286 147.748571-329.435429 329.435428-329.435428 181.650286 0 329.435429 147.785143 329.435429 329.435428 0 181.650286-147.785143 329.435429-329.435429 329.435429" fill="#333333" p-id="10755"></path><path d="M297.289143 682.422857h23.405714v-206.372571h-23.405714z" fill="#333333" p-id="10756"></path><path d="M387.766857 661.906286h43.922286c26.916571 0 47.140571-7.204571 60.708571-21.357715 12.726857-13.897143 19.346286-34.413714 19.346286-61.293714 0-27.794286-6.034286-48.274286-17.92-61.549714-12.690286-14.153143-32.365714-21.101714-59.538286-21.101714h-46.518857v165.302857z m50.285714-185.819429c32.658286 0 57.234286 9.252571 73.984 28.306286 15.323429 17.334857 23.149714 42.496 23.149715 74.861714 0 31.780571-8.374857 56.941714-24.868572 74.861714-17.334857 18.797714-42.203429 28.342857-74.569143 28.342858h-71.68v-206.372572h73.984z" fill="#333333" p-id="10757"></path><path d="M714.532571 476.086857v20.48h-122.550857v69.12h115.565715v20.48h-115.565715v75.702857h127.451429v20.589715h-151.149714v-206.372572z" fill="#333333" p-id="10758"></path><path d="M508.342857 36.571429c-24.246857 0-43.958857 19.712-43.958857 43.958857A43.995429 43.995429 0 1 0 508.342857 36.571429m0 124.452571a80.603429 80.603429 0 0 1-80.530286-80.493714C427.812571 36.132571 463.945143 0 508.342857 0s80.493714 36.132571 80.493714 80.530286a80.566857 80.566857 0 0 1-80.457142 80.493714" fill="#333333" p-id="10759"></path><path d="M80.530286 892.233143c-24.246857 0-43.958857 19.712-43.958857 43.958857a43.995429 43.995429 0 1 0 43.958857-43.958857m0 124.452571A80.603429 80.603429 0 0 1 0 936.192c0-44.397714 36.132571-80.530286 80.530286-80.530286s80.457143 36.132571 80.457143 80.530286a80.566857 80.566857 0 0 1-80.457143 80.493714" fill="#333333" p-id="10760"></path><path d="M936.192 892.233143c-24.246857 0-43.958857 19.712-43.958857 43.958857a43.995429 43.995429 0 1 0 43.958857-43.958857m0 124.452571a80.603429 80.603429 0 0 1-80.530286-80.493714c0-44.397714 36.132571-80.530286 80.530286-80.530286s80.457143 36.132571 80.457143 80.530286a80.566857 80.566857 0 0 1-80.457143 80.493714" fill="#333333" p-id="10761"></path><path d="M508.342857 197.12a9.142857 9.142857 0 0 1-9.142857-9.142857v-36.571429a9.142857 9.142857 0 0 1 18.285714 0v36.571429a9.142857 9.142857 0 0 1-9.142857 9.142857m0 73.142857a9.142857 9.142857 0 0 1-9.142857-9.142857v-36.571429a9.142857 9.142857 0 0 1 18.285714 0v36.571429a9.142857 9.142857 0 0 1-9.142857 9.142857" fill="#333333" p-id="10762"></path><path d="M767.378286 819.638857a9.142857 9.142857 0 0 1-5.485715-1.828571l-29.147428-22.162286a9.142857 9.142857 0 0 1 11.044571-14.555429l29.110857 22.125715a9.142857 9.142857 0 0 1-5.485714 16.457143m58.221714 44.178285a9.106286 9.106286 0 0 1-5.485714-1.828571l-29.147428-22.125714a9.142857 9.142857 0 1 1 11.044571-14.592l29.110857 22.125714a9.142857 9.142857 0 0 1-5.485714 16.457143m58.221714 44.251428a9.142857 9.142857 0 0 1-5.485714-1.901714l-29.184-22.125714a9.142857 9.142857 0 1 1 11.081143-14.555429l29.110857 22.125714a9.142857 9.142857 0 0 1-5.485714 16.457143" fill="#333333" p-id="10763"></path><path d="M249.051429 819.748571a9.142857 9.142857 0 0 1-5.522286-16.420571l29.001143-22.235429a9.142857 9.142857 0 0 1 11.117714 14.555429l-29.001143 22.235429a9.325714 9.325714 0 0 1-5.558857 1.865142M191.012571 864.182857a9.142857 9.142857 0 0 1-5.558857-16.384l29.001143-22.235428a9.142857 9.142857 0 0 1 11.117714 14.518857l-29.074285 22.235428a8.923429 8.923429 0 0 1-5.485715 1.865143m-58.148571 44.470857a9.142857 9.142857 0 0 1-5.558857-16.420571l29.074286-22.235429a9.142857 9.142857 0 0 1 11.117714 14.518857l-29.074286 22.235429a9.069714 9.069714 0 0 1-5.522286 1.901714" fill="#333333" p-id="10764"></path></svg>