<?xml version="1.0" standalone="no"?><!DOCTYPE svg PUBLIC "-//W3C//DTD SVG 1.1//EN" "http://www.w3.org/Graphics/SVG/1.1/DTD/svg11.dtd"><svg t="1565066492174" class="icon" viewBox="0 0 1024 1024" version="1.1" xmlns="http://www.w3.org/2000/svg" p-id="67397" xmlns:xlink="http://www.w3.org/1999/xlink" width="200" height="200"><defs><style type="text/css"></style></defs><path d="M934.4 750.531765c-1.264941 3.855059-21.684706 74.029176-71.740235 146.130823-43.309176 62.223059-88.184471 124.928-158.960941 126.072471-69.632 1.264941-91.858824-41.020235-171.369412-41.020235-79.329882 0-104.267294 39.875765-170.044236 42.224941-68.005647 2.710588-120.410353-68.005647-163.84-129.867294C109.537882 767.216941 41.170824 534.708706 132.909176 378.940235c45.236706-78.004706 126.373647-127.518118 214.738824-128.963764 66.620235-1.204706 130.048 44.513882 170.526118 44.513882 41.562353 0 118.241882-55.296 199.137882-47.043765 33.852235 1.385412 128.602353 13.854118 189.620706 101.25553-4.758588 3.252706-113.362824 66.439529-112.158118 195.102117 1.746824 155.286588 138.179765 206.245647 139.625412 206.72753M664.425412 164.201412c36.442353-43.911529 60.476235-104.207059 54.151529-164.201412-52.043294 1.987765-115.591529 34.093176-153.238588 77.824-33.430588 38.068706-62.765176 99.328-54.573177 158.599529 57.886118 3.433412 117.338353-29.936941 153.660236-72.222117" fill="#F5B127" p-id="67398"></path></svg>