<?xml version="1.0" standalone="no"?><!DOCTYPE svg PUBLIC "-//W3C//DTD SVG 1.1//EN" "http://www.w3.org/Graphics/SVG/1.1/DTD/svg11.dtd"><svg t="1565066357042" class="icon" viewBox="0 0 1024 1024" version="1.1" xmlns="http://www.w3.org/2000/svg" p-id="61871" xmlns:xlink="http://www.w3.org/1999/xlink" width="200" height="200"><defs><style type="text/css"></style></defs><path d="M512 0C229.23 0 0 229.23 0 512s229.23 512 512 512 512-229.23 512-512S794.77 0 512 0z m310 801.1c-5.91-1.48-8.87-7.39-13.3-10.34-8.87-5.91-17.73-13.3-26.6-19.21-14.78-10.34-32.51-14.78-48.76-25.12-8.87-4.43-16.25-11.82-25.12-17.73-7.39-5.91-16.25-17.73-20.69-25.12-3-4.43-3-10.34-5.91-13.3 0-7.39 10.34-7.39 16.25-10.34 20.69-8.87 45.81-13.3 78.32-11.82 0-7.39-20.69-17.73-25.12-23.64l-39.9-26.6c-7.39-4.43-20.69-8.87-28.08-11.82-11.82-4.43-35.46-8.87-41.38-17.73-11.82-14.78-19.21-34-28.08-53.2-7.39-19.21-17.73-39.9-26.6-59.11-4.43-8.87-7.39-17.73-11.82-26.6C545.67 393.26 502.82 346 449.62 312c-17.73-11.82-36.94-20.69-57.63-28.08-13.3-3-26.6-1.48-39.9-4.43h-8.87c-7.39-1.48-13.3-8.87-19.21-13.3a204.4 204.4 0 0 0-39.9-20.69c-4.43-1.48-19.21-7.39-25.12-3a11.54 11.54 0 0 0-5.91 5.91c-3 4.43 0 11.82 1.48 16.25 5.91 13.3 14.78 20.69 22.17 31s16.25 20.69 20.69 31c10.34 22.17 14.78 47.29 25.12 69.45 4.43 7.39 8.87 17.73 14.78 25.12 4.43 5.91 11.82 10.34 14.78 17.73 4.43 7.39-7.39 34-10.34 42.85-11.82 34-8.87 79.8 3 107.87 4.43 11.82 8.87 25.12 22.17 28.08 0-1.48 0-1.48 1.48-1.48 3-22.17 4.43-42.85 11.82-60.59 4.43-10.34 13.3-17.73 19.21-26.6 3 3 3 10.34 5.91 14.78 5.91 11.82 11.82 26.6 17.73 38.42 13.3 25.12 28.08 50.24 44.33 72.41A295.88 295.88 0 0 0 488 678.45c3 1.48 5.91 4.43 8.87 7.39h1.48v1.48c-11.82-4.43-19.21-16.25-29.55-23.64-17.73-13.3-39.9-34-51.72-53.2-4.43-11.82-10.34-22.17-16.25-34V575c-3 4.43-1.48 7.39-3 11.82-4.43 20.69-1.48 42.85-19.21 50.24-20.69 8.87-36.94-13.3-42.85-23.64-20.62-32.5-26.53-88.65-11.77-134.42 3-8.87 3-22.17 8.87-29.55-1.48-7.39-7.39-8.87-10.34-13.3-5.91-7.39-10.34-16.25-14.78-25.12-8.87-16.25-14.78-35.46-20.69-53.2-3-5.91-3-13.3-5.91-20.69-4.43-10.34-13.3-20.69-20.69-29.55-8.87-13.3-35.46-38.42-25.12-65 17.73-41.38 76.84-10.34 99 4.43 4.43 4.43 11.82 11.82 17.73 14.78 8.87 0 19.21 1.48 29.55 1.48 19.21 4.43 36.94 7.39 51.72 16.25 69.45 41.38 113.78 82.75 155.16 150.72 8.87 14.78 13.3 29.55 20.69 45.81 10.34 22.17 20.69 47.29 32.51 69.45 4.43 10.34 8.87 22.17 16.25 31 3 4.43 11.82 4.43 16.25 7.39 13.3 7.39 29.55 13.3 41.38 20.69 23.64 13.3 45.81 31 66.5 48.76 8.87 7.39 13.3 16.25 20.69 23.64v3c-5.91 3-13.3 4.43-19.21 5.91-13.3 3-26.6 3-39.9 5.91-8.87 1.48-19.21 4.43-28.08 5.91l1.48 1.48c4.43 14.78 32.51 26.6 45.81 35.46 14.78 10.34 29.55 23.64 41.38 39.9l11.82 11.82c3 4.43 3 10.34 5.91 13.3zM384.6 335.63c0 10.34-3 16.25-8.87 20.69l-1.48 1.48c-3-5.91-5.91-13.3-8.87-19.21-4.43-5.91-10.34-10.34-13.3-16.25h-1.48v-1.48c4.43 0 8.87-1.48 16.25-1.48 4.43 4.43 8.87 5.91 13.3 7.39 1.5 2.95 1.5 5.9 4.45 8.86z" fill="#F6BE1A" p-id="61872"></path><path d="M350.62 320.85v1.48h1.48c3 5.91 8.87 10.34 13.3 16.25 3 5.91 5.91 13.3 8.87 19.21l1.48-1.48c5.91-4.43 8.87-10.34 8.87-20.69-3-3-3-5.91-4.43-8.87-4.43-1.48-8.87-3-13.3-7.39-7.41 0.01-11.84 1.49-16.27 1.49z" p-id="61873"></path><path d="M804.27 774.5c-11.82-16.25-26.6-29.55-41.38-39.9-13.3-8.87-41.38-20.69-45.81-35.46l-1.48-1.48c8.87-1.48 19.21-4.43 28.08-5.91 13.3-3 26.6-3 39.9-5.91 5.91-1.48 13.3-3 19.21-5.91v-3c-7.39-7.39-11.82-16.25-20.69-23.64-20.69-17.73-42.85-35.46-66.5-48.76-11.82-7.39-28.08-13.3-41.38-20.69-4.43-3-13.3-3-16.25-7.39-7.39-8.87-11.82-20.69-16.25-31-11.82-22.17-22.17-47.29-32.51-69.45-7.39-16.25-11.82-31-20.69-45.81-41.38-68-85.71-109.35-155.16-150.72-14.78-8.87-32.51-11.82-51.72-16.25-10.34 0-20.69-1.48-29.55-1.48-5.91-3-13.3-10.34-17.73-14.78-22.17-14.78-81.27-45.81-99-4.43-10.34 26.6 16.25 51.72 25.12 65 7.39 8.87 16.25 19.21 20.69 29.55 3 7.39 3 14.78 5.91 20.69 5.91 17.73 11.82 36.94 20.69 53.2 4.43 8.87 8.87 17.73 14.78 25.12 3 4.43 8.87 5.91 10.34 13.3C327 456.8 327 470.1 324 479c-14.78 45.81-8.87 102 11.82 134.47 5.91 10.34 22.17 32.51 42.85 23.64 17.73-7.39 14.78-29.55 19.21-50.24 1.48-4.43 0-7.39 3-11.82v1.48c5.91 11.82 11.82 22.17 16.25 34 11.82 19.21 34 39.9 51.72 53.2 10.34 7.39 17.73 19.21 29.55 23.64v-1.48h-1.48c-3-3-5.91-5.91-8.87-7.39a295.88 295.88 0 0 1-20.69-23.64c-16.25-22.17-31-47.29-44.33-72.41-5.91-11.82-11.82-26.6-17.73-38.42-3-4.43-3-11.82-5.91-14.78-5.91 8.87-14.78 16.25-19.21 26.6-7.39 17.73-8.87 38.42-11.82 60.59-1.48 0-1.48 0-1.48 1.48-13.3-3-17.73-16.25-22.17-28.08-11.82-28.08-14.78-73.88-3-107.87 3-8.87 14.78-35.46 10.34-42.85-3-7.39-10.34-11.82-14.78-17.73-5.91-7.39-10.34-17.73-14.78-25.12-10.34-22.17-14.78-47.29-25.12-69.45-4.43-10.34-13.3-20.69-20.69-31s-16.25-17.73-22.17-31c-1.48-4.43-4.43-11.82-1.48-16.25a11.54 11.54 0 0 1 5.91-5.91c5.91-4.43 20.69 1.48 25.12 3A204.4 204.4 0 0 1 324 266.18c5.91 4.43 11.82 11.82 19.21 13.3h8.87c13.3 3 26.6 1.48 39.9 4.43 20.69 7.39 39.9 16.25 57.63 28.08 53.2 34 96 81.27 125.6 137.43 4.43 8.87 7.39 17.73 11.82 26.6 8.87 19.21 19.21 39.9 26.6 59.11 8.87 19.21 16.25 38.42 28.08 53.2 5.91 8.87 29.55 13.3 41.38 17.73 7.39 3 20.69 7.39 28.08 11.82l39.9 26.6c4.43 5.91 25.12 16.25 25.12 23.64-32.51-1.48-57.63 3-78.32 11.82-5.91 3-16.25 3-16.25 10.34 3 3 3 8.87 5.91 13.3 4.43 7.39 13.3 19.21 20.69 25.12 8.87 5.91 16.25 13.3 25.12 17.73 16.25 10.34 34 14.78 48.76 25.12 8.87 5.91 17.73 13.3 26.6 19.21 4.43 3 7.39 8.87 13.3 10.34v-1.48c-3-3-3-8.87-5.91-13.3z" p-id="61874"></path></svg>