<?xml version="1.0" standalone="no"?><!DOCTYPE svg PUBLIC "-//W3C//DTD SVG 1.1//EN" "http://www.w3.org/Graphics/SVG/1.1/DTD/svg11.dtd"><svg t="1565077915438" class="icon" viewBox="0 0 1024 1024" version="1.1" xmlns="http://www.w3.org/2000/svg" p-id="246635" xmlns:xlink="http://www.w3.org/1999/xlink" width="200" height="200"><defs><style type="text/css"></style></defs><path d="M579.838304 66.561536c0-0.959976-1.279968-1.919952-1.919952-1.407965-0.639984-0.511987-1.919952 0.447989-1.919952 1.407965-199.355016 149.948251-403.125922 168.379791-403.125922 168.37979v367.990801c0 323.703907 267.129322 400.757981 330.871728 397.17407 63.806405 3.58391 417.397565-125.564861 417.397565-421.877453v-417.461563s-119.549011 15.423614-341.303467-94.205645z" opacity=".2" p-id="246636" fill="#36ab60"></path><path d="M465.98515 589.236469l-107.261318-107.261318-34.751131 34.815129 142.012449 142.01245 258.745532-258.873528-34.751131-34.751131z" p-id="246637" fill="#36ab60"></path><path d="M514.687933 1023.977601l-2.687933-0.063999c-38.463038 1.087973-145.276368-32.895178-241.657959-109.053274-83.005925-65.534362-181.883453-181.051474-181.883452-359.159021v-392.758181c0-4.991875 2.047949-9.791755 5.631859-13.311667a16.895578 16.895578 0 0 1 13.439664-5.247869h3.007925c20.671483 0 206.586835-3.903902 387.062323-138.940526A20.607485 20.607485 0 0 1 512 0.0032c6.01585 0 10.943726 2.175946 14.39964 5.439864 180.475488 135.036624 366.39084 138.940526 387.062323 138.940526h3.007925a17.151571 17.151571 0 0 1 13.439664 5.247869c3.58391 3.519912 5.631859 8.319792 5.631859 13.311667v392.758181c0.063998 323.063923-334.519637 468.276293-420.853478 468.276294z m-2.687933-37.183071h1.023974l1.663959 0.063999c56.958576 0 383.798405-118.845029 383.798405-431.22122v-374.454639c-57.086573-2.367941-221.498463-20.031499-386.550336-140.284492-165.051874 120.252994-329.463763 137.916552-386.550337 140.284492v374.454639c0 312.312192 326.903827 431.221219 383.798405 431.22122l1.663959-0.063999H512z" p-id="246638" fill="#36ab60"></path></svg>