<?xml version="1.0" standalone="no"?><!DOCTYPE svg PUBLIC "-//W3C//DTD SVG 1.1//EN" "http://www.w3.org/Graphics/SVG/1.1/DTD/svg11.dtd"><svg t="1608945335981" class="icon" viewBox="0 0 1080 1024" version="1.1" xmlns="http://www.w3.org/2000/svg" p-id="4968" xmlns:xlink="http://www.w3.org/1999/xlink" width="210.9375" height="200"><defs><style type="text/css"></style></defs><path d="M820.167111 611.555556l9.500445 14.222222 52.167111 94.833778 9.500444 14.222222-9.500444 14.222222-52.167111 94.833778-9.500445 14.222222h-146.944l-9.500444-14.222222-52.167111-94.833778-4.721778-14.222222 9.500444-14.222222L668.444444 625.777778l9.500445-14.222222h142.222222-0.056889z m23.665778-146.944c-9.500444 0-14.222222 4.721778-18.944 14.222222l-23.722667 37.944889h-109.056l-23.722666-37.944889c-4.721778-9.500444-14.222222-14.222222-18.944-14.222222-4.721778 0-9.500444 0-14.222223 4.721777L568.888889 512c-9.500444 4.721778-14.222222 18.944-9.500445 33.166222l23.722667 37.944889-52.167111 94.833778h-42.666667c-14.222222 0-23.665778 9.500444-23.665777 23.722667v75.832888c0 14.222222 9.443556 23.722667 23.665777 23.722667h42.666667l52.167111 94.833778-23.722667 37.944889A25.031111 25.031111 0 0 0 568.888889 967.111111l66.389333 42.666667c4.721778 0 9.500444 4.721778 14.222222 4.721778 9.500444 0 14.222222-4.721778 18.944-14.222223l23.722667-37.944889h109.056l23.722667 37.944889c4.721778 9.500444 14.222222 14.222222 18.944 14.222223 4.721778 0 9.500444 0 14.222222-4.721778L924.444444 967.111111c9.500444-4.778667 14.222222-19.000889 9.500445-33.223111L910.222222 896.113778l52.167111-94.833778h42.666667c14.222222 0 23.722667-9.500444 23.722667-23.722667v-75.832889c0-14.222222-9.500444-23.722667-23.722667-23.722666h-42.666667L910.222222 583.111111l23.722667-37.944889A25.031111 25.031111 0 0 0 924.444444 512l-66.389333-42.666667c-4.721778-4.721778-9.500444-4.721778-14.222222-4.721777z m0 270.222222l-47.388445 85.333333h-94.833777l-47.388445-85.333333 47.388445-80.611556H796.444444l47.388445 80.611556zM417.166222 341.333333H796.444444V246.499556H417.166222V341.333333z m0 189.610667h18.944c23.722667-37.944889 56.888889-71.111111 94.833778-94.833778h-113.777778v94.833778zM37.944889 9.500444v948.167112h398.222222c-18.944-28.444444-33.166222-61.610667-47.388444-94.833778h-256V104.334222h758.499555v289.166222c33.166222 14.222222 66.389333 33.166222 94.833778 56.888889V9.500444H37.944889z m284.444444 236.999112H227.555556V341.333333h94.833777V246.499556z m0 189.667555H227.555556v94.833778h94.833777V436.167111z m-94.833777 284.444445h94.833777V625.777778H227.555556v94.833778z" p-id="4969" fill="#800080"></path></svg>