<?xml version="1.0" standalone="no"?><!DOCTYPE svg PUBLIC "-//W3C//DTD SVG 1.1//EN" "http://www.w3.org/Graphics/SVG/1.1/DTD/svg11.dtd"><svg t="1565073298564" class="icon" viewBox="0 0 1050 1024" version="1.1" xmlns="http://www.w3.org/2000/svg" p-id="144050" xmlns:xlink="http://www.w3.org/1999/xlink" width="205.078125" height="200"><defs><style type="text/css"></style></defs><path d="M0 0m192.547009 0l665.162393 0q192.547009 0 192.547008 192.547009l0 638.905982q0 192.547009-192.547008 192.547009l-665.162393 0q-192.547009 0-192.547009-192.547009l0-638.905982q0-192.547009 192.547009-192.547009Z" fill="#00C8FF" p-id="144051"></path><path d="M43.760684 43.760684m157.538461 0l647.65812 0q157.538462 0 157.538461 157.538461l0 621.40171q0 157.538462-157.538461 157.538461l-647.65812 0q-157.538462 0-157.538461-157.538461l0-621.40171q0-157.538462 157.538461-157.538461Z" fill="#001D26" p-id="144052"></path><path d="M259.063248 248.560684c0-3.500855 7.001709-5.251282 10.940171-5.251282 28.006838-1.750427 70.017094-1.750427 112.02735-1.750428 120.34188 0 168.041026 66.516239 168.041026 152.28718 0 112.02735-80.519658 159.288889-180.294017 159.288889h-32.820513v168.041025a4.594872 4.594872 0 0 1-5.251282 5.251282H262.564103a4.594872 4.594872 0 0 1-5.251282-5.251282z m76.581196 232.806837h35.008547c51.2 0 99.774359-17.504274 99.774359-87.521367 0-56.013675-35.008547-84.020513-92.772649-84.020513a272.62906 272.62906 0 0 0-42.010257 1.750427z m376.341881-52.51282c-35.008547 0-45.511111 17.504274-45.511111 31.507692s8.752137 26.25641 54.700854 50.762393c68.266667 32.820513 91.022222 64.765812 91.022223 112.027351 0 70.017094-52.512821 108.526496-126.03077 108.526495a185.982906 185.982906 0 0 1-91.022222-19.2547c-3.500855-1.750427-3.500855-3.500855-3.500855-7.00171v-64.765812c0-3.500855 1.750427-5.251282 5.251282-3.500854a155.678632 155.678632 0 0 0 87.521368 26.25641c35.008547 0 49.011966-14.003419 49.011966-32.820513 0-15.753846-10.940171-29.757265-54.700855-52.512821-61.264957-29.757265-87.521368-59.51453-87.521367-110.276923 0-56.013675 43.760684-103.275214 120.34188-103.275213a206.003419 206.003419 0 0 1 78.769231 12.252991 6.345299 6.345299 0 0 1 3.500854 8.752137v59.51453c0 3.500855-1.750427 5.251282-7.001709 3.500855a160.382906 160.382906 0 0 0-74.393162-19.692308z" fill="#FFFFFF" p-id="144053"></path></svg>