<?xml version="1.0" standalone="no"?><!DOCTYPE svg PUBLIC "-//W3C//DTD SVG 1.1//EN" "http://www.w3.org/Graphics/SVG/1.1/DTD/svg11.dtd"><svg t="1565134338697" class="icon" viewBox="0 0 1024 1024" version="1.1" xmlns="http://www.w3.org/2000/svg" p-id="4196" xmlns:xlink="http://www.w3.org/1999/xlink" width="200" height="200"><defs><style type="text/css"></style></defs><path d="M1004.637 613.182c-5.954-18.032-21.55-30.592-41.72-33.606-9.51-1.42-20.403-0.814-33.292 1.843-22.466 4.635-39.133 6.4-51.297 6.741 45.913-77.518 83.247-165.915 104.74-249.127 34.753-134.551 16.181-195.848-5.52-223.573C920.114 42.073 836.32 2.65 735.232 1.443c-53.927-0.66-101.267 9.988-125.964 17.645-22.993-4.058-47.716-6.323-73.658-6.742-48.628-0.776-91.594 9.825-128.306 31.612-20.325-6.873-52.946-16.562-90.616-22.745-88.6-14.545-160.008-3.212-212.24 33.687C41.2 99.576 11.881 177.2 17.303 285.61c1.722 34.421 20.977 139.148 51.293 238.469C86.02 581.167 104.6 628.573 123.82 664.995c27.256 51.646 56.42 82.06 89.161 92.982 18.35 6.113 51.693 10.395 86.761-18.812 4.445 5.384 10.376 10.733 18.246 15.701 9.996 6.303 22.218 11.454 34.424 14.507 43.99 10.996 85.194 8.246 120.347-7.168 0.218 6.253 0.384 12.226 0.524 17.385 0.233 8.366 0.465 16.57 0.772 24.242 2.083 51.875 5.612 92.21 16.07 120.433 0.574 1.551 1.346 3.917 2.16 6.427 5.217 15.973 13.94 42.713 36.135 63.655 22.982 21.694 50.781 28.346 76.241 28.346 12.77 0 24.953-1.676 35.639-3.964 38.09-8.165 81.35-20.6 112.644-65.16 29.587-42.124 43.97-105.569 46.572-205.537 0.338-2.828 0.648-5.527 0.947-8.099l0.62-5.283 6.97 0.613 1.796 0.12c38.796 1.769 86.233-6.458 115.367-19.991 23.02-10.682 96.791-49.63 79.422-102.21" p-id="4197"></path><path d="M938.302 623.407c-115.355 23.796-123.287-15.26-123.287-15.26C936.809 427.423 987.725 198.02 943.79 141.874 823.92-11.28 616.425 61.153 612.96 63.03l-1.113 0.202c-22.792-4.732-48.295-7.548-76.963-8.017-52.193-0.854-91.788 13.684-121.833 36.468 0 0-370.153-152.49-352.935 191.783 3.662 73.239 104.976 554.174 225.816 408.91 44.167-53.12 86.846-98.033 86.846-98.033 21.193 14.08 46.568 21.263 73.17 18.684l2.067-1.753c-0.644 6.594-0.35 13.044 0.826 20.681-31.131 34.781-21.981 40.887-84.213 53.698-62.972 12.979-25.98 36.08-1.827 42.124 29.281 7.32 97.02 17.691 142.79-46.383l-1.823 7.312c12.195 9.77 20.76 63.546 19.324 112.299-1.435 48.748-2.393 82.218 7.215 108.361 9.615 26.143 19.192 84.965 101.004 67.437 68.355-14.65 103.78-52.612 108.71-115.937 3.495-45.017 11.412-38.361 11.908-78.611l6.35-19.053c7.319-61.025 1.163-80.714 43.275-71.556l10.24 0.9c30.992 1.408 71.564-4.988 95.376-16.054 51.27-23.793 81.68-63.523 31.123-53.085h0.008" fill="#336791" p-id="4198"></path><path d="M434.719 316.218c-10.395-1.447-19.809-0.108-24.572 3.499-2.676 2.028-3.507 4.379-3.731 5.996-0.598 4.287 2.404 9.026 4.25 11.47 5.222 6.92 12.847 11.675 20.395 12.722 1.094 0.156 2.184 0.225 3.266 0.225 12.587 0 24.033-9.801 25.042-17.035 1.26-9.061-11.893-15.1-24.65-16.873m344.374 0.283c-0.993-7.102-13.63-9.127-25.623-7.459-11.978 1.668-23.59 7.075-22.621 14.193 0.776 5.535 10.771 14.984 22.602 14.984 1 0 2.009-0.066 3.025-0.21 7.897-1.094 13.692-6.109 16.446-8.999 4.19-4.406 6.617-9.317 6.171-12.509" fill="#FFFFFF" p-id="4199"></path><path d="M976.687 620.703c-4.399-13.3-18.557-17.579-42.078-12.722-69.837 14.413-94.848 4.43-103.059-1.618 54.284-82.696 98.94-182.66 123.031-275.925 11.412-44.18 17.715-85.21 18.23-118.652 0.57-36.705-5.682-63.678-18.575-80.155-51.983-66.425-128.28-102.055-220.633-103.033-63.492-0.713-117.136 15.535-127.535 20.104-21.9-5.446-45.773-8.79-71.765-9.216-47.663-0.772-88.863 10.64-122.973 33.9-14.817-5.515-53.108-18.66-99.937-26.204-80.958-13.033-145.292-3.158-191.201 29.366-54.78 38.811-80.07 108.187-75.17 206.196C46.67 315.718 65.457 417.156 95.107 514.3c39.028 127.86 81.454 200.243 126.092 215.133 5.224 1.742 11.248 2.96 17.892 2.96 16.284 0 36.248-7.339 57.019-32.31a2055.106 2055.106 0 0 1 78.588-88.926c17.547 9.418 36.825 14.678 56.54 15.205 0.04 0.516 0.09 1.032 0.137 1.544a456.378 456.378 0 0 0-9.969 12.315c-13.661 17.342-16.504 20.953-60.478 30.006-12.51 2.584-45.73 9.43-46.22 32.718-0.527 25.445 39.273 36.13 43.807 37.263 15.803 3.957 31.027 5.908 45.545 5.908 35.309 0 66.382-11.605 91.214-34.06-0.764 90.71 3.017 180.092 13.909 207.325 8.921 22.296 30.712 76.78 99.545 76.777 10.1 0 21.217-1.175 33.447-3.797 71.839-15.4 103.036-47.15 115.103-117.151 6.458-37.411 17.54-126.744 22.753-174.662 11 3.433 25.162 5.004 40.471 5 31.93 0 68.775-6.784 91.881-17.51 25.957-12.054 72.797-41.634 64.303-67.335zM805.609 296.902c-0.237 14.146-2.184 26.988-4.248 40.394-2.222 14.417-4.518 29.323-5.096 47.418-0.57 17.61 1.629 35.917 3.754 53.624 4.298 35.762 8.708 72.58-8.362 108.909a141.607 141.607 0 0 1-7.564-15.55c-2.122-5.144-6.73-13.406-13.11-24.84-24.82-44.513-82.944-148.752-53.19-191.287 8.863-12.66 31.356-25.677 87.816-18.668zM737.17 57.243c82.75 1.827 148.209 32.784 194.553 92.005 35.545 45.424-3.596 252.113-116.907 430.425a664.553 664.553 0 0 0-3.437-4.332l-1.435-1.792c29.281-48.357 23.556-96.202 18.46-138.62-2.095-17.409-4.073-33.85-3.57-49.296 0.52-16.369 2.685-30.41 4.78-43.985 2.571-16.73 5.19-34.04 4.468-54.447 0.54-2.141 0.756-4.67 0.473-7.672-1.842-19.569-24.184-78.135-69.721-131.142-24.91-28.994-61.235-61.44-110.833-83.324 21.334-4.422 50.506-8.545 83.17-7.82zM274.13 681.806c-22.884 27.516-38.687 22.24-43.884 20.51-33.862-11.294-73.154-82.866-107.796-196.36-29.975-98.202-47.491-196.952-48.88-224.643-4.375-87.575 16.853-148.608 63.1-181.407 75.264-53.372 199.005-21.426 248.727-5.225-0.713 0.706-1.458 1.366-2.164 2.083-81.594 82.401-79.659 223.186-79.457 231.793-0.008 3.32 0.272 8.02 0.652 14.487 1.404 23.68 4.018 67.75-2.964 117.659-6.485 46.379 7.812 91.772 39.219 124.544a140.703 140.703 0 0 0 10.15 9.573c-13.979 14.972-44.361 48.081-76.703 86.986z m87.192-116.337c-25.313-26.414-36.81-63.154-31.546-100.81 7.37-52.72 4.65-98.637 3.188-123.306-0.206-3.452-0.388-6.478-0.493-8.863 11.92-10.57 67.158-40.165 106.55-31.14 17.975 4.116 28.929 16.358 33.482 37.412C496.07 447.767 475.621 493.2 459.19 529.71c-3.386 7.52-6.586 14.63-9.317 21.985l-2.117 5.686c-5.36 14.375-10.349 27.74-13.44 40.432-26.911-0.077-53.09-11.574-72.995-32.349z m4.13 147.006c-7.858-1.963-14.925-5.372-19.071-8.2 3.463-1.629 9.627-3.847 20.317-6.05 51.731-10.648 59.721-18.165 77.168-40.317 4-5.08 8.534-10.837 14.813-17.85l0.008-0.008c9.352-10.472 13.63-8.696 21.388-5.476 6.287 2.598 12.412 10.48 14.894 19.153 1.176 4.096 2.494 11.87-1.823 17.92-36.445 51.03-89.553 50.374-127.693 40.828zM636.188 964.41c-63.286 13.56-85.694-18.73-100.46-55.645-9.53-23.831-14.216-131.297-10.892-249.976a14.299 14.299 0 0 0-0.617-4.538 59.904 59.904 0 0 0-1.769-8.386c-4.941-17.269-16.985-31.713-31.433-37.702-5.74-2.378-16.276-6.741-28.936-3.503 2.7-11.124 7.381-23.687 12.459-37.29l2.13-5.722c2.396-6.45 5.406-13.133 8.587-20.208 17.194-38.198 40.743-90.52 15.185-208.718-9.573-44.272-41.542-65.892-90.003-60.87-29.052 3.007-55.634 14.728-68.891 21.45a222.695 222.695 0 0 0-7.894 4.197c3.7-44.606 17.68-127.969 69.974-180.713 32.927-33.202 76.776-49.602 130.203-48.717 105.27 1.722 172.777 55.746 210.874 100.767 32.83 38.792 50.607 77.87 57.7 98.948-53.352-5.427-89.638 5.104-108.031 31.402-40.018 57.205 21.892 168.231 51.646 221.592 5.457 9.778 10.166 18.23 11.648 21.822 9.69 23.482 22.233 39.16 31.39 50.602 2.81 3.507 5.532 6.909 7.603 9.88-16.159 4.658-45.184 15.422-42.538 69.224-2.134 26.997-17.304 153.391-25.01 198.047-10.175 58.997-31.884 80.97-92.925 94.061z m264.161-302.297c-16.524 7.668-44.175 13.42-70.443 14.658-29.013 1.357-43.783-3.25-47.259-6.086-1.629-33.528 10.85-37.03 24.057-40.739 2.075-0.582 4.1-1.152 6.054-1.834 1.214 0.989 2.545 1.97 4.003 2.932 23.32 15.39 64.912 17.051 123.633 4.93l0.644-0.128c-7.92 7.404-21.473 17.342-40.689 26.267z" fill="#FFFFFF" p-id="4200"></path></svg>