<svg viewBox="0 0 1024 1024" xmlns="http://www.w3.org/2000/svg" width="200" height="200"><path d="M818.035 653.855c-58.71 0-106.7 31.465-129.023 80.245L405.3 613.338c16.523-25.664 25.664-57.041 25.664-90.967 0-14.062-1.67-28.125-4.922-41.308l181.143-140.625c23.994 18.193 54.58 28.916 88.505 28.916 81.914 0 143.086-61.172 143.086-142.208S777.43 84.852 695.604 84.852s-142.295 61.171-142.295 142.207c0 20.654 4.13 39.726 10.722 56.25L397.04 411.54c-33.047-49.658-87.627-84.375-149.678-84.375-101.69 0-183.603 81.826-183.603 183.604s81.914 183.603 183.603 183.603c38.057 0 73.565-9.932 102.569-28.125l325.81 138.955c4.131 76.904 63.72 133.945 142.295 133.945 81.914 0 142.207-61.171 142.207-142.207S899.07 653.855 818.035 653.855zM695.604 144.354c40.517 0 81.914 30.585 81.914 81.914s-30.586 81.914-81.914 81.914-81.915-40.518-81.915-81.914 41.397-81.914 81.915-81.914zM247.36 633.2c-61.172 0-112.5-51.24-112.5-112.5s51.24-112.5 112.5-112.5 112.5 51.24 112.5 112.5c-.879 61.172-51.328 112.412-112.5 112.5zm570.674 244.776c-51.24 0-81.914-30.586-81.914-81.914s40.518-81.915 81.914-81.915c41.309 0 81.914 30.586 81.914 81.914-.879 51.329-31.465 81.915-81.914 81.915z" fill="#3066E7"/></svg>