<?xml version="1.0" standalone="no"?><!DOCTYPE svg PUBLIC "-//W3C//DTD SVG 1.1//EN" "http://www.w3.org/Graphics/SVG/1.1/DTD/svg11.dtd"><svg t="1565065992234" class="icon" viewBox="0 0 1024 1024" version="1.1" xmlns="http://www.w3.org/2000/svg" p-id="45924" xmlns:xlink="http://www.w3.org/1999/xlink" width="200" height="200"><defs><style type="text/css"></style></defs><path d="M944 80l0 864L80 944 80 80 944 80M962.003 0 61.997 0C27.757 0 0 27.757 0 61.997l0 900.006C0 996.243 27.757 1024 61.997 1024l900.006 0c34.24 0 61.997-27.757 61.997-61.997L1024 61.997C1024 27.757 996.243 0 962.003 0L962.003 0z" fill="#1296db" p-id="45925"></path><path d="M262.795 712.179c-36.607 0-68.164-4.425-94.688-13.287-26.525-8.851-50.487-24.73-71.865-47.637l69.089-72.59c10.689 11.241 24.771 19.444 42.255 24.629 17.475 5.185 36.086 7.777 55.826 7.777 41.947 0 62.92-13.823 62.92-41.48 0-11.666-2.159-19.869-6.477-24.629-4.318-4.75-8.742-8.203-13.262-10.37-4.53-2.157-10.487-3.666-17.889-4.537l-53.051-7.778c-39.074-6.046-68.578-19.768-88.52-41.156-19.952-21.388-29.918-52.174-29.918-92.358 0-42.776 14.391-77.775 43.181-104.996 28.781-27.221 67.855-40.832 117.205-40.832 32.481 0 60.549 4.213 84.202 12.638 23.644 8.426 44.925 22.583 63.846 42.452l-67.855 71.294c-8.231-8.638-18.304-15.332-30.227-20.092-11.933-4.75-26.939-7.129-45.031-7.129l-8.019 0c-17.687 0-30.949 4.213-39.788 12.638-8.848 8.426-13.262 18.471-13.262 30.138 0 4.76 0.713 8.75 2.159 11.99 1.437 3.24 3.701 6.481 6.786 9.722 3.084 3.241 6.882 6.056 11.412 8.426 4.521 2.38 10.689 4 18.506 4.861l53.05 7.778c38.65 5.62 65.59 16.314 80.81 32.082 15.209 15.778 25.388 31.981 30.535 48.609 5.137 16.638 7.711 36.194 7.711 58.655 0 44.943-16.145 80.367-48.424 106.292C351.72 699.216 311.315 712.179 262.795 712.179z" fill="#1296db" p-id="45926"></path><path d="M633.523 821.063l0-138.05c-18.506 17.287-43.181 25.925-74.024 25.925-33.311 0-58.091-8.557-74.333-25.682-16.25-17.125-26.429-36.072-30.535-56.843-4.116-20.76-6.168-45.703-6.168-74.818l0-19.272c0-37.672 1.542-67.536 4.626-89.593 3.084-22.046 13.262-42.057 30.535-60.042 17.272-17.986 42.766-26.978 76.491-26.978 16.858 0 31.152 2.593 42.872 7.778 11.721 5.185 22.92 13.398 33.619 24.629l0-30.462 98.082 0 0 463.409L633.523 821.064zM591.576 451.633c-17.687 0-29.099 6.481-34.236 19.444-5.147 12.962-7.711 33.925-7.711 62.868 0 28.953 2.564 49.906 7.711 62.868 5.137 12.963 16.549 19.444 34.236 19.444 17.677 0 29.089-6.481 34.236-19.444 5.137-12.962 7.711-33.915 7.711-62.868 0-28.943-2.574-49.906-7.711-62.868C620.665 458.114 609.253 451.633 591.576 451.633z" fill="#1296db" p-id="45927"></path><path d="M874.091 708.938c-34.14 0-59.836-10.269-77.108-30.826-17.272-20.558-25.909-44.68-25.909-72.367L771.074 246.826 872.24 246.826l0 351.243c0 14.289 6.786 21.429 20.356 21.429l35.162 0 0 89.441L874.091 708.939z" fill="#1296db" p-id="45928"></path></svg>