<?xml version="1.0" standalone="no"?><!DOCTYPE svg PUBLIC "-//W3C//DTD SVG 1.1//EN" "http://www.w3.org/Graphics/SVG/1.1/DTD/svg11.dtd"><svg t="1565065954127" class="icon" viewBox="0 0 1024 1024" version="1.1" xmlns="http://www.w3.org/2000/svg" p-id="45170" xmlns:xlink="http://www.w3.org/1999/xlink" width="200" height="200"><defs><style type="text/css"></style></defs><path d="M1000.192 419.968c-23.328-20.8-51.616-12.544-79.456 12.096a0.896 0.896 0 0 1-0.64 0.256H579.488a42.72 42.72 0 0 0-42.624 42.624v375.104a42.752 42.752 0 0 0 42.656 42.656h223.296a0.96 0.96 0 0 1 0.96 0.896c2.112 24.928 5.952 46.4 10.88 58.496a1.024 1.024 0 0 0 0.896 0.608c0.16 0 0.32-0.032 0.48-0.128l1.856-1.024a0.992 0.992 0 0 0 0.512-0.864l-0.032-0.288c-7.424-23.456-10.4-54.08-9.056-89.312 2.048-54.432 14.56-120.096 37.728-188.512 35.04-92.608 82.272-168.8 127.456-212.128a0.992 0.992 0 0 1 0.672-0.288 0.96 0.96 0 0 1 0.96 0.96 1.12 1.12 0 0 1-0.224 0.64c-43.072 51.744-94.24 163.136-110.72 207.2-19.136 51.168-33.088 99.392-41.984 145.632v0.16c0 0.544 0.448 0.96 0.96 0.96a0.96 0.96 0 0 0 0.864-0.544c17.376-37.856 56.864-55.2 60.16-56.608a0.64 0.64 0 0 0 0.352-0.288c2.048-2.56 24.384-30.4 50.528-69.664a1.088 1.088 0 0 0 0.16-0.544 0.96 0.96 0 0 0-0.96-0.96l-0.224 0.032c-16.928 3.872-42.432 10.016-51.232 13.76l-0.416 0.16a0.96 0.96 0 0 1-1.376-0.864 0.96 0.96 0 0 1 0.544-0.864c16.192-8.896 42.08-22.144 65.6-29.728a1.056 1.056 0 0 0 0.512-0.384c52.032-82.048 108.544-198.368 51.488-249.28z m-637.376 26.016h1.664c43.68 0 86.688-2.976 128.8-8.768l-4.896 0.544c0-19.808 2.464-43.328 2.464-43.328s119.264-4.576 167.52-4.576c42.336-21.888 67.264-48.672 67.264-77.696V205.408c0-74.048-162.624-133.76-362.816-133.76S0 131.36 0 205.408v106.752c0 73.664 162.208 133.792 362.816 133.792z m0 80.192C162.56 526.176 0 466.464 0 392.416v160.352c0 73.632 162.208 133.76 362.816 133.76 47.232 0 87.776-4.48 129.184-10.56 0-58.496-1.152-89.44-1.152-158.368-37.952 5.44-81.76 8.544-126.304 8.544h-1.824 0.096zM0.352 632.928v160.352c0 73.664 162.208 133.824 362.816 133.824a832.32 832.32 0 0 0 128.832-9.184v-160.544c-42.432 6.4-80.576 9.312-129.184 9.312-200.256 0-362.464-59.712-362.464-133.792z" fill="#006440" p-id="45171"></path></svg>