<?xml version="1.0" standalone="no"?><!DOCTYPE svg PUBLIC "-//W3C//DTD SVG 1.1//EN" "http://www.w3.org/Graphics/SVG/1.1/DTD/svg11.dtd"><svg t="1565076991466" class="icon" viewBox="0 0 1024 1024" version="1.1" xmlns="http://www.w3.org/2000/svg" p-id="226407" xmlns:xlink="http://www.w3.org/1999/xlink" width="200" height="200"><defs><style type="text/css"></style></defs><path d="M303.941818 1007.243636s-56.552727-63.720727-109.661091-115.898181A3952.546909 3952.546909 0 0 0 23.272727 847.965091l116.503273-202.938182c61.579636 80.709818 169.332364 149.969455 271.592727 175.104l-107.380363 187.112727zM132.747636 390.656C132.701091 185.716364 307.2 0 510.277818 0c203.310545 0 377.716364 175.941818 377.716364 380.834909 0 204.846545-174.405818 380.834909-377.716364 380.834909-203.124364 0-377.576727-166.167273-377.576727-371.060363zM704.232727 293.003636l-85.038545-13.172363a39.237818 39.237818 0 0 1-32.069818-22.481455l-38.586182-83.130182a42.309818 42.309818 0 0 0-38.120727-24.436363 42.309818 42.309818 0 0 0-38.074182 24.529454L433.338182 258.141091a38.679273 38.679273 0 0 1-31.557818 21.550545l-85.224728 13.312a42.170182 42.170182 0 0 0-33.559272 28.392728 42.542545 42.542545 0 0 0 9.728 42.961454l67.025454 69.725091c0.093091 0 0 0.046545 0.093091 0.093091 7.773091 8.378182 11.403636 19.735273 9.960727 31.092364l-15.732363 97.373091a42.542545 42.542545 0 0 0 17.221818 41.425454 42.821818 42.821818 0 0 0 44.637091 2.56l73.821091-39.936a38.167273 38.167273 0 0 1 39.191272-1.163636l75.729455 40.96a42.123636 42.123636 0 0 0 61.952-43.985455l-14.894545-93.184v-1.210182a38.539636 38.539636 0 0 1 10.24-35.095272v-0.046546l66.048-68.608a42.216727 42.216727 0 1 0-23.738182-71.354182h-0.093091z m132.142546 588.706909C783.034182 933.655273 716.8 1007.243636 716.8 1007.243636l-107.473455-187.252363c102.306909-25.134545 200.285091-94.394182 261.957819-175.104l126.231272 202.938182c-0.093091 0-85.922909 12.101818-161.233454 33.838545z" fill="#1afa29" p-id="226408"></path></svg>