<svg viewBox="0 0 1230 1024" xmlns="http://www.w3.org/2000/svg" width="240.234" height="200"><path d="M177.33 679.923H74.554a27.517 27.517 0 0 1-27.517-27.517V182.034h886.887v51.27a23.519 23.519 0 0 0 47.037 0V74.555A74.554 74.554 0 0 0 906.407 0H74.554A74.554 74.554 0 0 0 0 74.554v577.852a74.554 74.554 0 0 0 74.554 74.554H177.33a23.519 23.519 0 0 0 0-47.037zM74.554 47.037h831.853a27.517 27.517 0 0 1 27.517 27.517v60.443H47.037V74.554a27.517 27.517 0 0 1 27.517-27.517z" fill="#2E8AE6"/><path d="M1159.702 297.04H319.853a70.556 70.556 0 0 0-70.556 70.556v585.848A70.556 70.556 0 0 0 319.853 1024h839.85a70.556 70.556 0 0 0 70.555-70.556V367.596a70.556 70.556 0 0 0-70.556-70.556zm-839.849 47.037h839.85a23.519 23.519 0 0 1 23.518 23.519v64.44H296.334v-64.44a23.519 23.519 0 0 1 23.519-23.519zm839.85 632.886h-839.85a23.519 23.519 0 0 1-23.519-23.519v-474.37h886.887v474.37a23.519 23.519 0 0 1-23.519 23.519z" fill="#2E8AE6"/></svg>