<svg viewBox="0 0 1025 1024" xmlns="http://www.w3.org/2000/svg" width="200.195" height="200"><path d="M727.808 205.307a84 84 0 1 0 168 0 84 84 0 1 0-168 0zm-206.99 706.609c-115.75 0-209.92-94.17-209.92-209.92s94.17-209.92 209.92-209.92 209.92 94.17 209.92 209.92-94.17 209.92-209.92 209.92zm0-339.84c-71.638 0-129.92 58.281-129.92 129.92 0 71.637 58.282 129.92 129.92 129.92 71.638 0 129.92-58.283 129.92-129.92 0-71.639-58.282-129.92-129.92-129.92z" fill="#2A83C6"/><path d="M0 640.973V1.456h1025.261v597.916l-60.616-36.459C847.024 492.169 695.328 453.209 537.5 453.209c-179.809 0-352.486 51.3-473.756 140.746L0 640.973zM80 81.456v406.432c51.32-29.692 108.171-54.122 169.815-72.924 90.838-27.707 187.629-41.755 287.685-41.755 87.345 0 172.671 10.795 253.61 32.086 54.701 14.389 106.309 33.265 154.15 56.348V81.456H80z" fill="#2A83C6"/><path d="M1025.938 1024H.676V1.192h1025.262V1024zM80.676 944h865.262V81.192H80.676V944z" fill="#2A83C6"/><path d="M1025.938 1024H.676V1.192h1025.262V1024zM80.676 944h865.262V81.192H80.676V944z" fill="#2A83C6"/></svg>