<?xml version="1.0" standalone="no"?><!DOCTYPE svg PUBLIC "-//W3C//DTD SVG 1.1//EN" "http://www.w3.org/Graphics/SVG/1.1/DTD/svg11.dtd"><svg t="1565067247522" class="icon" viewBox="0 0 1025 1024" version="1.1" xmlns="http://www.w3.org/2000/svg" p-id="102909" xmlns:xlink="http://www.w3.org/1999/xlink" width="200.1953125" height="200"><defs><style type="text/css"></style></defs><path d="M811.808 205.307m-84 0a84 84 0 1 0 168 0 84 84 0 1 0-168 0Z" fill="#2A83C6" p-id="102910"></path><path d="M520.818 911.916c-115.75 0-209.92-94.17-209.92-209.92s94.17-209.92 209.92-209.92 209.92 94.17 209.92 209.92-94.17 209.92-209.92 209.92z m0-339.84c-71.638 0-129.92 58.281-129.92 129.92 0 71.637 58.282 129.92 129.92 129.92 71.638 0 129.92-58.283 129.92-129.92 0-71.639-58.282-129.92-129.92-129.92z" fill="#2A83C6" p-id="102911"></path><path d="M0 640.973V1.456h1025.261v597.916l-60.616-36.459C847.024 492.169 695.328 453.209 537.5 453.209c-179.809 0-352.486 51.3-473.756 140.746L0 640.973zM80 81.456v406.432c51.32-29.692 108.171-54.122 169.815-72.924 90.838-27.707 187.629-41.755 287.685-41.755 87.345 0 172.671 10.795 253.61 32.086 54.701 14.389 106.309 33.265 154.15 56.348V81.456H80z" fill="#2A83C6" p-id="102912"></path><path d="M1025.938 1024H0.676V1.192h1025.262V1024zM80.676 944h865.262V81.192H80.676V944z" fill="#2A83C6" p-id="102913"></path><path d="M1025.938 1024H0.676V1.192h1025.262V1024zM80.676 944h865.262V81.192H80.676V944z" fill="#2A83C6" p-id="102914"></path></svg>