<?xml version="1.0" standalone="no"?><!DOCTYPE svg PUBLIC "-//W3C//DTD SVG 1.1//EN" "http://www.w3.org/Graphics/SVG/1.1/DTD/svg11.dtd"><svg t="1565073215515" class="icon" viewBox="0 0 1024 1024" version="1.1" xmlns="http://www.w3.org/2000/svg" p-id="142080" xmlns:xlink="http://www.w3.org/1999/xlink" width="200" height="200"><defs><style type="text/css"></style></defs><path d="M749.7 501.5c-38.4-7.5-19.8-28.2-19.8-28.2s37.6-62.1-7.4-107.2c-55.8-55.9-191.5 7.1-191.5 7.1-51.8 16.1-38.1-7.4-30.8-47.3 0-47-16.1-126.6-154.1-79.6C208.3 293.6 89.9 459.2 89.9 459.2 7.6 569.3 18.5 654.4 18.5 654.4 39 842.1 238.2 893.7 393.1 905.9c163 12.8 382.9-56.3 449.7-198.2 66.7-142.2-54.5-198.5-93.1-206.2zM405.2 852.9c-161.8 7.6-292.6-73.7-292.6-181.9 0-108.3 130.8-195.1 292.6-202.6 161.9-7.5 293 59.3 293 167.4 0 108.2-131.1 209.8-293 217.1z m-32.3-313.1C210.2 558.9 229 711.6 229 711.6s-1.7 48.3 43.6 73c95.2 51.7 193.3 20.4 242.8-43.7 49.6-64.1 20.5-220-142.5-201.1z m-41 214.3c-30.4 3.6-54.9-14-54.9-39.4s21.8-51.9 52.2-55.1c34.9-3.3 57.6 16.8 57.6 42.3 0 25.3-24.7 48.8-54.9 52.2z m95.9-81.8c-10.3 7.7-23 6.6-28.4-2.6-5.7-9-3.5-23.5 6.9-31 12.1-9 24.6-6.4 30 2.6 5.5 9.2 1.6 23-8.5 31zM829 435.4c13.1 0 24.3-9.7 26.1-22.4 0.2-0.9 0.4-1.8 0.4-2.8C875.3 231.2 709 262 709 262c-14.8 0-26.6 12-26.6 26.9 0 14.7 11.8 26.7 26.6 26.7 119.4-26.4 93.1 93.2 93.1 93.2 0 14.8 12.1 26.6 26.9 26.6zM809.6 123c-57.5-13.5-116.6-1.9-133.2 1.3-1.3 0.1-2.5 1.3-3.7 1.6-0.6 0.1-0.9 0.7-0.9 0.7-16.3 4.6-28.3 19.8-28.3 37.7 0 21.3 17.3 38.9 38.8 38.9 0 0 20.9-2.8 35.1-8.4 14.1-5.7 133.2-4.2 192.3 95.3 32.3 72.6 14.2 121.2 11.9 129 0 0-7.7 18.9-7.7 37.5 0 21.4 17.3 34.9 38.7 34.9 17.9 0 32.9-2.4 37.3-32.7h0.2C1053.7 246.7 912.5 147 809.6 123z" fill="#DA251C" p-id="142081"></path></svg>