<svg viewBox="0 0 1024 1024" xmlns="http://www.w3.org/2000/svg" width="200" height="200"><path d="m596.954 578.75-91.022 91.022-145.636-145.636 84.954-84.954-42.477-42.477-84.954 84.954-84.954-84.954-103.158 103.159a279.135 279.135 0 0 0-24.273 370.157l-139.567 145.635 42.477 42.477L147.91 918.566c48.545 42.477 109.227 60.681 169.908 60.681 72.818 0 145.636-30.34 200.25-84.954l103.158-103.158-78.886-78.886 91.022-91.022-36.409-42.477zM475.591 845.748c-42.477 42.477-97.09 66.75-151.704 66.75-54.613 0-109.226-18.205-145.635-60.682l-6.068-6.068c-78.886-78.886-78.886-212.385 6.068-297.34l54.613-54.612 297.34 297.339-54.614 54.613zm533.997-782.791L967.111 20.48l-133.5 127.431C785.068 105.434 724.386 87.23 663.705 87.23c-72.818 0-145.636 30.34-200.25 84.954l-103.158 97.09 394.43 394.43 97.09-97.09a279.135 279.135 0 0 0 24.273-370.158l133.5-133.499zM803.271 518.068l-48.545 48.545-297.34-297.339 48.546-48.545c42.477-42.477 97.09-66.75 151.704-66.75 54.613 0 109.226 18.205 145.635 60.682l6.068 6.068c84.954 78.886 78.886 212.385-6.068 297.34z" fill="#228B22"/></svg>