<?xml version="1.0" standalone="no"?><!DOCTYPE svg PUBLIC "-//W3C//DTD SVG 1.1//EN" "http://www.w3.org/Graphics/SVG/1.1/DTD/svg11.dtd"><svg t="1565066903874" class="icon" viewBox="0 0 1024 1024" version="1.1" xmlns="http://www.w3.org/2000/svg" p-id="88440" xmlns:xlink="http://www.w3.org/1999/xlink" width="200" height="200"><defs><style type="text/css"></style></defs><path d="M596.9540736 578.74962987l-91.02222187 91.02222186-145.6355552-145.6355552 84.9540736-84.95407466-42.4770368-42.4770368-84.9540736 84.95407466-84.95407466-84.95407466-103.1585184 103.1585184a279.13481493 279.13481493 0 0 0-24.27259307 370.1570368L-34.13333333 1015.65629653l42.4770368 42.4770368L147.91111147 918.5659264c48.54518507 42.4770368 109.22666667 60.6814816 169.90814826 60.68148053 72.81777813 0 145.6355552-30.34074027 200.24888854-84.9540736l103.1585184-103.1585184-78.8859264-78.8859264 91.02222293-91.02222186-36.4088896-42.4770368z m-121.36296213 266.9985184c-42.4770368 42.4770368-97.09037013 66.74962987-151.70370454 66.74962986-54.61333333 0-109.22666667-18.2044448-145.6355552-60.6814816l-6.06814826-6.06814826c-78.8859264-78.8859264-78.8859264-212.38518507 6.06814826-297.33925974l54.61333334-54.61333333 297.33925973 297.33925973-54.61333333 54.61333334zM1009.58814827 62.9570368l-42.4770368-42.4770368L833.61185173 147.91111147c-48.54518507-42.4770368-109.22666667-60.6814816-169.90814826-60.6814816-72.81777813 0-145.6355552 30.34074027-200.24888854 84.9540736L360.29629653 269.2740736l394.42962987 394.42962987 97.09037013-97.09037014a279.13481493 279.13481493 0 0 0 24.272592-370.1570368l133.49925974-133.49925973z m-206.3170368 455.11111147l-48.54518507 48.54518506L457.38666667 269.2740736l48.54518506-48.54518507c42.4770368-42.4770368 97.09037013-66.74962987 151.70370347-66.7496288 54.61333333 0 109.22666667 18.2044448 145.63555627 60.68148054l6.06814826 6.06814826c84.9540736 78.8859264 78.8859264 212.38518507-6.06814826 297.33925974z" fill="#228B22" p-id="88441"></path></svg>