<svg viewBox="0 0 1024 1024" xmlns="http://www.w3.org/2000/svg" width="200" height="200"><path d="M390.848 612.704c-123.52 0-223.84-99.968-223.84-223.072 0-123.136 100.32-223.104 223.84-223.104 99.136 0 183.296 64.352 212.704 153.376 7.232 21.92 11.168 45.376 11.168 69.728 0 123.104-100.32 223.072-223.872 223.072m598.56 293.888c-2.944-10.208-8.32-19.264-15.392-27.104A8652.592 8652.592 0 0 0 751.52 657.76c-3.616-3.264-7.424-6.208-11.616-8.672-9.888-5.792-20.896-8.736-32.288-9.248l-4.448.128-25.952-25.632-4.096-3.968c47.968-60.8 76.576-137.472 76.576-220.736C749.696 192.224 588.928 32 390.848 32 192.8 32 32 192.224 32 389.632c0 197.376 160.8 357.6 358.848 357.6 81.856 0 157.344-27.36 217.792-73.472l4.416 4.512 25.664 25.824-.096 2.048c-.032 6.464.832 12.896 2.624 19.104 2.944 10.176 8.288 19.232 15.36 27.072a8705.56 8705.56 0 0 0 222.496 221.76c7.296 6.496 15.552 11.552 24.896 14.592a67.831 67.831 0 0 0 26.304 3.104c8.064-.672 16-2.784 23.296-6.24 23.008-10.848 38.176-34.496 38.4-59.872.064-6.432-.832-12.896-2.592-19.072" fill="#009788"/></svg>