<svg viewBox="0 0 1024 1024" xmlns="http://www.w3.org/2000/svg" width="200" height="200"><path d="M963.2 617.6q1.92 17.28-3.84 51.84t-23.52 76.32-49.44 85.44-82.56 79.2-122.4 58.56T512 992q-96.96 0-168.96-23.04T220.16 910.4t-82.56-79.2-49.44-85.44-23.52-76.32-3.84-51.84q1.92-21.12 12-44.16t30.72-39.84 53.28-21.12 78.72 12q39.36 14.4 65.28 28.8t53.28 26.4 62.88 19.68 95.04 7.68q58.56 0 94.56-7.68t63.36-19.68 53.28-26.4 65.28-28.8q47.04-16.32 79.2-12t52.8 21.12 30.72 39.84 12 44.16zM511.04 830.72q49.92 0 92.16-8.64t76.8-22.56 61.92-32.16 48.48-37.44q48.96-45.12 77.76-101.76-32.64 34.56-83.52 61.44-43.2 23.04-110.4 42.24T512 751.04q-96 0-163.2-19.2T238.4 689.6q-50.88-26.88-84.48-61.44 28.8 56.64 77.76 101.76 21.12 19.2 48.48 37.44t61.92 32.16 76.32 22.56 92.64 8.64zm-230.4-370.56q-4.8-38.4-13.44-70.08-7.68-27.84-19.2-54.24t-28.8-38.88q-18.24-10.56-45.12-20.16t-51.84-17.28q-29.76-8.64-61.44-14.4 31.68-5.76 61.44-13.44 24.96-6.72 51.84-16.32t45.12-21.12q17.28-10.56 28.8-37.44t19.2-54.72Q275.84 70.4 280.64 32q3.84 38.4 12.48 70.08 7.68 27.84 19.2 54.72t28.8 37.44q18.24 11.52 45.12 21.12t51.84 16.32q29.76 7.68 61.44 13.44-31.68 5.76-61.44 14.4-24.96 7.68-51.84 17.28t-45.12 20.16q-17.28 12.48-28.8 38.88t-19.2 54.24q-8.64 31.68-12.48 70.08zm463.68 0q-4.8-38.4-13.44-70.08-7.68-27.84-19.2-54.24t-28.8-38.88q-18.24-10.56-45.12-20.16t-51.84-17.28q-29.76-8.64-61.44-14.4 31.68-5.76 61.44-13.44 24.96-6.72 51.84-16.32t45.12-21.12q17.28-10.56 28.8-37.44t19.2-54.72Q739.52 70.4 744.32 32q3.84 38.4 12.48 70.08 7.68 27.84 19.2 54.72t29.76 37.44q17.28 11.52 44.16 21.12t51.84 16.32q29.76 7.68 61.44 13.44-31.68 5.76-61.44 14.4-24.96 7.68-51.84 17.28t-44.16 20.16q-18.24 12.48-29.76 38.88t-19.2 54.24q-8.64 31.68-12.48 70.08zm-344.64-4.8q0-23.04 9.12-43.68t24-36 35.52-24 43.68-8.64 43.68 8.64 36 24 24.48 36 9.12 43.68q0 24-9.12 44.64t-24.48 36-36 24-43.68 8.64-43.68-8.64-35.52-24-24-36-9.12-44.64zm157.44-72.96q-12.48 0-21.6 8.64t-9.12 21.12q0 13.44 9.12 22.08t21.6 8.64q13.44 0 21.6-8.64t8.16-22.08q0-12.48-8.16-21.12t-21.6-8.64z" fill="#de0716"/></svg>