<?xml version="1.0" standalone="no"?><!DOCTYPE svg PUBLIC "-//W3C//DTD SVG 1.1//EN" "http://www.w3.org/Graphics/SVG/1.1/DTD/svg11.dtd"><svg t="1565066086094" class="icon" viewBox="0 0 1024 1024" version="1.1" xmlns="http://www.w3.org/2000/svg" p-id="50019" xmlns:xlink="http://www.w3.org/1999/xlink" width="200" height="200"><defs><style type="text/css"></style></defs><path d="M470.1316124 62c27.77251289 0 55.54766162 0 83.27095577 0 1.51259502 0.8789045 4.44198516 0.19511719 6.5891496 0.63456943 4.34530547 0.19511719 8.68709531 0.43945224 13.08337647 0.73300693 1.6075169 0 3.17020957 0.05009766 4.83133974 0.1959961 1.75693096 0.19511719 3.51473994 0.3911124 5.32001074 0.68203037 3.85575557 0.58622959 7.76072901 0.29355381 11.22449327 0.92724434 1.75868877 0 3.51737666 0.14589844 5.32352636 0.19511718 4.97548037 0.8797834 10.39656445 0.78046787 15.66735645 1.66025128 11.27722763 1.51259502 22.64849737 3.02606895 33.925725 4.53954286 10.05291299 2.0979457 20.35279863 3.07528769 30.35825068 5.31913184 21.47691709 4.7829999 43.05315146 9.17664521 62.67470099 15.8158916 5.27167089 1.85360977 10.10213174 3.02519004 15.32634169 4.6845624 15.56979873 5.02821474 31.04467471 11.42312519 45.0008042 18.5009458 8.59129453 4.34354766 17.23180693 8.20018213 24.94419697 13.32507569 5.12225683 3.46552119 10.39656445 6.54080977 15.52145889 9.95887002 2.5874956 1.8052708 5.0747959 4.19677031 7.61483144 6.29559492 13.17829834 10.3473457 25.62446953 23.08794961 32.65307051 39.58587158 3.36796347 8.20018213 7.61571036 20.20690019 5.37010841 32.21449717-0.14765625 1.46425518-0.24433594 2.88017138-0.39199132 4.29432891-1.3693333 5.42020606-2.54003467 10.30076455-4.490325 14.83854961-5.61268565 13.91042636-17.91207949 28.26118388-28.89751025 37.09681348-1.56181377 1.31835761-3.02431113 2.68417529-4.58700381 4.10184843-1.31835761 0.92636542-2.73339404 1.85536758-4.00428985 2.83007373-5.5634669 4.19764922-11.42048848 8.25027891-17.37594755 12.05681573-5.85702158 3.85575557-12.20095635 6.9793831-18.64596534 10.20056923-8.3478375 4.10184844-17.08415156 8.68797422-26.06480068 12.30203057-8.10174463 3.22030723-16.20348838 6.00292002-24.74380635 9.02898896-12.69050625 4.63710146-26.40933105 8.34520078-39.87854735 12.3486126-6.10135664 1.75780987-12.49626797 2.63407763-18.44996925 4.53866396-1.95292617 0.34189365-3.90585322 0.63544834-5.85702158 1.0757795-7.41971425 1.75780987-15.81764942 3.02519004-23.47906289 5.07655371-9.27683965 1.51347393-18.5009458 3.0761666-27.7742707 4.53866397-3.12362753 0.3911124-6.19803633 0.73300693-9.27332402 1.07490058-7.71238916 1.70859112-16.50055869 1.75780987-24.40630723 3.22206504-2.1963832 0.14677734-4.39100859 0.2926749-6.5873918 0.488671-4.73641787 0.73124912-10.10828408 0.73124912-14.79372539 1.56181377-1.75605205 0.09667969-3.41542442 0.09667969-5.17235449 0.14589844-4.05175078 0.68466709-9.5659998 1.12324043-13.81462559 1.02656073-1.46513408 0.09667969-2.88017138 0.24521484-4.34354766 0.48779209-3.71073604 0.09755859-7.41795644 0.24521484-11.12869247 0.53701085-4.54042178 0.14677734-9.02811006 0.2926749-13.56941075 0.53788974-9.7619959 0.04921875-19.62330732 0.14589844-29.38618125 0.24433594-7.32039786 0-14.59333477-0.24433594-21.52262021-0.24433594-6.29735273 0-13.03327881 0.29179599-18.74352393-0.53788974-4.44110625-0.29179599-8.88396943-0.43945224-13.27585693-0.53701085-13.23015381-1.21992012-27.87182842-1.21992012-40.75657295-3.41718222-3.71161494-0.2926749-7.32391347-0.58622959-11.03377061-0.92724434-12.00583916-2.14716445-24.79478291-2.68417529-36.16869024-5.32088965-2.87929248-0.29091709-5.80692393-0.78046787-8.73719208-1.07314277-11.90828144-2.92938925-24.06265576-4.10096953-35.77845586-7.0769417-26.5991748-6.88182451-52.86260742-13.17829834-76.48493203-22.98863409-7.0778206-2.88105029-13.86384434-5.17499122-20.6955712-8.2494-36.5123417-16.69303828-71.11833925-37.48616807-88.83618047-72.97370683-1.56181377-3.02519004-2.53739795-6.63660967-3.56220087-10.0546708-0.58622959-1.85448867-0.58622959-4.19852813-1.61103252-5.71200205 0-2.43896045 0-4.78212099 0-7.17449941 0-8.00594385-0.19423828-15.0345457 2.05048477-20.6955712 1.56269268-3.76083369 2.34403945-7.32215566 3.90585322-10.73933789 1.36757549-3.12362753 3.41806114-6.10135664 5.2725498-8.88309052 5.85702158-8.73807099 12.15349541-16.98747187 20.35631426-23.52828164 3.95067744-3.07352988 7.46541738-6.88182451 11.85906269-9.6626795 4.19852813-2.68417529 8.29773984-6.00379893 12.39871026-8.83475068 7.07869951-4.88055849 14.8367918-8.83562959 22.64849737-12.74060391 2.14804336-1.17158027 4.24511016-2.24472305 6.34481367-3.41806112 5.2725498-2.00038711 10.29988565-4.68544131 15.4256581-7.02860187 8.10262354-3.51473994 16.10680957-6.19891523 24.6005455-9.27332402 5.46590918-2.05048477 11.42136738-4.53954287 17.18083125-6.05389658 6.05125987-1.61103252 12.05593682-3.90497432 17.96305606-5.41756933 8.00242822-2.00214492 16.00925098-3.85575557 23.91587842-6.15057539 3.61229854-0.92724434 6.93192217-1.02480292 10.54334179-2.09882461 10.64002148-3.07440878 22.7943958-4.63534365 34.06898672-6.83084796 4.88231631-0.92724434 9.37264043-1.02568184 14.20398018-2.00214492 9.13006318-1.90458633 19.37721357-2.09882461 28.74985489-4.05087187 2.14804336-0.19511719 4.39452422-0.34013584 6.48895429-0.53701084 4.15194609-0.68378818 9.03162568-0.83056465 13.37605225-1.51347393 1.60927471-0.09580078 3.22030723-0.09580078 4.83309756-0.19511719 2.87753467-0.4895499 6.29471602-0.2926749 9.37176152-0.73300693 3.95067744-0.63369053 8.34344297-0.29179599 12.68874844-0.87802558 5.42020606-0.92724434 11.85994161-0.92724434 17.37682646-1.02568184C470.1316124 62.19511719 470.1316124 62.14589844 470.1316124 62z" fill="#00C1DE" p-id="50020"></path><path d="M134.50951338 288.6273582c0.196875 0.05009766 0.48867099 0.05009766 0.68466709 0.05009766 2.04960586 13.81374668 13.27585693 23.32964883 22.45162324 30.11479365 26.06392178 19.42643232 58.3285166 33.77543203 92.64359619 44.70988711 7.70975244 2.48993701 16.15426963 5.02733584 23.91587842 7.80906885 4.29608672 1.56181377 8.93143037 2.14804336 13.03327881 3.61054072 2.97772911 1.02743965 5.71112315 1.26913886 8.73719209 2.05136368 6.44237227 1.75780987 13.520192 3.31786582 20.06188066 5.12401464 2.1955043 0.58622959 3.85575557 0.58622959 6.05125986 1.12236153 4.83309756 0.97646309 10.29900674 2.43983935 15.17868545 3.41630331 9.76287481 1.95204727 19.57320967 3.41894004 29.28598682 5.3692295 12.3486126 2.43983935 25.18941094 3.12362753 37.68304307 5.36922949 5.22245214 0.78046787 10.49236523 0.78046787 15.42214248 1.65937236 1.51523174 0.04921875 3.07792442 0.14677734 4.63885927 0.19511719 4.92889834 0.82880684 10.78679883 0.82880684 15.76579395 1.66025127 9.7619959 0.58535068 19.47477217 1.22079902 29.28598682 1.80614971 4.24598906 0.68203037 9.1748874-0.05009766 13.07986084 0.53701084 3.02694785 0 5.95370127 0.09667969 8.9788913 0.09667969 6.24901289 0.97646309 14.64606914 0.24345703 21.477796 0.24345703 6.88182451 0 14.49665596 0.73388584 20.93814844-0.24345703 3.22382286-0.48867099 6.68758623 0.04833984 9.56951543-0.43945225 4.34178984-0.04921875 8.68709531-0.19511719 13.03152099-0.24609375 4.10009062-0.2926749 8.15096338-0.53613193 12.2501751-0.87802559 0.92812324 0 1.90546523 0 2.83358936 0 3.95067744-0.58622959 8.54031797-0.24521484 12.83552578-0.97646308 11.81072286-1.17158027 23.62583935-2.34228164 35.43656221-3.56307979 6.15057539-1.22167793 12.98406006-1.46513408 19.13463633-2.53915576 10.10476846-1.80702862 20.89068838-3.17284628 30.65268339-5.17499121 2.58837451-0.53701084 5.27342872-0.82880684 7.90838526-1.17158027 9.71365606-2.53827685 19.91422442-3.61054073 29.62700156-6.24725508 16.93737422-4.53866396 33.77806875-8.54119687 50.22589307-13.32507569 13.56941074-4.00341094 27.43061836-8.78728974 39.92688721-14.10642157 2.05312148-0.92724434 3.90409541-1.31835761 5.95633798-2.09970353 5.1723545-1.90370742 10.64090039-4.53866396 15.51882217-6.93192216 1.70771221-0.78134678 3.31874473-1.02480292 4.97811709-1.95292618 14.44743721-7.51639394 28.50551895-14.9352293 41.0993455-24.06177685 7.80818994-5.7603419 15.3272206-12.83552578 20.2069002-21.42682031 0.63456943-1.36669658 1.26738106-2.78261279 1.90546524-4.10184844 0.38847568-1.46249737 0.43769443-4.53866396 1.21992011-5.41669043 0.39023349-0.29355381 0.68378818 0 0.97646309 0.19511718 0.78046787 5.46678809 0.09492188 13.47361084 0.09492188 19.81754562 0 13.27673584 0 26.55347168 0 39.87854735 0 40.85413154 0 81.75660293 0 122.7091711 0 11.03025498 0 22.25738497 0 33.28763994 0 6.78602373 0.43857334 13.96140292-0.68290928 19.71998702-2.14540664 10.88523545-6.19803633 19.8175456-11.42048848 27.62661444-1.0766584 1.51435283-1.80702862 3.36884238-3.12450644 4.78299991-3.26952597 3.75995479-6.54080977 7.61483144-9.7619959 11.51804707-1.36757549 1.22079902-2.73251513 2.43983935-4.05087188 3.75819697-3.46464229 3.36884238-7.02860185 6.44413008-10.9344542 9.37176152-13.12907959 9.95974893-27.23550205 19.91510333-43.24738887 26.79692784-2.1963832 1.02480292-4.39276641 2.24560195-6.5882707 3.36796348-6.10047773 2.4890581-12.15261651 5.32001075-18.25573183 7.90838524-8.44363828 3.56307979-16.88727656 6.14793867-25.771246 9.17488741-15.42302138 5.22157325-31.92270117 10.24978799-48.51642304 14.15476142-19.47652998 4.59051943-39.58411377 7.80906885-60.08544757 11.66570333-11.27459092 1.41591533-22.5975208 2.92938925-33.92308828 4.3918875-1.46425518 0-2.92851035 0.14677734-4.29520781 0.14677734-7.32127675 1.31747872-15.81413378 1.26913886-23.33316446 2.4890581-4.19413359 0.68554599-8.49109922 0.24521484-12.34861259 0.82880684-5.31913183 0.92812324-10.88347763 0.0984375-15.86071582 0.92812324-7.61571036 0.09667969-15.17956435 0.39023349-22.74605596 0.53701084-7.07869951 1.07490058-15.37556045 0.3911124-22.94117314 0.39111241-7.41971425 0-15.56891982 0.68290927-22.35582246-0.39111241-5.7612208-0.14677734-11.42136738-0.29355381-17.18083125-0.43769443-1.80614971 0-3.61054073 0-5.3701084-0.0975586-10.05554971-1.56269268-21.37935937-0.68115146-31.18969424-2.24560195-2.78261279-0.14501953-5.56522471-0.43945224-8.29773984-0.48867099-11.27634873-2.05136367-23.47818398-2.14716445-34.50756006-4.10184844-3.41894004-0.34189365-6.83524248-0.77958896-10.25418252-1.12148262-9.27156622-1.51435283-18.64332862-3.07528769-27.91665263-4.58788271-24.89409932-5.61356455-49.59132364-9.81209268-72.19236094-17.52360381-8.83475068-2.97509238-17.42516631-4.8814374-25.91626554-8.2494-10.1522294-4.24598906-20.25875567-8.25027891-30.21411005-12.39783135-3.41718223-1.51259502-6.98026201-3.46288448-10.20232706-5.12313574-3.80741573-2.14716445-7.41883536-3.71073604-11.17791122-5.61444346-6.88182451-3.56395869-13.42351318-8.15096338-19.57320967-12.34773369-8.98064912-6.10223555-19.7182292-13.66696934-26.40581543-21.91637021-1.31835761-1.31747872-2.68329638-2.68417529-4.00253204-4.00253203-5.0756748-6.63836748-10.3464668-13.32419678-14.20398016-21.23170313-1.75693096-3.46464229-3.26952597-7.61571036-4.24598907-11.47146503-0.53701084-2.09882461-0.58622959-4.24774687-1.61103252-5.80868175 0-24.20943222 0-48.41974424 0-72.58083662C134.50951338 397.86467715 134.50951338 343.19679893 134.50951338 288.6273582z" fill="#00C1DE" p-id="50021"></path><path d="M134.50951338 586.27461816c0.196875 0.09580078 0.48867099 0.09580078 0.68466709 0.09580079 2.04960586 13.81462559 13.27585693 23.23296914 22.45162324 30.11655146 26.06392178 19.42643232 58.3285166 33.67787344 92.64359619 44.66066836 7.70975244 2.4890581 16.15426963 4.97811709 23.91587842 7.76160791 4.29608672 1.56181377 8.93143037 2.24560195 13.03327881 3.70985713 2.97772911 0.97558418 5.71112315 1.17158027 8.73719209 2.00126601 6.44237227 1.75780987 13.520192 3.31786582 20.06188066 5.17411231 2.1955043 0.53613193 3.85575557 0.53613193 6.05125986 1.07577949 4.83309756 0.97294746 10.29900674 2.48642138 15.17868545 3.41630332 9.76287481 2.00214492 19.57320967 3.36796347 29.28598682 5.36835058 12.3486126 2.49081592 25.18941094 3.12362753 37.68304307 5.32264747 5.22245214 0.87714667 10.49236523 0.87714667 15.42214248 1.7068333 1.51523174 0.09667969 3.07792442 0.14677734 4.63885927 0.24521485 4.92889834 0.78046787 10.78679883 0.78046787 15.76579395 1.6092747 9.7619959 0.58622959 19.47477217 1.17158027 29.28598682 1.8052708 4.24598906 0.68554599 9.1748874-0.04921875 13.07986084 0.53788974 3.02694785 0 5.95370127 0.04921875 8.9788913 0.04921875 6.24901289 1.02568184 14.64606914 0.2926749 21.477796 0.29267491 6.88182451 0 14.49665596 0.73300693 20.93814844-0.29267491 3.22382286-0.43857334 6.68758623 0.0984375 9.56951543-0.39023349 4.34178984-0.05009766 8.68709531-0.196875 13.03152099-0.24521484 4.10009062-0.29179599 8.15096338-0.58535068 12.2501751-0.82880683 0.92812324 0 1.90546523 0 2.83358936 0 3.95067744-0.68466709 8.54031797-0.24433594 12.83552578-1.02480294 11.81072286-1.12148261 23.62583935-2.34403945 35.43656221-3.61141963 6.15057539-1.17070137 12.98406006-1.36581768 19.13463633-2.48993701 10.10476846-1.8052708 20.89068838-3.12362753 30.65268339-5.22069433 2.58837451-0.44033115 5.27342872-0.78134678 7.90838526-1.12324044 9.71365606-2.4890581 19.91422442-3.56220088 29.62700156-6.19891523 16.93737422-4.53954287 33.77806875-8.63875547 50.22589307-13.37429443 13.56941074-4.00341094 27.43061836-8.78553193 39.92688721-14.15564034 2.05312148-0.8789045 3.90409541-1.26913886 5.95633798-2.0988246 5.1723545-1.85360977 10.64090039-4.53866396 15.51882217-6.88182451 1.70771221-0.82880684 3.31874473-0.97558418 4.97811709-1.90370743 14.44743721-7.56649161 28.50551895-14.88688945 41.0993455-24.06441357 7.80818994-5.70936533 15.3272206-12.88474453 20.2069002-21.47515928 0.63456943-1.3684544 1.26738106-2.83095263 1.90546524-4.05175078 0.38847568-1.51259502 0.43769443-4.58876162 1.21992011-5.41844824 0.39023349-0.3911124 0.68378818 0 0.97646309 0.09492187 0.78046787 5.46854589 0.09492188 13.57028964 0.09492188 19.81930342 0 13.27761474 0 26.55522949 0 39.97346836 0 40.80491279 0 81.75836074 0 122.66171016 0 11.08035263 0 22.25738497 0 33.28851885 0 6.78426592 0.43857334 13.96052403-0.68290928 19.7191081-2.14540664 10.88523545-6.19803633 19.86588457-11.42048848 27.62749336-1.0766584 1.56181377-1.80702862 3.31786582-3.12450644 4.7829999-3.26952597 3.80565791-6.54080977 7.66053457-9.7619959 11.51716817-1.36757549 1.22079902-2.73251513 2.43983935-4.05087188 3.70897822-3.46464229 3.36972129-7.02860185 6.54168867-10.9344542 9.42273808-13.12907959 9.95711221-27.23550205 19.86500566-43.24738887 26.79780674-2.1963832 1.02392402-4.39276641 2.24472305-6.5882707 3.41630332-6.10047773 2.4890581-12.15261651 5.22245214-18.25573183 7.80906885-8.44363828 3.61141963-16.88727656 6.24813398-25.771246 9.22586396-15.42302138 5.22245214-31.92270117 10.19969033-48.51642304 14.10554268-19.47652998 4.63534365-39.58411377 7.90838526-60.08544757 11.66394551-11.27459092 1.46601299-22.5975208 2.97948692-33.92308828 4.39628203-1.46425518 0.09492188-2.92851035 0.24345703-4.29520781 0.24345703-7.32127675 1.26650214-15.81413378 1.26650214-23.33316446 2.43983936-4.19413359 0.63369053-8.49109922 0.24345703-12.34861259 0.87978339-5.31913183 0.82880684-10.88347763 0.04746094-15.86071582 0.82880684-7.61571036 0.14589844-15.17956435 0.43857334-22.74605596 0.53613193-7.07869951 1.12236153-15.37556045 0.48779209-22.94117314 0.48779209-7.41971425 0-15.56891982 0.63544834-22.35582246-0.48779209-5.7612208-0.09580078-11.42136738-0.24345703-17.18083125-0.39023349-1.80614971-0.05097656-3.61054073-0.05097656-5.3701084-0.14589844-10.05554971-1.51259502-21.37935937-0.63456943-31.18969424-2.24735976-2.78261279-0.04921875-5.56522471-0.34189365-8.29773984-0.43681553-11.27634873-2.00214492-23.47818398-2.14892227-34.50756006-4.10184844-3.41894004-0.43769443-6.83524248-0.77871006-10.25418252-1.07314277-9.27156622-1.61015362-18.64332862-3.17196738-27.91665263-4.63710147-24.89409932-5.61356455-49.59132364-9.80945596-72.19236094-17.4251663-8.83475068-3.07440878-17.42516631-4.97635928-25.91626554-8.34607969-10.1522294-4.14755156-20.25875567-8.2494-30.21411005-12.39695244-3.41718223-1.46337627-6.98026201-3.46376338-10.20232706-5.1723545-3.80741573-2.10058242-7.41883536-3.61229854-11.17791122-5.61532236-6.88182451-3.51298213-13.42351318-8.05252588-19.57320967-12.29763603-8.98064912-6.10399336-19.7182292-13.66784825-26.40581543-21.96646787-1.31835761-1.22079902-2.68329638-2.63407763-4.00253204-3.95243526-5.0756748-6.63924638-10.3464668-13.27673584-14.20398016-21.18424219-1.75693096-3.56659541-3.26952597-7.6649291-4.24598907-11.51980488-0.53701084-2.09882461-0.58622959-4.24774687-1.61103252-5.85702158 0-24.11187364 0-48.3714044 0-72.53249678C134.50951338 695.46095967 134.50951338 640.84142217 134.50951338 586.27461816z" fill="#00C1DE" p-id="50022"></path></svg>