<?xml version="1.0" standalone="no"?><!DOCTYPE svg PUBLIC "-//W3C//DTD SVG 1.1//EN" "http://www.w3.org/Graphics/SVG/1.1/DTD/svg11.dtd"><svg t="1565084481090" class="icon" viewBox="0 0 1024 1024" version="1.1" xmlns="http://www.w3.org/2000/svg" p-id="2218" xmlns:xlink="http://www.w3.org/1999/xlink" width="200" height="200"><defs><style type="text/css"></style></defs><path d="M883.2 96s6.4 6.4 0 0l6.4 819.2s0 6.4-6.4 6.4H140.8s-6.4 0-6.4-6.4V102.4s0-6.4 6.4-6.4h742.4m0-57.6H140.8c-32 0-64 25.6-64 64v819.2c0 32 25.6 64 64 64h742.4c32 0 64-25.6 64-64V102.4c0-32-32-64-64-64z" fill="#3AA485" p-id="2219"></path><path d="M768 755.2c-12.8 0-25.6 0-32-6.4-6.4-6.4-12.8-12.8-19.2-25.6L537.6 243.2c-6.4-12.8-19.2-19.2-25.6-19.2-6.4 0-19.2 6.4-32 25.6l-166.4 480c-6.4 19.2-19.2 32-38.4 32H256c-12.8 0-19.2 6.4-19.2 19.2 0 12.8 6.4 19.2 19.2 19.2h160c12.8 0 19.2-6.4 19.2-19.2 0-12.8-6.4-19.2-19.2-19.2h-25.6c-32 0-32-12.8-32-12.8 0-6.4 6.4-25.6 51.2-147.2h179.2c44.8 121.6 51.2 140.8 51.2 147.2 0 6.4 0 12.8-6.4 12.8 0 0-12.8 6.4-44.8 6.4-6.4 0-19.2 0-19.2 19.2 0 12.8 12.8 19.2 19.2 19.2H768c12.8 0 19.2-6.4 19.2-19.2 6.4-19.2-6.4-25.6-19.2-32zM569.6 556.8H422.4l70.4-204.8 76.8 204.8z" fill="#3AA485" p-id="2220"></path><path d="M422.4 556.8l-12.8 38.4h179.2l-19.2-38.4z" fill="#1F699C" p-id="2221"></path></svg>