<svg viewBox="0 0 1325 1024" xmlns="http://www.w3.org/2000/svg" width="258.789" height="200"><path d="M1318.076 643.192C1274.947 268.53 1198.69 0 956.664 0 834.025 0 771.02 126.012 661.571 135.951 548.871 126.012 489.178 0 366.54 0 124.514 0 48.195 268.529 8.44 639.88c-23.19 198.896-3.313 364.724 119.387 364.724 172.393 0 179.019-155.828 301.658-228.773 46.441-23.251 149.203-33.13 235.4-36.503 86.256 3.313 189.018 13.252 235.399 36.503 122.7 72.884 129.325 228.773 301.779 228.773 119.266 3.313 135.89-162.515 116.013-361.412zm-948.224-33.129c-96.136 0-172.393-79.57-172.393-172.454 0-92.762 76.257-172.393 172.393-172.393a171.249 171.249 0 0 1 172.393 172.393c0 96.196-79.57 172.454-172.393 172.454zM1142.309 470.8h-135.89v135.95h-66.32V470.8H804.15v-66.32H940.1V271.842h66.26V404.48h135.95v66.259zm-871.845-33.13c0-26.503 9.939-53.067 29.816-69.631 19.878-19.878 43.068-29.877 69.632-29.877 26.504 0 53.007 13.252 69.632 29.877 19.878 19.877 29.817 43.068 29.817 69.571 0 26.504-13.252 53.068-29.817 69.632-19.877 19.878-43.128 29.877-69.632 29.877-26.503 0-53.007-13.252-69.632-29.877-19.877-19.877-29.816-43.068-29.816-69.632z" fill="#D11415"/></svg>