<?xml version="1.0" standalone="no"?><!DOCTYPE svg PUBLIC "-//W3C//DTD SVG 1.1//EN" "http://www.w3.org/Graphics/SVG/1.1/DTD/svg11.dtd"><svg t="1565074404192" class="icon" viewBox="0 0 1325 1024" version="1.1" xmlns="http://www.w3.org/2000/svg" p-id="190495" xmlns:xlink="http://www.w3.org/1999/xlink" width="258.7890625" height="200"><defs><style type="text/css"></style></defs><path d="M1318.075934 643.192471C1274.947464 268.528941 1198.689581 0 956.664169 0c-122.639059 0-185.645176 126.012235-295.092705 135.951059C548.871228 126.012235 489.178052 0 366.538993 0 124.513581 0 48.195464 268.528941 8.440169 639.879529c-23.190588 198.896941-3.312941 364.724706 119.386353 364.724706 172.393412 0 179.019294-155.828706 301.658353-228.773647 46.441412-23.250824 149.202824-33.129412 235.39953-36.502588 86.256941 3.312941 189.018353 13.251765 235.399529 36.502588 122.699294 72.884706 129.325176 228.773647 301.778824 228.773647 119.265882 3.312941 135.890824-162.514824 116.013176-361.411764z m-948.224-33.129412c-96.135529 0-172.393412-79.570824-172.393412-172.453647 0-92.762353 76.257882-172.393412 172.393412-172.393412a171.248941 171.248941 0 0 1 172.393412 172.393412c0 96.195765-79.570824 172.453647-172.393412 172.453647z m772.457412-139.264h-135.890824v135.951059h-66.319058V470.799059H804.148405V404.48h135.951059V271.841882h66.258823v132.638118h135.951059v66.258824zM270.463699 437.669647c0-26.503529 9.938824-53.067294 29.81647-69.632 19.877647-19.877647 43.068235-29.876706 69.632-29.876706 26.503529 0 53.007059 13.251765 69.632 29.876706 19.877647 19.877647 29.816471 43.068235 29.816471 69.571765 0 26.503529-13.251765 53.067294-29.816471 69.632-19.877647 19.877647-43.128471 29.876706-69.632 29.876706-26.503529 0-53.007059-13.251765-69.632-29.876706-19.877647-19.877647-29.816471-43.068235-29.81647-69.632z" fill="#D11415" p-id="190496"></path></svg>