<?xml version="1.0" standalone="no"?><!DOCTYPE svg PUBLIC "-//W3C//DTD SVG 1.1//EN" "http://www.w3.org/Graphics/SVG/1.1/DTD/svg11.dtd"><svg t="1565075249318" class="icon" viewBox="0 0 1024 1024" version="1.1" xmlns="http://www.w3.org/2000/svg" p-id="192840" xmlns:xlink="http://www.w3.org/1999/xlink" width="200" height="200"><defs><style type="text/css"></style></defs><path d="M498.232897 945.208933a323.413154 323.413154 0 0 1-323.014932-323.014932c0-100.977722 116.110158-308.394495 310.613161-554.780136a15.473769 15.473769 0 0 1 12.401771-5.97333c2.844443 0 8.248884 0.796444 12.40177 5.97333 72.817737 92.330615 310.613161 405.048664 310.613161 554.780136a323.413154 323.413154 0 0 1-323.014931 323.014932M558.81953 29.29833A76.856846 76.856846 0 0 0 498.232897 0.000569c-23.779542 0-45.852419 10.695105-60.586633 29.35465C316.700553 182.556912 113.777999 463.246534 113.777999 622.194001a384.85312 384.85312 0 0 0 384.454898 384.454898 384.910008 384.910008 0 0 0 384.454897-384.454898c0-159.004356-202.865665-439.693978-323.868264-592.838782" p-id="192841" fill="#1296db"></path><path d="M692.792788 629.19133a30.719983 30.719983 0 0 0-40.277311 16.327102 323.470043 323.470043 0 0 1-157.582134 165.489686 30.719983 30.719983 0 1 0 26.623985 55.352858 384.910008 384.910008 0 0 0 187.562562-196.835446 30.719983 30.719983 0 0 0-16.327102-40.3342M733.866543 526.791387a30.719983 30.719983 0 0 0-40.334199 16.270214c-1.706666 4.095998-3.527109 8.078218-5.404442 12.060437a30.719983 30.719983 0 1 0 55.580414 26.168875 384.568675 384.568675 0 0 0 6.371552-14.222215 30.719983 30.719983 0 0 0-16.270213-40.220422" p-id="192842" fill="#1296db"></path></svg>