<?xml version="1.0" standalone="no"?><!DOCTYPE svg PUBLIC "-//W3C//DTD SVG 1.1//EN" "http://www.w3.org/Graphics/SVG/1.1/DTD/svg11.dtd"><svg t="1565074144151" class="icon" viewBox="0 0 1024 1024" version="1.1" xmlns="http://www.w3.org/2000/svg" p-id="179586" xmlns:xlink="http://www.w3.org/1999/xlink" width="200" height="200"><defs><style type="text/css"></style></defs><path d="M883.53231219 426.00518094c-62.62812094-21.09284906-145.18350187-14.52237937-216.64228125 0.58711125 64.30503469-33.2121 131.46120656-79.63709062 166.27539187-134.89177969 0 0 62.62716187-81.31400437-26.78553-153.35701688 0 0-45.98561625-39.05251781-98.6136525-17.00705156l0-0.43745531c-31.53518625 10.29268125-41.23883719-19.63562343-41.23883718-19.63562344l-0.22064626 0.14581875c-16.13022094-54.59946469-75.40259625-65.69318906-75.40259625-65.69318906C478.57204999 11.77104875 454.92257844 111.5550875 454.92257844 111.5550875c-21.242505 62.62428375-14.52621657 145.25353313 0.50844656 216.63844406-33.20922187-64.30695281-79.63229438-131.38637812-134.88698344-166.2024825 0 0-81.24301406-62.62716187-153.359895 26.78840813 0 0-39.05155875 45.91174781-17.07900093 98.53882406l-0.36742407 0c10.29268125 31.60713655-19.63562343 41.31558375-19.63562343 41.31558375l0.14965593 0.21585c-54.60138375 16.13309906-65.69798531 75.40355531-65.69798531 75.40355531-23.94014906 112.33498875 75.91392 135.98541938 75.91392 135.98541938 62.62812094 21.1676775 145.18350187 14.52237937 216.56841187-0.58711125-64.30695281 33.28884656-131.38541906 79.71191906-166.27539187 134.96660812 0 0-62.5532925 81.31400437 26.85939844 153.35605782 0 0 45.98657531 39.05155875 98.6136525 17.07900093l0 0.2906775c31.53518625-10.21785281 41.24075625 19.63562343 41.24075625 19.63562344l0.22064625-0.14581875c16.13022094 54.67237406 75.40163625 65.76801657 75.40163625 65.76801656 112.33211063 23.86915875 135.98254125-75.91392 135.98254125-75.91392 11.31628969-33.64955625 14.5252575-72.9917925 12.84834374-113.28185062 22.26323531 94.45014844 80.5829925 219.26893406 234.9616997 250.582515l49.19746218-37.01009906-22.18744781-78.75738282c0 0-164.81912531-29.12438345-220.80194813-150.36294 23.86628063 31.75103625 50.8005075 59.78082094 80.36234625 78.46670438 0 0 81.31400437 62.62716187 153.359895-26.78840813 0 0 39.04964062-45.98657531 17.07900094-98.6136525l0.36550594 0c-10.29172219-31.53038999 19.63274531-41.24075625 19.63274531-41.24075625l-0.21680906-0.22064625c54.67237406-16.12926188 65.76801657-75.39684 65.76801656-75.39684C983.38638125 449.65561156 883.53231219 426.00518094 883.53231219 426.00518094L883.53231219 426.00518094z" fill="#16b13b" p-id="179587"></path></svg>